<?xml version="1.0" encoding="utf-8" standalone="no"?>
<!DOCTYPE svg PUBLIC "-//W3C//DTD SVG 1.1//EN"
  "http://www.w3.org/Graphics/SVG/1.1/DTD/svg11.dtd">
<svg xmlns:xlink="http://www.w3.org/1999/xlink" width="864pt" height="360pt" viewBox="0 0 864 360" xmlns="http://www.w3.org/2000/svg" version="1.1">
 <metadata>
  <rdf:RDF xmlns:dc="http://purl.org/dc/elements/1.1/" xmlns:cc="http://creativecommons.org/ns#" xmlns:rdf="http://www.w3.org/1999/02/22-rdf-syntax-ns#">
   <cc:Work>
    <dc:type rdf:resource="http://purl.org/dc/dcmitype/StillImage"/>
    <dc:date>2024-07-16T17:48:09.150254</dc:date>
    <dc:format>image/svg+xml</dc:format>
    <dc:creator>
     <cc:Agent>
      <dc:title>Matplotlib v3.7.0, https://matplotlib.org/</dc:title>
     </cc:Agent>
    </dc:creator>
   </cc:Work>
  </rdf:RDF>
 </metadata>
 <defs>
  <style type="text/css">*{stroke-linejoin: round; stroke-linecap: butt}</style>
 </defs>
 <g id="figure_1">
  <g id="patch_1">
   <path d="M 0 360 
L 864 360 
L 864 0 
L 0 0 
z
" style="fill: #ffffff"/>
  </g>
  <g id="axes_1">
   <g id="patch_2">
    <path d="M 179.982872 186.192188 
L 707.876503 186.192188 
L 707.876503 10.8 
L 179.982872 10.8 
z
" style="fill: #ffffff"/>
   </g>
   <g id="matplotlib.axis_1">
    <g id="xtick_1">
     <g id="line2d_1">
      <defs>
       <path id="m6df5c3e6c7" d="M 0 0 
L 0 3.5 
" style="stroke: #000000; stroke-width: 0.8"/>
      </defs>
      <g>
       <use xlink:href="#m6df5c3e6c7" x="203.978037" y="186.192188" style="stroke: #000000; stroke-width: 0.8"/>
      </g>
     </g>
     <g id="text_1">
      <!-- −3 -->
      <g transform="translate(196.606943 200.790625) scale(0.1 -0.1)">
       <defs>
        <path id="DejaVuSans-2212" d="M 678 2272 
L 4684 2272 
L 4684 1741 
L 678 1741 
L 678 2272 
z
" transform="scale(0.015625)"/>
        <path id="DejaVuSans-33" d="M 2597 2516 
Q 3050 2419 3304 2112 
Q 3559 1806 3559 1356 
Q 3559 666 3084 287 
Q 2609 -91 1734 -91 
Q 1441 -91 1130 -33 
Q 819 25 488 141 
L 488 750 
Q 750 597 1062 519 
Q 1375 441 1716 441 
Q 2309 441 2620 675 
Q 2931 909 2931 1356 
Q 2931 1769 2642 2001 
Q 2353 2234 1838 2234 
L 1294 2234 
L 1294 2753 
L 1863 2753 
Q 2328 2753 2575 2939 
Q 2822 3125 2822 3475 
Q 2822 3834 2567 4026 
Q 2313 4219 1838 4219 
Q 1578 4219 1281 4162 
Q 984 4106 628 3988 
L 628 4550 
Q 988 4650 1302 4700 
Q 1616 4750 1894 4750 
Q 2613 4750 3031 4423 
Q 3450 4097 3450 3541 
Q 3450 3153 3228 2886 
Q 3006 2619 2597 2516 
z
" transform="scale(0.015625)"/>
       </defs>
       <use xlink:href="#DejaVuSans-2212"/>
       <use xlink:href="#DejaVuSans-33" x="83.789062"/>
      </g>
     </g>
    </g>
    <g id="xtick_2">
     <g id="line2d_2">
      <g>
       <use xlink:href="#m6df5c3e6c7" x="283.96192" y="186.192188" style="stroke: #000000; stroke-width: 0.8"/>
      </g>
     </g>
     <g id="text_2">
      <!-- −2 -->
      <g transform="translate(276.590827 200.790625) scale(0.1 -0.1)">
       <defs>
        <path id="DejaVuSans-32" d="M 1228 531 
L 3431 531 
L 3431 0 
L 469 0 
L 469 531 
Q 828 903 1448 1529 
Q 2069 2156 2228 2338 
Q 2531 2678 2651 2914 
Q 2772 3150 2772 3378 
Q 2772 3750 2511 3984 
Q 2250 4219 1831 4219 
Q 1534 4219 1204 4116 
Q 875 4013 500 3803 
L 500 4441 
Q 881 4594 1212 4672 
Q 1544 4750 1819 4750 
Q 2544 4750 2975 4387 
Q 3406 4025 3406 3419 
Q 3406 3131 3298 2873 
Q 3191 2616 2906 2266 
Q 2828 2175 2409 1742 
Q 1991 1309 1228 531 
z
" transform="scale(0.015625)"/>
       </defs>
       <use xlink:href="#DejaVuSans-2212"/>
       <use xlink:href="#DejaVuSans-32" x="83.789062"/>
      </g>
     </g>
    </g>
    <g id="xtick_3">
     <g id="line2d_3">
      <g>
       <use xlink:href="#m6df5c3e6c7" x="363.945804" y="186.192188" style="stroke: #000000; stroke-width: 0.8"/>
      </g>
     </g>
     <g id="text_3">
      <!-- −1 -->
      <g transform="translate(356.57471 200.790625) scale(0.1 -0.1)">
       <defs>
        <path id="DejaVuSans-31" d="M 794 531 
L 1825 531 
L 1825 4091 
L 703 3866 
L 703 4441 
L 1819 4666 
L 2450 4666 
L 2450 531 
L 3481 531 
L 3481 0 
L 794 0 
L 794 531 
z
" transform="scale(0.015625)"/>
       </defs>
       <use xlink:href="#DejaVuSans-2212"/>
       <use xlink:href="#DejaVuSans-31" x="83.789062"/>
      </g>
     </g>
    </g>
    <g id="xtick_4">
     <g id="line2d_4">
      <g>
       <use xlink:href="#m6df5c3e6c7" x="443.929687" y="186.192188" style="stroke: #000000; stroke-width: 0.8"/>
      </g>
     </g>
     <g id="text_4">
      <!-- 0 -->
      <g transform="translate(440.748437 200.790625) scale(0.1 -0.1)">
       <defs>
        <path id="DejaVuSans-30" d="M 2034 4250 
Q 1547 4250 1301 3770 
Q 1056 3291 1056 2328 
Q 1056 1369 1301 889 
Q 1547 409 2034 409 
Q 2525 409 2770 889 
Q 3016 1369 3016 2328 
Q 3016 3291 2770 3770 
Q 2525 4250 2034 4250 
z
M 2034 4750 
Q 2819 4750 3233 4129 
Q 3647 3509 3647 2328 
Q 3647 1150 3233 529 
Q 2819 -91 2034 -91 
Q 1250 -91 836 529 
Q 422 1150 422 2328 
Q 422 3509 836 4129 
Q 1250 4750 2034 4750 
z
" transform="scale(0.015625)"/>
       </defs>
       <use xlink:href="#DejaVuSans-30"/>
      </g>
     </g>
    </g>
    <g id="xtick_5">
     <g id="line2d_5">
      <g>
       <use xlink:href="#m6df5c3e6c7" x="523.913571" y="186.192188" style="stroke: #000000; stroke-width: 0.8"/>
      </g>
     </g>
     <g id="text_5">
      <!-- 1 -->
      <g transform="translate(520.732321 200.790625) scale(0.1 -0.1)">
       <use xlink:href="#DejaVuSans-31"/>
      </g>
     </g>
    </g>
    <g id="xtick_6">
     <g id="line2d_6">
      <g>
       <use xlink:href="#m6df5c3e6c7" x="603.897455" y="186.192188" style="stroke: #000000; stroke-width: 0.8"/>
      </g>
     </g>
     <g id="text_6">
      <!-- 2 -->
      <g transform="translate(600.716205 200.790625) scale(0.1 -0.1)">
       <use xlink:href="#DejaVuSans-32"/>
      </g>
     </g>
    </g>
    <g id="xtick_7">
     <g id="line2d_7">
      <g>
       <use xlink:href="#m6df5c3e6c7" x="683.881338" y="186.192188" style="stroke: #000000; stroke-width: 0.8"/>
      </g>
     </g>
     <g id="text_7">
      <!-- 3 -->
      <g transform="translate(680.700088 200.790625) scale(0.1 -0.1)">
       <use xlink:href="#DejaVuSans-33"/>
      </g>
     </g>
    </g>
    <g id="text_8">
     <!-- $\lambda$ -->
     <g transform="translate(440.929688 214.46875) scale(0.1 -0.1)">
      <defs>
       <path id="DejaVuSans-Oblique-3bb" d="M 2350 4316 
L 3125 0 
L 2516 0 
L 2038 2588 
L 328 0 
L -281 0 
L 1903 3356 
L 1794 3975 
Q 1725 4369 1391 4369 
L 1091 4369 
L 1184 4863 
L 1550 4856 
Q 2253 4847 2350 4316 
z
" transform="scale(0.015625)"/>
      </defs>
      <use xlink:href="#DejaVuSans-Oblique-3bb" transform="translate(0 0.015625)"/>
     </g>
    </g>
   </g>
   <g id="matplotlib.axis_2">
    <g id="ytick_1">
     <g id="line2d_8">
      <defs>
       <path id="mc222da94c0" d="M 0 0 
L -3.5 0 
" style="stroke: #000000; stroke-width: 0.8"/>
      </defs>
      <g>
       <use xlink:href="#mc222da94c0" x="179.982872" y="177.973493" style="stroke: #000000; stroke-width: 0.8"/>
      </g>
     </g>
     <g id="text_9">
      <!-- −2 -->
      <g transform="translate(158.240684 181.772712) scale(0.1 -0.1)">
       <use xlink:href="#DejaVuSans-2212"/>
       <use xlink:href="#DejaVuSans-32" x="83.789062"/>
      </g>
     </g>
    </g>
    <g id="ytick_2">
     <g id="line2d_9">
      <g>
       <use xlink:href="#mc222da94c0" x="179.982872" y="137.981552" style="stroke: #000000; stroke-width: 0.8"/>
      </g>
     </g>
     <g id="text_10">
      <!-- −1 -->
      <g transform="translate(158.240684 141.78077) scale(0.1 -0.1)">
       <use xlink:href="#DejaVuSans-2212"/>
       <use xlink:href="#DejaVuSans-31" x="83.789062"/>
      </g>
     </g>
    </g>
    <g id="ytick_3">
     <g id="line2d_10">
      <g>
       <use xlink:href="#mc222da94c0" x="179.982872" y="97.98961" style="stroke: #000000; stroke-width: 0.8"/>
      </g>
     </g>
     <g id="text_11">
      <!-- 0 -->
      <g transform="translate(166.620372 101.788829) scale(0.1 -0.1)">
       <use xlink:href="#DejaVuSans-30"/>
      </g>
     </g>
    </g>
    <g id="ytick_4">
     <g id="line2d_11">
      <g>
       <use xlink:href="#mc222da94c0" x="179.982872" y="57.997668" style="stroke: #000000; stroke-width: 0.8"/>
      </g>
     </g>
     <g id="text_12">
      <!-- 1 -->
      <g transform="translate(166.620372 61.796887) scale(0.1 -0.1)">
       <use xlink:href="#DejaVuSans-31"/>
      </g>
     </g>
    </g>
    <g id="ytick_5">
     <g id="line2d_12">
      <g>
       <use xlink:href="#mc222da94c0" x="179.982872" y="18.005726" style="stroke: #000000; stroke-width: 0.8"/>
      </g>
     </g>
     <g id="text_13">
      <!-- 2 -->
      <g transform="translate(166.620372 21.804945) scale(0.1 -0.1)">
       <use xlink:href="#DejaVuSans-32"/>
      </g>
     </g>
    </g>
    <g id="text_14">
     <!-- $x$ -->
     <g transform="translate(152.160997 101.496094) rotate(-90) scale(0.1 -0.1)">
      <defs>
       <path id="DejaVuSans-Oblique-78" d="M 3841 3500 
L 2234 1784 
L 3219 0 
L 2559 0 
L 1819 1388 
L 531 0 
L -166 0 
L 1556 1844 
L 641 3500 
L 1300 3500 
L 1972 2234 
L 3144 3500 
L 3841 3500 
z
" transform="scale(0.015625)"/>
      </defs>
      <use xlink:href="#DejaVuSans-Oblique-78" transform="translate(0 0.3125)"/>
     </g>
    </g>
   </g>
   <g id="line2d_13">
    <path d="M 683.881338 18.772372 
L 645.221826 23.889942 
L 617.511182 27.801796 
L 592.226191 31.587719 
L 569.361624 35.226545 
L 548.154702 38.825408 
L 529.360187 42.238211 
L 512.963772 45.431094 
L 498.211193 48.523122 
L 485.101821 51.498187 
L 474.343978 54.153243 
L 465.19179 56.62006 
L 457.624333 58.863402 
L 450.951715 61.067638 
L 445.828707 62.983706 
L 441.592693 64.813155 
L 438.787509 66.237589 
L 436.746364 67.468767 
L 434.9759 68.800048 
L 433.905329 69.873023 
L 433.142579 71.009423 
L 432.849685 71.795371 
L 432.755672 72.552939 
L 432.782119 72.95264 
L 432.782119 72.95264 
" clip-path="url(#p7e54936d6b)" style="fill: none; stroke: #000000; stroke-width: 1.5; stroke-linecap: square"/>
   </g>
   <g id="line2d_14">
    <path d="M 432.782119 72.95264 
L 432.992243 73.745119 
L 433.400915 74.518032 
L 434.334168 75.622134 
L 435.568089 76.650306 
L 437.540417 77.908663 
L 439.762972 79.058673 
L 442.767219 80.377814 
L 447.23864 82.061573 
L 452.588845 83.815649 
L 458.821665 85.615494 
L 465.245071 87.239177 
L 471.847178 88.672332 
L 478.611926 89.901297 
L 485.510014 90.928671 
L 493.288335 91.858352 
L 501.934941 92.669507 
L 512.225791 93.411329 
L 524.949136 94.096154 
L 540.897047 94.717945 
L 561.661522 95.285264 
L 588.837215 95.787721 
L 625.618928 96.231315 
L 677.602476 96.621547 
L 683.881338 96.657285 
L 683.881338 96.657285 
" clip-path="url(#p7e54936d6b)" style="fill: none; stroke-dasharray: 5.55,2.4; stroke-dashoffset: 0; stroke: #000000; stroke-width: 1.5"/>
   </g>
   <g id="line2d_15">
    <path d="M 683.881338 178.219815 
L 643.605709 173.030907 
L 613.523445 168.905131 
L 586.640942 165.000015 
L 561.418314 161.111536 
L 538.61967 157.37078 
L 518.236259 153.804526 
L 500.255211 150.444509 
L 483.919362 147.174957 
L 469.228311 144.01056 
L 456.900533 141.142731 
L 446.189263 138.441019 
L 437.082641 135.932424 
L 429.562547 133.649672 
L 423.598578 131.634812 
L 418.517085 129.691416 
L 414.916272 128.105904 
L 412.12723 126.673586 
L 410.100051 125.436634 
L 408.333269 124.103986 
L 407.239261 123.036748 
L 406.396887 121.914061 
L 405.846432 120.74708 
L 405.601778 119.554284 
L 405.599393 118.733168 
L 405.599393 118.733168 
" clip-path="url(#p7e54936d6b)" style="fill: none; stroke: #000000; stroke-width: 1.5; stroke-linecap: square"/>
   </g>
   <g id="line2d_16">
    <path d="M 405.599393 118.733168 
L 405.641055 118.333791 
L 405.707383 117.935249 
L 405.795565 117.537768 
L 405.90262 117.141447 
L 406.025448 116.746271 
L 406.160859 116.352124 
L 406.305591 115.958807 
L 406.456306 115.566051 
L 406.609577 115.173543 
L 406.761861 114.780939 
L 406.909466 114.387889 
L 407.048506 113.994058 
L 407.17486 113.59916 
L 407.284127 113.20299 
L 407.371601 112.805469 
L 407.432264 112.406702 
L 407.460828 112.007038 
L 407.462333 111.895319 
L 407.441884 111.49553 
" clip-path="url(#p7e54936d6b)" style="fill: none; stroke-dasharray: 5.55,2.4; stroke-dashoffset: 0; stroke: #000000; stroke-width: 1.5"/>
   </g>
   <g id="line2d_17">
    <path d="M 407.441884 111.49553 
L 407.262785 110.701108 
L 406.871469 109.926109 
L 406.253254 109.189048 
L 405.420618 108.506728 
L 403.844679 107.604084 
L 401.992393 106.842835 
L 399.263226 106.010227 
L 395.621057 105.186774 
L 391.076956 104.41735 
L 384.874401 103.634035 
L 377.012015 102.902446 
L 367.503501 102.250867 
L 354.769539 101.617366 
L 338.014562 101.029574 
L 316.444417 100.508091 
L 286.866045 100.030238 
L 246.083162 99.607981 
L 203.978037 99.323417 
L 203.978037 99.323417 
" clip-path="url(#p7e54936d6b)" style="fill: none; stroke: #000000; stroke-width: 1.5; stroke-linecap: square"/>
   </g>
   <g id="line2d_18">
    <path d="M 403.937746 186.192188 
L 403.937746 10.8 
" clip-path="url(#p7e54936d6b)" style="fill: none; stroke-dasharray: 9.6,2.4,1.5,2.4; stroke-dashoffset: 0; stroke: #000000; stroke-width: 1.5"/>
   </g>
   <g id="line2d_19">
    <path d="M 423.933717 186.192188 
L 423.933717 10.8 
" clip-path="url(#p7e54936d6b)" style="fill: none; stroke-dasharray: 9.6,2.4,1.5,2.4; stroke-dashoffset: 0; stroke: #000000; stroke-width: 1.5"/>
   </g>
   <g id="line2d_20">
    <path d="M 483.921629 186.192188 
L 483.921629 10.8 
" clip-path="url(#p7e54936d6b)" style="fill: none; stroke-dasharray: 9.6,2.4,1.5,2.4; stroke-dashoffset: 0; stroke: #000000; stroke-width: 1.5"/>
   </g>
   <g id="patch_3">
    <path d="M 179.982872 186.192188 
L 179.982872 10.8 
" style="fill: none; stroke: #000000; stroke-width: 0.8; stroke-linejoin: miter; stroke-linecap: square"/>
   </g>
   <g id="patch_4">
    <path d="M 707.876503 186.192188 
L 707.876503 10.8 
" style="fill: none; stroke: #000000; stroke-width: 0.8; stroke-linejoin: miter; stroke-linecap: square"/>
   </g>
   <g id="patch_5">
    <path d="M 179.982872 186.192188 
L 707.876503 186.192188 
" style="fill: none; stroke: #000000; stroke-width: 0.8; stroke-linejoin: miter; stroke-linecap: square"/>
   </g>
   <g id="patch_6">
    <path d="M 179.982872 10.8 
L 707.876503 10.8 
" style="fill: none; stroke: #000000; stroke-width: 0.8; stroke-linejoin: miter; stroke-linecap: square"/>
   </g>
   <g id="text_15">
    <!-- a. -->
    <g transform="translate(387.940969 30.003309) scale(0.1 -0.1)">
     <defs>
      <path id="DejaVuSans-61" d="M 2194 1759 
Q 1497 1759 1228 1600 
Q 959 1441 959 1056 
Q 959 750 1161 570 
Q 1363 391 1709 391 
Q 2188 391 2477 730 
Q 2766 1069 2766 1631 
L 2766 1759 
L 2194 1759 
z
M 3341 1997 
L 3341 0 
L 2766 0 
L 2766 531 
Q 2569 213 2275 61 
Q 1981 -91 1556 -91 
Q 1019 -91 701 211 
Q 384 513 384 1019 
Q 384 1609 779 1909 
Q 1175 2209 1959 2209 
L 2766 2209 
L 2766 2266 
Q 2766 2663 2505 2880 
Q 2244 3097 1772 3097 
Q 1472 3097 1187 3025 
Q 903 2953 641 2809 
L 641 3341 
Q 956 3463 1253 3523 
Q 1550 3584 1831 3584 
Q 2591 3584 2966 3190 
Q 3341 2797 3341 1997 
z
" transform="scale(0.015625)"/>
      <path id="DejaVuSans-2e" d="M 684 794 
L 1344 794 
L 1344 0 
L 684 0 
L 684 794 
z
" transform="scale(0.015625)"/>
     </defs>
     <use xlink:href="#DejaVuSans-61"/>
     <use xlink:href="#DejaVuSans-2e" x="61.279297"/>
    </g>
   </g>
   <g id="text_16">
    <!-- b. -->
    <g transform="translate(431.932105 30.003309) scale(0.1 -0.1)">
     <defs>
      <path id="DejaVuSans-62" d="M 3116 1747 
Q 3116 2381 2855 2742 
Q 2594 3103 2138 3103 
Q 1681 3103 1420 2742 
Q 1159 2381 1159 1747 
Q 1159 1113 1420 752 
Q 1681 391 2138 391 
Q 2594 391 2855 752 
Q 3116 1113 3116 1747 
z
M 1159 2969 
Q 1341 3281 1617 3432 
Q 1894 3584 2278 3584 
Q 2916 3584 3314 3078 
Q 3713 2572 3713 1747 
Q 3713 922 3314 415 
Q 2916 -91 2278 -91 
Q 1894 -91 1617 61 
Q 1341 213 1159 525 
L 1159 0 
L 581 0 
L 581 4863 
L 1159 4863 
L 1159 2969 
z
" transform="scale(0.015625)"/>
     </defs>
     <use xlink:href="#DejaVuSans-62"/>
     <use xlink:href="#DejaVuSans-2e" x="63.476562"/>
    </g>
   </g>
   <g id="text_17">
    <!-- c. -->
    <g transform="translate(491.920018 30.003309) scale(0.1 -0.1)">
     <defs>
      <path id="DejaVuSans-63" d="M 3122 3366 
L 3122 2828 
Q 2878 2963 2633 3030 
Q 2388 3097 2138 3097 
Q 1578 3097 1268 2742 
Q 959 2388 959 1747 
Q 959 1106 1268 751 
Q 1578 397 2138 397 
Q 2388 397 2633 464 
Q 2878 531 3122 666 
L 3122 134 
Q 2881 22 2623 -34 
Q 2366 -91 2075 -91 
Q 1284 -91 818 406 
Q 353 903 353 1747 
Q 353 2603 823 3093 
Q 1294 3584 2113 3584 
Q 2378 3584 2631 3529 
Q 2884 3475 3122 3366 
z
" transform="scale(0.015625)"/>
     </defs>
     <use xlink:href="#DejaVuSans-63"/>
     <use xlink:href="#DejaVuSans-2e" x="54.980469"/>
    </g>
   </g>
  </g>
  <g id="axes_2">
   <g id="patch_7">
    <path d="M 37.840625 318.84375 
L 281.21875 318.84375 
L 281.21875 231.147656 
L 37.840625 231.147656 
z
" style="fill: #ffffff"/>
   </g>
   <g id="matplotlib.axis_3">
    <g id="xtick_8">
     <g id="line2d_21">
      <g>
       <use xlink:href="#m6df5c3e6c7" x="37.840625" y="318.84375" style="stroke: #000000; stroke-width: 0.8"/>
      </g>
     </g>
     <g id="text_18">
      <!-- −2.0 -->
      <g transform="translate(25.699219 333.442187) scale(0.1 -0.1)">
       <use xlink:href="#DejaVuSans-2212"/>
       <use xlink:href="#DejaVuSans-32" x="83.789062"/>
       <use xlink:href="#DejaVuSans-2e" x="147.412109"/>
       <use xlink:href="#DejaVuSans-30" x="179.199219"/>
      </g>
     </g>
    </g>
    <g id="xtick_9">
     <g id="line2d_22">
      <g>
       <use xlink:href="#m6df5c3e6c7" x="68.262891" y="318.84375" style="stroke: #000000; stroke-width: 0.8"/>
      </g>
     </g>
     <g id="text_19">
      <!-- −1.5 -->
      <g transform="translate(56.121484 333.442187) scale(0.1 -0.1)">
       <defs>
        <path id="DejaVuSans-35" d="M 691 4666 
L 3169 4666 
L 3169 4134 
L 1269 4134 
L 1269 2991 
Q 1406 3038 1543 3061 
Q 1681 3084 1819 3084 
Q 2600 3084 3056 2656 
Q 3513 2228 3513 1497 
Q 3513 744 3044 326 
Q 2575 -91 1722 -91 
Q 1428 -91 1123 -41 
Q 819 9 494 109 
L 494 744 
Q 775 591 1075 516 
Q 1375 441 1709 441 
Q 2250 441 2565 725 
Q 2881 1009 2881 1497 
Q 2881 1984 2565 2268 
Q 2250 2553 1709 2553 
Q 1456 2553 1204 2497 
Q 953 2441 691 2322 
L 691 4666 
z
" transform="scale(0.015625)"/>
       </defs>
       <use xlink:href="#DejaVuSans-2212"/>
       <use xlink:href="#DejaVuSans-31" x="83.789062"/>
       <use xlink:href="#DejaVuSans-2e" x="147.412109"/>
       <use xlink:href="#DejaVuSans-35" x="179.199219"/>
      </g>
     </g>
    </g>
    <g id="xtick_10">
     <g id="line2d_23">
      <g>
       <use xlink:href="#m6df5c3e6c7" x="98.685156" y="318.84375" style="stroke: #000000; stroke-width: 0.8"/>
      </g>
     </g>
     <g id="text_20">
      <!-- −1.0 -->
      <g transform="translate(86.54375 333.442187) scale(0.1 -0.1)">
       <use xlink:href="#DejaVuSans-2212"/>
       <use xlink:href="#DejaVuSans-31" x="83.789062"/>
       <use xlink:href="#DejaVuSans-2e" x="147.412109"/>
       <use xlink:href="#DejaVuSans-30" x="179.199219"/>
      </g>
     </g>
    </g>
    <g id="xtick_11">
     <g id="line2d_24">
      <g>
       <use xlink:href="#m6df5c3e6c7" x="129.107422" y="318.84375" style="stroke: #000000; stroke-width: 0.8"/>
      </g>
     </g>
     <g id="text_21">
      <!-- −0.5 -->
      <g transform="translate(116.966016 333.442187) scale(0.1 -0.1)">
       <use xlink:href="#DejaVuSans-2212"/>
       <use xlink:href="#DejaVuSans-30" x="83.789062"/>
       <use xlink:href="#DejaVuSans-2e" x="147.412109"/>
       <use xlink:href="#DejaVuSans-35" x="179.199219"/>
      </g>
     </g>
    </g>
    <g id="xtick_12">
     <g id="line2d_25">
      <g>
       <use xlink:href="#m6df5c3e6c7" x="159.529687" y="318.84375" style="stroke: #000000; stroke-width: 0.8"/>
      </g>
     </g>
     <g id="text_22">
      <!-- 0.0 -->
      <g transform="translate(151.578125 333.442187) scale(0.1 -0.1)">
       <use xlink:href="#DejaVuSans-30"/>
       <use xlink:href="#DejaVuSans-2e" x="63.623047"/>
       <use xlink:href="#DejaVuSans-30" x="95.410156"/>
      </g>
     </g>
    </g>
    <g id="xtick_13">
     <g id="line2d_26">
      <g>
       <use xlink:href="#m6df5c3e6c7" x="189.951953" y="318.84375" style="stroke: #000000; stroke-width: 0.8"/>
      </g>
     </g>
     <g id="text_23">
      <!-- 0.5 -->
      <g transform="translate(182.000391 333.442187) scale(0.1 -0.1)">
       <use xlink:href="#DejaVuSans-30"/>
       <use xlink:href="#DejaVuSans-2e" x="63.623047"/>
       <use xlink:href="#DejaVuSans-35" x="95.410156"/>
      </g>
     </g>
    </g>
    <g id="xtick_14">
     <g id="line2d_27">
      <g>
       <use xlink:href="#m6df5c3e6c7" x="220.374219" y="318.84375" style="stroke: #000000; stroke-width: 0.8"/>
      </g>
     </g>
     <g id="text_24">
      <!-- 1.0 -->
      <g transform="translate(212.422656 333.442187) scale(0.1 -0.1)">
       <use xlink:href="#DejaVuSans-31"/>
       <use xlink:href="#DejaVuSans-2e" x="63.623047"/>
       <use xlink:href="#DejaVuSans-30" x="95.410156"/>
      </g>
     </g>
    </g>
    <g id="xtick_15">
     <g id="line2d_28">
      <g>
       <use xlink:href="#m6df5c3e6c7" x="250.796484" y="318.84375" style="stroke: #000000; stroke-width: 0.8"/>
      </g>
     </g>
     <g id="text_25">
      <!-- 1.5 -->
      <g transform="translate(242.844922 333.442187) scale(0.1 -0.1)">
       <use xlink:href="#DejaVuSans-31"/>
       <use xlink:href="#DejaVuSans-2e" x="63.623047"/>
       <use xlink:href="#DejaVuSans-35" x="95.410156"/>
      </g>
     </g>
    </g>
    <g id="xtick_16">
     <g id="line2d_29">
      <g>
       <use xlink:href="#m6df5c3e6c7" x="281.21875" y="318.84375" style="stroke: #000000; stroke-width: 0.8"/>
      </g>
     </g>
     <g id="text_26">
      <!-- 2.0 -->
      <g transform="translate(273.267187 333.442187) scale(0.1 -0.1)">
       <use xlink:href="#DejaVuSans-32"/>
       <use xlink:href="#DejaVuSans-2e" x="63.623047"/>
       <use xlink:href="#DejaVuSans-30" x="95.410156"/>
      </g>
     </g>
    </g>
    <g id="text_27">
     <!-- $x$ -->
     <g transform="translate(156.529687 347.120312) scale(0.1 -0.1)">
      <use xlink:href="#DejaVuSans-Oblique-78" transform="translate(0 0.3125)"/>
     </g>
    </g>
   </g>
   <g id="matplotlib.axis_4">
    <g id="ytick_6">
     <g id="line2d_30">
      <g>
       <use xlink:href="#mc222da94c0" x="37.840625" y="318.84375" style="stroke: #000000; stroke-width: 0.8"/>
      </g>
     </g>
     <g id="text_28">
      <!-- 0 -->
      <g transform="translate(24.478125 322.642969) scale(0.1 -0.1)">
       <use xlink:href="#DejaVuSans-30"/>
      </g>
     </g>
    </g>
    <g id="ytick_7">
     <g id="line2d_31">
      <g>
       <use xlink:href="#mc222da94c0" x="37.840625" y="289.611719" style="stroke: #000000; stroke-width: 0.8"/>
      </g>
     </g>
     <g id="text_29">
      <!-- 1 -->
      <g transform="translate(24.478125 293.410937) scale(0.1 -0.1)">
       <use xlink:href="#DejaVuSans-31"/>
      </g>
     </g>
    </g>
    <g id="ytick_8">
     <g id="line2d_32">
      <g>
       <use xlink:href="#mc222da94c0" x="37.840625" y="260.379688" style="stroke: #000000; stroke-width: 0.8"/>
      </g>
     </g>
     <g id="text_30">
      <!-- 2 -->
      <g transform="translate(24.478125 264.178906) scale(0.1 -0.1)">
       <use xlink:href="#DejaVuSans-32"/>
      </g>
     </g>
    </g>
    <g id="ytick_9">
     <g id="line2d_33">
      <g>
       <use xlink:href="#mc222da94c0" x="37.840625" y="231.147656" style="stroke: #000000; stroke-width: 0.8"/>
      </g>
     </g>
     <g id="text_31">
      <!-- 3 -->
      <g transform="translate(24.478125 234.946875) scale(0.1 -0.1)">
       <use xlink:href="#DejaVuSans-33"/>
      </g>
     </g>
    </g>
    <g id="text_32">
     <!-- $f\left(x\right)$ -->
     <g transform="translate(18.398438 283.645703) rotate(-90) scale(0.1 -0.1)">
      <defs>
       <path id="DejaVuSans-Oblique-66" d="M 3059 4863 
L 2969 4384 
L 2419 4384 
Q 2106 4384 1964 4261 
Q 1822 4138 1753 3809 
L 1691 3500 
L 2638 3500 
L 2553 3053 
L 1606 3053 
L 1013 0 
L 434 0 
L 1031 3053 
L 481 3053 
L 563 3500 
L 1113 3500 
L 1159 3744 
Q 1278 4363 1576 4613 
Q 1875 4863 2516 4863 
L 3059 4863 
z
" transform="scale(0.015625)"/>
       <path id="DejaVuSans-28" d="M 1984 4856 
Q 1566 4138 1362 3434 
Q 1159 2731 1159 2009 
Q 1159 1288 1364 580 
Q 1569 -128 1984 -844 
L 1484 -844 
Q 1016 -109 783 600 
Q 550 1309 550 2009 
Q 550 2706 781 3412 
Q 1013 4119 1484 4856 
L 1984 4856 
z
" transform="scale(0.015625)"/>
       <path id="DejaVuSans-29" d="M 513 4856 
L 1013 4856 
Q 1481 4119 1714 3412 
Q 1947 2706 1947 2009 
Q 1947 1309 1714 600 
Q 1481 -109 1013 -844 
L 513 -844 
Q 928 -128 1133 580 
Q 1338 1288 1338 2009 
Q 1338 2731 1133 3434 
Q 928 4138 513 4856 
z
" transform="scale(0.015625)"/>
      </defs>
      <use xlink:href="#DejaVuSans-Oblique-66" transform="translate(0 0.015625)"/>
      <use xlink:href="#DejaVuSans-28" transform="translate(35.205078 0.015625)"/>
      <use xlink:href="#DejaVuSans-Oblique-78" transform="translate(74.21875 0.015625)"/>
      <use xlink:href="#DejaVuSans-29" transform="translate(133.398438 0.015625)"/>
     </g>
    </g>
   </g>
   <g id="line2d_34">
    <path d="M 86.456318 318.840836 
L 87.066589 318.711385 
L 87.676859 317.720954 
L 88.28713 317.419551 
L 88.897401 318.550361 
L 89.507671 318.828692 
L 91.948754 318.83865 
L 92.559025 318.648967 
L 93.169295 314.04242 
L 93.779566 290.404938 
L 94.389837 285.396924 
L 95.000107 310.951879 
L 95.610378 318.320847 
L 96.220649 318.82092 
L 98.05146 318.814848 
L 98.661731 318.138694 
L 99.272002 308.743204 
L 99.882272 274.02786 
L 100.492543 270.459832 
L 101.102814 305.262853 
L 101.713084 317.481726 
L 102.323355 318.733729 
L 103.543896 318.825292 
L 104.154167 318.69827 
L 104.764438 317.0448 
L 105.374708 303.079923 
L 105.984979 266.44905 
L 106.59525 265.432389 
L 107.20552 301.123349 
L 107.815791 316.122616 
L 108.426061 318.46827 
L 109.036332 318.745144 
L 109.646603 318.704827 
L 110.256873 318.267658 
L 110.867144 314.693559 
L 111.477415 295.260427 
L 112.087685 258.197486 
L 112.697956 259.405044 
L 113.308227 295.356848 
L 113.918497 313.693657 
L 114.528768 317.719254 
L 115.139039 318.386908 
L 115.749309 318.319147 
L 116.35958 317.13782 
L 116.969851 311.076958 
L 117.580121 289.996427 
L 118.190392 259.835655 
L 118.800663 262.539788 
L 119.410933 292.165028 
L 120.021204 310.46395 
L 120.631474 316.147389 
L 121.241745 317.420279 
L 121.852016 317.167207 
L 122.462286 314.978691 
L 123.072557 306.934782 
L 124.293098 266.458522 
L 124.903369 269.546149 
L 125.51364 290.903796 
L 126.12391 306.955183 
L 126.734181 313.516603 
L 127.344452 315.268194 
L 127.954722 314.697202 
L 128.564993 311.320558 
L 129.175264 302.368795 
L 130.395805 273.971756 
L 131.006075 276.743893 
L 132.226617 303.13044 
L 132.836887 309.493677 
L 133.447158 311.611275 
L 134.057429 310.763896 
L 134.667699 306.85852 
L 135.27797 299.03951 
L 135.888241 288.748553 
L 136.498511 282.074683 
L 137.108782 283.928765 
L 138.329323 300.163035 
L 138.939594 304.97165 
L 139.549865 306.66568 
L 140.160135 305.904034 
L 140.770406 302.574993 
L 141.990947 291.695557 
L 142.601218 288.745396 
L 143.211488 289.803344 
L 144.43203 298.22759 
L 145.0423 301.094447 
L 145.652571 302.193927 
L 146.262842 301.484985 
L 146.873112 299.600544 
L 147.483383 296.918512 
L 148.093654 294.739711 
L 148.703924 293.903018 
L 149.314195 294.463566 
L 151.145007 298.696818 
L 151.755278 299.225064 
L 154.19636 297.222588 
L 154.806631 297.146569 
L 156.027172 298.038879 
L 157.857984 298.921718 
L 158.468255 298.942847 
L 159.078525 299.121115 
L 159.688796 299.161675 
L 160.299067 299.319784 
L 160.909337 299.629931 
L 161.519608 299.646447 
L 164.570961 301.496643 
L 165.181232 301.484499 
L 165.791502 301.348734 
L 166.401773 300.899178 
L 167.012044 300.778714 
L 167.622314 301.04223 
L 168.232585 302.013474 
L 170.063397 305.469051 
L 170.673668 305.71678 
L 171.283938 305.113002 
L 171.894209 303.712846 
L 172.50448 301.990401 
L 173.11475 301.223412 
L 173.725021 301.732714 
L 174.335292 303.967619 
L 175.555833 308.885284 
L 176.166103 310.147974 
L 176.776374 310.127572 
L 177.386645 308.823837 
L 177.996915 306.155649 
L 178.607186 302.809121 
L 179.217457 300.916908 
L 179.827727 302.19757 
L 181.048269 310.206506 
L 181.658539 312.870322 
L 182.26881 314.161913 
L 182.879081 313.99166 
L 183.489351 312.301274 
L 184.099622 308.720617 
L 184.709893 303.747577 
L 185.320163 300.777014 
L 185.930434 303.023091 
L 187.150975 313.451999 
L 187.761246 315.885088 
L 188.371516 316.738539 
L 188.981787 316.522383 
L 189.592058 315.042566 
L 190.202328 311.108774 
L 190.812599 304.666118 
L 191.42287 300.365589 
L 192.03314 303.986806 
L 192.643411 311.233367 
L 193.253682 315.838699 
L 193.863952 317.628663 
L 194.474223 318.059275 
L 195.084494 317.92691 
L 195.694764 316.836416 
L 196.305035 313.345379 
L 196.915306 306.015027 
L 197.525576 300.794501 
L 198.135847 305.652419 
L 198.746117 313.669855 
L 199.356388 317.432666 
L 199.966659 318.430868 
L 200.576929 318.620308 
L 201.1872 318.532389 
L 201.797471 317.97597 
L 202.407741 315.292238 
L 203.018012 308.194071 
L 203.628283 302.514761 
L 204.238553 308.277862 
L 204.848824 315.800811 
L 205.459095 318.296074 
L 206.069365 318.728143 
L 207.289907 318.771374 
L 207.900177 318.508101 
L 208.510448 316.799499 
L 209.730989 305.100615 
L 210.95153 317.26897 
L 211.561801 318.667182 
L 212.172072 318.823835 
L 213.392613 318.833064 
L 214.002884 318.735186 
L 214.613154 317.892422 
L 215.833696 309.873772 
L 216.443966 314.558523 
L 217.054237 318.256243 
L 217.664508 318.811448 
L 220.10559 318.832335 
L 220.715861 318.643867 
L 221.936402 316.259353 
L 222.546673 317.81616 
L 223.156943 318.747816 
L 223.767214 318.839621 
L 223.767214 318.839621 
" clip-path="url(#p194dc36264)" style="fill: none; stroke: #1f77b4; stroke-width: 1.5; stroke-linecap: square"/>
   </g>
   <g id="line2d_35">
    <path d="M 85.938227 318.550899 
L 92.083525 311.475566 
L 98.228822 307.129231 
L 104.37412 304.657267 
L 110.519418 301.408242 
L 116.664715 300.131705 
L 122.810013 299.742065 
L 128.955311 299.27399 
L 135.100608 298.742049 
L 141.245906 298.140767 
L 147.391204 297.862315 
L 153.536501 298.057123 
L 159.681799 299.26497 
L 165.827096 301.293822 
L 171.972394 303.86998 
L 178.117692 306.539911 
L 184.262989 309.108254 
L 190.408287 311.135876 
L 196.553585 312.758471 
L 202.698882 314.221158 
L 208.84418 315.463953 
L 214.989478 316.839523 
L 221.134775 318.313063 
" clip-path="url(#p194dc36264)" style="fill: none; stroke: #ff7f0e; stroke-width: 1.5; stroke-linecap: square"/>
   </g>
   <g id="line2d_36">
    <path d="M 37.536402 318.84375 
L 74.955789 318.73281 
L 78.910684 318.486245 
L 81.95291 318.076488 
L 84.386691 317.536417 
L 86.820473 316.754368 
L 88.950031 315.844529 
L 91.383813 314.538294 
L 93.817594 312.968856 
L 96.85982 310.722357 
L 105.682277 303.98195 
L 108.116059 302.468432 
L 110.54984 301.212156 
L 112.983621 300.224983 
L 115.417402 299.493057 
L 117.851184 298.982852 
L 120.89341 298.586641 
L 124.848305 298.321941 
L 145.535445 297.496007 
L 149.186117 297.651127 
L 152.228344 297.989556 
L 155.27057 298.54381 
L 158.312797 299.317133 
L 161.659246 300.400084 
L 165.614141 301.929562 
L 171.698594 304.565277 
L 178.695715 307.533438 
L 183.259055 309.21871 
L 187.518172 310.560502 
L 192.385734 311.848917 
L 198.77441 313.284619 
L 215.506656 316.722307 
L 220.982664 317.639809 
L 225.850227 318.226511 
L 230.717789 318.58203 
L 236.49802 318.773481 
L 246.537367 318.840976 
L 281.522973 318.84375 
L 281.522973 318.84375 
" clip-path="url(#p194dc36264)" style="fill: none; stroke-dasharray: 1.2,1.2; stroke-dashoffset: 0; stroke: #008000; stroke-width: 1.5"/>
   </g>
   <g id="patch_8">
    <path d="M 37.840625 318.84375 
L 37.840625 231.147656 
" style="fill: none; stroke: #000000; stroke-width: 0.8; stroke-linejoin: miter; stroke-linecap: square"/>
   </g>
   <g id="patch_9">
    <path d="M 281.21875 318.84375 
L 281.21875 231.147656 
" style="fill: none; stroke: #000000; stroke-width: 0.8; stroke-linejoin: miter; stroke-linecap: square"/>
   </g>
   <g id="patch_10">
    <path d="M 37.840625 318.84375 
L 281.21875 318.84375 
" style="fill: none; stroke: #000000; stroke-width: 0.8; stroke-linejoin: miter; stroke-linecap: square"/>
   </g>
   <g id="patch_11">
    <path d="M 37.840625 231.147656 
L 281.21875 231.147656 
" style="fill: none; stroke: #000000; stroke-width: 0.8; stroke-linejoin: miter; stroke-linecap: square"/>
   </g>
   <g id="text_33">
    <!-- a) $\lambda = -0.5$ -->
    <g transform="translate(189.951953 254.533281) scale(0.1 -0.1)">
     <defs>
      <path id="DejaVuSans-20" transform="scale(0.015625)"/>
      <path id="DejaVuSans-3d" d="M 678 2906 
L 4684 2906 
L 4684 2381 
L 678 2381 
L 678 2906 
z
M 678 1631 
L 4684 1631 
L 4684 1100 
L 678 1100 
L 678 1631 
z
" transform="scale(0.015625)"/>
     </defs>
     <use xlink:href="#DejaVuSans-61" transform="translate(0 0.015625)"/>
     <use xlink:href="#DejaVuSans-29" transform="translate(61.279297 0.015625)"/>
     <use xlink:href="#DejaVuSans-20" transform="translate(100.292969 0.015625)"/>
     <use xlink:href="#DejaVuSans-Oblique-3bb" transform="translate(132.080078 0.015625)"/>
     <use xlink:href="#DejaVuSans-3d" transform="translate(210.742188 0.015625)"/>
     <use xlink:href="#DejaVuSans-2212" transform="translate(333.496094 0.015625)"/>
     <use xlink:href="#DejaVuSans-30" transform="translate(436.767578 0.015625)"/>
     <use xlink:href="#DejaVuSans-2e" transform="translate(500.390625 0.015625)"/>
     <use xlink:href="#DejaVuSans-35" transform="translate(532.177734 0.015625)"/>
    </g>
   </g>
  </g>
  <g id="axes_3">
   <g id="patch_12">
    <path d="M 322.240625 318.84375 
L 565.61875 318.84375 
L 565.61875 231.147656 
L 322.240625 231.147656 
z
" style="fill: #ffffff"/>
   </g>
   <g id="matplotlib.axis_5">
    <g id="xtick_17">
     <g id="line2d_37">
      <g>
       <use xlink:href="#m6df5c3e6c7" x="322.240625" y="318.84375" style="stroke: #000000; stroke-width: 0.8"/>
      </g>
     </g>
     <g id="text_34">
      <!-- −2.0 -->
      <g transform="translate(310.099219 333.442187) scale(0.1 -0.1)">
       <use xlink:href="#DejaVuSans-2212"/>
       <use xlink:href="#DejaVuSans-32" x="83.789062"/>
       <use xlink:href="#DejaVuSans-2e" x="147.412109"/>
       <use xlink:href="#DejaVuSans-30" x="179.199219"/>
      </g>
     </g>
    </g>
    <g id="xtick_18">
     <g id="line2d_38">
      <g>
       <use xlink:href="#m6df5c3e6c7" x="352.662891" y="318.84375" style="stroke: #000000; stroke-width: 0.8"/>
      </g>
     </g>
     <g id="text_35">
      <!-- −1.5 -->
      <g transform="translate(340.521484 333.442187) scale(0.1 -0.1)">
       <use xlink:href="#DejaVuSans-2212"/>
       <use xlink:href="#DejaVuSans-31" x="83.789062"/>
       <use xlink:href="#DejaVuSans-2e" x="147.412109"/>
       <use xlink:href="#DejaVuSans-35" x="179.199219"/>
      </g>
     </g>
    </g>
    <g id="xtick_19">
     <g id="line2d_39">
      <g>
       <use xlink:href="#m6df5c3e6c7" x="383.085156" y="318.84375" style="stroke: #000000; stroke-width: 0.8"/>
      </g>
     </g>
     <g id="text_36">
      <!-- −1.0 -->
      <g transform="translate(370.94375 333.442187) scale(0.1 -0.1)">
       <use xlink:href="#DejaVuSans-2212"/>
       <use xlink:href="#DejaVuSans-31" x="83.789062"/>
       <use xlink:href="#DejaVuSans-2e" x="147.412109"/>
       <use xlink:href="#DejaVuSans-30" x="179.199219"/>
      </g>
     </g>
    </g>
    <g id="xtick_20">
     <g id="line2d_40">
      <g>
       <use xlink:href="#m6df5c3e6c7" x="413.507422" y="318.84375" style="stroke: #000000; stroke-width: 0.8"/>
      </g>
     </g>
     <g id="text_37">
      <!-- −0.5 -->
      <g transform="translate(401.366016 333.442187) scale(0.1 -0.1)">
       <use xlink:href="#DejaVuSans-2212"/>
       <use xlink:href="#DejaVuSans-30" x="83.789062"/>
       <use xlink:href="#DejaVuSans-2e" x="147.412109"/>
       <use xlink:href="#DejaVuSans-35" x="179.199219"/>
      </g>
     </g>
    </g>
    <g id="xtick_21">
     <g id="line2d_41">
      <g>
       <use xlink:href="#m6df5c3e6c7" x="443.929688" y="318.84375" style="stroke: #000000; stroke-width: 0.8"/>
      </g>
     </g>
     <g id="text_38">
      <!-- 0.0 -->
      <g transform="translate(435.978125 333.442187) scale(0.1 -0.1)">
       <use xlink:href="#DejaVuSans-30"/>
       <use xlink:href="#DejaVuSans-2e" x="63.623047"/>
       <use xlink:href="#DejaVuSans-30" x="95.410156"/>
      </g>
     </g>
    </g>
    <g id="xtick_22">
     <g id="line2d_42">
      <g>
       <use xlink:href="#m6df5c3e6c7" x="474.351953" y="318.84375" style="stroke: #000000; stroke-width: 0.8"/>
      </g>
     </g>
     <g id="text_39">
      <!-- 0.5 -->
      <g transform="translate(466.400391 333.442187) scale(0.1 -0.1)">
       <use xlink:href="#DejaVuSans-30"/>
       <use xlink:href="#DejaVuSans-2e" x="63.623047"/>
       <use xlink:href="#DejaVuSans-35" x="95.410156"/>
      </g>
     </g>
    </g>
    <g id="xtick_23">
     <g id="line2d_43">
      <g>
       <use xlink:href="#m6df5c3e6c7" x="504.774219" y="318.84375" style="stroke: #000000; stroke-width: 0.8"/>
      </g>
     </g>
     <g id="text_40">
      <!-- 1.0 -->
      <g transform="translate(496.822656 333.442187) scale(0.1 -0.1)">
       <use xlink:href="#DejaVuSans-31"/>
       <use xlink:href="#DejaVuSans-2e" x="63.623047"/>
       <use xlink:href="#DejaVuSans-30" x="95.410156"/>
      </g>
     </g>
    </g>
    <g id="xtick_24">
     <g id="line2d_44">
      <g>
       <use xlink:href="#m6df5c3e6c7" x="535.196484" y="318.84375" style="stroke: #000000; stroke-width: 0.8"/>
      </g>
     </g>
     <g id="text_41">
      <!-- 1.5 -->
      <g transform="translate(527.244922 333.442187) scale(0.1 -0.1)">
       <use xlink:href="#DejaVuSans-31"/>
       <use xlink:href="#DejaVuSans-2e" x="63.623047"/>
       <use xlink:href="#DejaVuSans-35" x="95.410156"/>
      </g>
     </g>
    </g>
    <g id="xtick_25">
     <g id="line2d_45">
      <g>
       <use xlink:href="#m6df5c3e6c7" x="565.61875" y="318.84375" style="stroke: #000000; stroke-width: 0.8"/>
      </g>
     </g>
     <g id="text_42">
      <!-- 2.0 -->
      <g transform="translate(557.667188 333.442187) scale(0.1 -0.1)">
       <use xlink:href="#DejaVuSans-32"/>
       <use xlink:href="#DejaVuSans-2e" x="63.623047"/>
       <use xlink:href="#DejaVuSans-30" x="95.410156"/>
      </g>
     </g>
    </g>
    <g id="text_43">
     <!-- $x$ -->
     <g transform="translate(440.929688 347.120312) scale(0.1 -0.1)">
      <use xlink:href="#DejaVuSans-Oblique-78" transform="translate(0 0.3125)"/>
     </g>
    </g>
   </g>
   <g id="matplotlib.axis_6">
    <g id="ytick_10">
     <g id="line2d_46">
      <g>
       <use xlink:href="#mc222da94c0" x="322.240625" y="318.84375" style="stroke: #000000; stroke-width: 0.8"/>
      </g>
     </g>
     <g id="text_44">
      <!-- 0 -->
      <g transform="translate(308.878125 322.642969) scale(0.1 -0.1)">
       <use xlink:href="#DejaVuSans-30"/>
      </g>
     </g>
    </g>
    <g id="ytick_11">
     <g id="line2d_47">
      <g>
       <use xlink:href="#mc222da94c0" x="322.240625" y="289.611719" style="stroke: #000000; stroke-width: 0.8"/>
      </g>
     </g>
     <g id="text_45">
      <!-- 1 -->
      <g transform="translate(308.878125 293.410937) scale(0.1 -0.1)">
       <use xlink:href="#DejaVuSans-31"/>
      </g>
     </g>
    </g>
    <g id="ytick_12">
     <g id="line2d_48">
      <g>
       <use xlink:href="#mc222da94c0" x="322.240625" y="260.379688" style="stroke: #000000; stroke-width: 0.8"/>
      </g>
     </g>
     <g id="text_46">
      <!-- 2 -->
      <g transform="translate(308.878125 264.178906) scale(0.1 -0.1)">
       <use xlink:href="#DejaVuSans-32"/>
      </g>
     </g>
    </g>
    <g id="ytick_13">
     <g id="line2d_49">
      <g>
       <use xlink:href="#mc222da94c0" x="322.240625" y="231.147656" style="stroke: #000000; stroke-width: 0.8"/>
      </g>
     </g>
     <g id="text_47">
      <!-- 3 -->
      <g transform="translate(308.878125 234.946875) scale(0.1 -0.1)">
       <use xlink:href="#DejaVuSans-33"/>
      </g>
     </g>
    </g>
    <g id="text_48">
     <!-- $f\left(x\right)$ -->
     <g transform="translate(302.798437 283.645703) rotate(-90) scale(0.1 -0.1)">
      <use xlink:href="#DejaVuSans-Oblique-66" transform="translate(0 0.015625)"/>
      <use xlink:href="#DejaVuSans-28" transform="translate(35.205078 0.015625)"/>
      <use xlink:href="#DejaVuSans-Oblique-78" transform="translate(74.21875 0.015625)"/>
      <use xlink:href="#DejaVuSans-29" transform="translate(133.398438 0.015625)"/>
     </g>
    </g>
   </g>
   <g id="line2d_50">
    <path d="M 369.761117 318.843507 
L 370.371387 318.840107 
L 370.981658 318.561047 
L 371.591929 309.638672 
L 372.202199 267.652722 
L 372.81247 275.043549 
L 373.42274 312.645666 
L 374.033011 318.634395 
L 374.643282 318.837192 
L 376.474094 318.820677 
L 377.084364 317.705896 
L 377.694635 297.726303 
L 378.304906 228.867577 
L 378.915176 245.441867 
L 379.525447 306.099789 
L 380.135718 318.145737 
L 380.745988 318.813877 
L 381.96653 318.831121 
L 382.5768 318.728629 
L 383.187071 316.301612 
L 383.797341 289.85289 
L 384.407612 223.357791 
L 385.017883 242.773679 
L 385.628153 302.728973 
L 386.238424 317.417122 
L 386.848695 318.713085 
L 387.458965 318.81752 
L 388.069236 318.792504 
L 388.679507 318.40561 
L 389.289777 313.659898 
L 389.900048 281.028392 
L 390.510319 221.289496 
L 391.120589 242.410829 
L 391.73086 298.395415 
L 392.341131 316.108772 
L 392.951401 318.447626 
L 393.561672 318.69317 
L 394.171943 318.604764 
L 394.782213 317.629149 
L 395.392484 310.191933 
L 396.002754 277.0946 
L 396.613025 231.781308 
L 397.223296 250.094802 
L 397.833566 296.009201 
L 398.443837 314.144184 
L 399.054108 317.789444 
L 399.664378 318.336148 
L 400.274649 318.063646 
L 400.88492 316.180905 
L 401.49519 306.561488 
L 402.715732 249.118944 
L 403.326002 262.659038 
L 403.936273 295.456425 
L 404.546544 311.874305 
L 405.156814 316.482552 
L 405.767085 317.36709 
L 406.377355 316.848074 
L 406.987626 313.880668 
L 407.597897 303.862213 
L 408.208167 282.80767 
L 408.818438 266.010909 
L 409.428709 275.21113 
L 410.038979 296.364522 
L 410.64925 309.636729 
L 411.259521 314.487847 
L 411.869791 315.650231 
L 412.480062 314.772007 
L 413.090333 311.266155 
L 413.700603 302.619924 
L 414.310874 289.269027 
L 414.921145 281.173872 
L 415.531415 286.343881 
L 416.141686 298.577326 
L 416.751957 307.632066 
L 417.362227 311.946195 
L 417.972498 313.192613 
L 418.582768 312.16308 
L 419.193039 308.699001 
L 419.80331 302.472015 
L 420.41358 295.007112 
L 421.023851 291.303806 
L 421.634122 294.302542 
L 422.854663 306.236283 
L 423.464934 309.37127 
L 424.075204 310.339842 
L 424.685475 309.305209 
L 425.295746 306.914866 
L 426.516287 299.533025 
L 427.126558 298.183145 
L 427.736828 299.729023 
L 428.957369 305.516897 
L 429.56764 307.343292 
L 430.177911 307.886839 
L 430.788181 307.202183 
L 432.618993 303.026248 
L 433.229264 302.846038 
L 433.839535 303.465603 
L 434.449805 304.687248 
L 435.060076 305.539241 
L 435.670347 306.190137 
L 436.280617 306.468954 
L 436.890888 306.302587 
L 437.501159 305.843317 
L 438.7217 305.35903 
L 440.552512 305.934636 
L 441.773053 306.379091 
L 442.383324 306.402164 
L 442.993594 306.566345 
L 443.603865 306.585047 
L 445.434677 307.003757 
L 446.044948 307.034359 
L 449.096301 307.9546 
L 449.706572 307.974272 
L 450.927113 307.509416 
L 451.537383 307.437526 
L 452.147654 307.612879 
L 453.368195 309.062094 
L 453.978466 309.842198 
L 454.588737 310.30074 
L 455.199007 310.353929 
L 455.809278 309.765451 
L 457.029819 307.581306 
L 457.64009 307.107949 
L 458.250361 307.818592 
L 458.860631 309.297194 
L 459.470902 311.107317 
L 460.081173 312.378993 
L 460.691443 313.021388 
L 461.301714 312.750829 
L 461.911984 311.574116 
L 463.132526 307.149966 
L 463.742796 306.186737 
L 464.353067 307.393081 
L 465.573608 313.061948 
L 466.183879 314.77055 
L 466.79415 315.403716 
L 467.40442 315.061267 
L 468.014691 313.432084 
L 468.624962 310.254351 
L 469.235232 306.357233 
L 469.845503 304.626287 
L 470.455774 307.108192 
L 471.066044 311.568044 
L 471.676315 315.042809 
L 472.286586 316.640661 
L 472.896856 317.12179 
L 473.507127 316.701379 
L 474.117397 315.121742 
L 474.727668 311.20738 
L 475.337939 305.316285 
L 475.948209 302.570864 
L 476.55848 306.700168 
L 477.168751 312.998558 
L 477.779021 316.538412 
L 478.389292 317.837776 
L 478.999563 318.123636 
L 479.609833 317.839961 
L 480.220104 316.486195 
L 480.830375 312.219426 
L 481.440645 304.491736 
L 482.050916 300.751755 
L 483.271457 314.590825 
L 483.881728 317.710754 
L 484.491998 318.4809 
L 485.102269 318.612536 
L 485.71254 318.446169 
L 486.32281 317.50407 
L 486.933081 313.418969 
L 487.543352 303.86197 
L 488.153622 299.236722 
L 489.374164 316.115087 
L 489.984434 318.365536 
L 490.594705 318.739072 
L 491.204976 318.780118 
L 491.815246 318.703613 
L 492.425517 318.12825 
L 493.035788 314.549536 
L 493.646058 304.004535 
L 494.256329 298.995308 
L 494.8666 309.773223 
L 495.47687 317.249298 
L 496.087141 318.675197 
L 496.697411 318.816548 
L 497.917953 318.814363 
L 498.528223 318.574648 
L 499.138494 316.305498 
L 499.748765 307.669226 
L 500.359035 303.646785 
L 500.969306 313.248959 
L 501.579577 318.19164 
L 502.189847 318.806591 
L 504.020659 318.838893 
L 504.63093 318.779146 
L 505.241201 317.915252 
L 505.851471 313.658926 
L 506.461742 311.777885 
L 507.072012 316.749711 
L 507.682283 318.691469 
L 508.292554 318.840593 
L 511.343907 318.760202 
L 511.954178 318.233414 
L 512.564448 318.051017 
L 513.174719 318.663782 
L 513.78499 318.83695 
L 513.78499 318.83695 
" clip-path="url(#p67834b6b33)" style="fill: none; stroke: #1f77b4; stroke-width: 1.5; stroke-linecap: square"/>
   </g>
   <g id="line2d_51">
    <path d="M 370.338227 307.970447 
L 376.483525 299.221532 
L 382.628822 297.023582 
L 388.77412 295.092821 
L 394.919418 295.621675 
L 401.064715 297.762198 
L 407.210013 300.120755 
L 413.355311 302.392556 
L 419.500608 303.747359 
L 425.645906 304.552277 
L 431.791204 305.206501 
L 437.936501 305.865042 
L 444.081799 306.742147 
L 450.227096 307.788519 
L 456.372394 309.078322 
L 462.517692 310.22457 
L 468.662989 311.297496 
L 474.808287 312.066067 
L 480.953585 312.722341 
L 487.098882 313.240365 
L 493.24418 313.791288 
L 499.389478 315.314899 
L 505.534775 317.3041 
L 511.680073 318.677089 
" clip-path="url(#p67834b6b33)" style="fill: none; stroke: #ff7f0e; stroke-width: 1.5; stroke-linecap: square"/>
   </g>
   <g id="line2d_52">
    <path d="M 321.936402 318.84375 
L 352.967113 318.738127 
L 356.617785 318.489511 
L 359.355789 318.071349 
L 361.485348 317.523541 
L 363.310684 316.84742 
L 365.13602 315.943658 
L 366.961355 314.787581 
L 368.786691 313.370313 
L 370.91625 311.40292 
L 373.350031 308.812164 
L 377.609148 303.844316 
L 380.651375 300.440627 
L 382.780934 298.357621 
L 384.60627 296.85514 
L 386.431605 295.656804 
L 387.952719 294.90538 
L 389.473832 294.380329 
L 390.994945 294.074328 
L 392.516059 293.972996 
L 394.341395 294.09332 
L 396.16673 294.438315 
L 398.296289 295.064322 
L 401.034293 296.111842 
L 406.814523 298.653323 
L 411.073641 300.393871 
L 414.724312 301.639071 
L 418.374984 302.633558 
L 422.329879 303.467387 
L 427.501664 304.306763 
L 441.191684 306.407095 
L 448.188805 307.79708 
L 463.399938 310.931263 
L 468.875945 311.767327 
L 474.351953 312.372197 
L 481.653297 312.923769 
L 490.171531 313.599272 
L 495.039094 314.208978 
L 499.906656 315.04192 
L 508.729113 316.85357 
L 513.900898 317.768831 
L 518.160016 318.296609 
L 522.723355 318.626185 
L 528.503586 318.795831 
L 539.759824 318.843105 
L 565.922973 318.84375 
L 565.922973 318.84375 
" clip-path="url(#p67834b6b33)" style="fill: none; stroke-dasharray: 1.2,1.2; stroke-dashoffset: 0; stroke: #008000; stroke-width: 1.5"/>
   </g>
   <g id="patch_13">
    <path d="M 322.240625 318.84375 
L 322.240625 231.147656 
" style="fill: none; stroke: #000000; stroke-width: 0.8; stroke-linejoin: miter; stroke-linecap: square"/>
   </g>
   <g id="patch_14">
    <path d="M 565.61875 318.84375 
L 565.61875 231.147656 
" style="fill: none; stroke: #000000; stroke-width: 0.8; stroke-linejoin: miter; stroke-linecap: square"/>
   </g>
   <g id="patch_15">
    <path d="M 322.240625 318.84375 
L 565.61875 318.84375 
" style="fill: none; stroke: #000000; stroke-width: 0.8; stroke-linejoin: miter; stroke-linecap: square"/>
   </g>
   <g id="patch_16">
    <path d="M 322.240625 231.147656 
L 565.61875 231.147656 
" style="fill: none; stroke: #000000; stroke-width: 0.8; stroke-linejoin: miter; stroke-linecap: square"/>
   </g>
   <g id="text_49">
    <!-- b) $\lambda = -0.25$ -->
    <g transform="translate(474.351953 254.533281) scale(0.1 -0.1)">
     <use xlink:href="#DejaVuSans-62" transform="translate(0 0.015625)"/>
     <use xlink:href="#DejaVuSans-29" transform="translate(63.476562 0.015625)"/>
     <use xlink:href="#DejaVuSans-20" transform="translate(102.490234 0.015625)"/>
     <use xlink:href="#DejaVuSans-Oblique-3bb" transform="translate(134.277344 0.015625)"/>
     <use xlink:href="#DejaVuSans-3d" transform="translate(212.939453 0.015625)"/>
     <use xlink:href="#DejaVuSans-2212" transform="translate(335.693359 0.015625)"/>
     <use xlink:href="#DejaVuSans-30" transform="translate(438.964844 0.015625)"/>
     <use xlink:href="#DejaVuSans-2e" transform="translate(502.587891 0.015625)"/>
     <use xlink:href="#DejaVuSans-32" transform="translate(528.875 0.015625)"/>
     <use xlink:href="#DejaVuSans-35" transform="translate(592.498047 0.015625)"/>
    </g>
   </g>
  </g>
  <g id="axes_4">
   <g id="patch_17">
    <path d="M 606.640625 318.84375 
L 850.01875 318.84375 
L 850.01875 231.147656 
L 606.640625 231.147656 
z
" style="fill: #ffffff"/>
   </g>
   <g id="matplotlib.axis_7">
    <g id="xtick_26">
     <g id="line2d_53">
      <g>
       <use xlink:href="#m6df5c3e6c7" x="606.640625" y="318.84375" style="stroke: #000000; stroke-width: 0.8"/>
      </g>
     </g>
     <g id="text_50">
      <!-- −2.0 -->
      <g transform="translate(594.499219 333.442187) scale(0.1 -0.1)">
       <use xlink:href="#DejaVuSans-2212"/>
       <use xlink:href="#DejaVuSans-32" x="83.789062"/>
       <use xlink:href="#DejaVuSans-2e" x="147.412109"/>
       <use xlink:href="#DejaVuSans-30" x="179.199219"/>
      </g>
     </g>
    </g>
    <g id="xtick_27">
     <g id="line2d_54">
      <g>
       <use xlink:href="#m6df5c3e6c7" x="637.062891" y="318.84375" style="stroke: #000000; stroke-width: 0.8"/>
      </g>
     </g>
     <g id="text_51">
      <!-- −1.5 -->
      <g transform="translate(624.921484 333.442187) scale(0.1 -0.1)">
       <use xlink:href="#DejaVuSans-2212"/>
       <use xlink:href="#DejaVuSans-31" x="83.789062"/>
       <use xlink:href="#DejaVuSans-2e" x="147.412109"/>
       <use xlink:href="#DejaVuSans-35" x="179.199219"/>
      </g>
     </g>
    </g>
    <g id="xtick_28">
     <g id="line2d_55">
      <g>
       <use xlink:href="#m6df5c3e6c7" x="667.485156" y="318.84375" style="stroke: #000000; stroke-width: 0.8"/>
      </g>
     </g>
     <g id="text_52">
      <!-- −1.0 -->
      <g transform="translate(655.34375 333.442187) scale(0.1 -0.1)">
       <use xlink:href="#DejaVuSans-2212"/>
       <use xlink:href="#DejaVuSans-31" x="83.789062"/>
       <use xlink:href="#DejaVuSans-2e" x="147.412109"/>
       <use xlink:href="#DejaVuSans-30" x="179.199219"/>
      </g>
     </g>
    </g>
    <g id="xtick_29">
     <g id="line2d_56">
      <g>
       <use xlink:href="#m6df5c3e6c7" x="697.907422" y="318.84375" style="stroke: #000000; stroke-width: 0.8"/>
      </g>
     </g>
     <g id="text_53">
      <!-- −0.5 -->
      <g transform="translate(685.766016 333.442187) scale(0.1 -0.1)">
       <use xlink:href="#DejaVuSans-2212"/>
       <use xlink:href="#DejaVuSans-30" x="83.789062"/>
       <use xlink:href="#DejaVuSans-2e" x="147.412109"/>
       <use xlink:href="#DejaVuSans-35" x="179.199219"/>
      </g>
     </g>
    </g>
    <g id="xtick_30">
     <g id="line2d_57">
      <g>
       <use xlink:href="#m6df5c3e6c7" x="728.329687" y="318.84375" style="stroke: #000000; stroke-width: 0.8"/>
      </g>
     </g>
     <g id="text_54">
      <!-- 0.0 -->
      <g transform="translate(720.378125 333.442187) scale(0.1 -0.1)">
       <use xlink:href="#DejaVuSans-30"/>
       <use xlink:href="#DejaVuSans-2e" x="63.623047"/>
       <use xlink:href="#DejaVuSans-30" x="95.410156"/>
      </g>
     </g>
    </g>
    <g id="xtick_31">
     <g id="line2d_58">
      <g>
       <use xlink:href="#m6df5c3e6c7" x="758.751953" y="318.84375" style="stroke: #000000; stroke-width: 0.8"/>
      </g>
     </g>
     <g id="text_55">
      <!-- 0.5 -->
      <g transform="translate(750.800391 333.442187) scale(0.1 -0.1)">
       <use xlink:href="#DejaVuSans-30"/>
       <use xlink:href="#DejaVuSans-2e" x="63.623047"/>
       <use xlink:href="#DejaVuSans-35" x="95.410156"/>
      </g>
     </g>
    </g>
    <g id="xtick_32">
     <g id="line2d_59">
      <g>
       <use xlink:href="#m6df5c3e6c7" x="789.174219" y="318.84375" style="stroke: #000000; stroke-width: 0.8"/>
      </g>
     </g>
     <g id="text_56">
      <!-- 1.0 -->
      <g transform="translate(781.222656 333.442187) scale(0.1 -0.1)">
       <use xlink:href="#DejaVuSans-31"/>
       <use xlink:href="#DejaVuSans-2e" x="63.623047"/>
       <use xlink:href="#DejaVuSans-30" x="95.410156"/>
      </g>
     </g>
    </g>
    <g id="xtick_33">
     <g id="line2d_60">
      <g>
       <use xlink:href="#m6df5c3e6c7" x="819.596484" y="318.84375" style="stroke: #000000; stroke-width: 0.8"/>
      </g>
     </g>
     <g id="text_57">
      <!-- 1.5 -->
      <g transform="translate(811.644922 333.442187) scale(0.1 -0.1)">
       <use xlink:href="#DejaVuSans-31"/>
       <use xlink:href="#DejaVuSans-2e" x="63.623047"/>
       <use xlink:href="#DejaVuSans-35" x="95.410156"/>
      </g>
     </g>
    </g>
    <g id="xtick_34">
     <g id="line2d_61">
      <g>
       <use xlink:href="#m6df5c3e6c7" x="850.01875" y="318.84375" style="stroke: #000000; stroke-width: 0.8"/>
      </g>
     </g>
     <g id="text_58">
      <!-- 2.0 -->
      <g transform="translate(842.067187 333.442187) scale(0.1 -0.1)">
       <use xlink:href="#DejaVuSans-32"/>
       <use xlink:href="#DejaVuSans-2e" x="63.623047"/>
       <use xlink:href="#DejaVuSans-30" x="95.410156"/>
      </g>
     </g>
    </g>
    <g id="text_59">
     <!-- $x$ -->
     <g transform="translate(725.329687 347.120312) scale(0.1 -0.1)">
      <use xlink:href="#DejaVuSans-Oblique-78" transform="translate(0 0.3125)"/>
     </g>
    </g>
   </g>
   <g id="matplotlib.axis_8">
    <g id="ytick_14">
     <g id="line2d_62">
      <g>
       <use xlink:href="#mc222da94c0" x="606.640625" y="318.84375" style="stroke: #000000; stroke-width: 0.8"/>
      </g>
     </g>
     <g id="text_60">
      <!-- 0 -->
      <g transform="translate(593.278125 322.642969) scale(0.1 -0.1)">
       <use xlink:href="#DejaVuSans-30"/>
      </g>
     </g>
    </g>
    <g id="ytick_15">
     <g id="line2d_63">
      <g>
       <use xlink:href="#mc222da94c0" x="606.640625" y="289.611719" style="stroke: #000000; stroke-width: 0.8"/>
      </g>
     </g>
     <g id="text_61">
      <!-- 1 -->
      <g transform="translate(593.278125 293.410937) scale(0.1 -0.1)">
       <use xlink:href="#DejaVuSans-31"/>
      </g>
     </g>
    </g>
    <g id="ytick_16">
     <g id="line2d_64">
      <g>
       <use xlink:href="#mc222da94c0" x="606.640625" y="260.379688" style="stroke: #000000; stroke-width: 0.8"/>
      </g>
     </g>
     <g id="text_62">
      <!-- 2 -->
      <g transform="translate(593.278125 264.178906) scale(0.1 -0.1)">
       <use xlink:href="#DejaVuSans-32"/>
      </g>
     </g>
    </g>
    <g id="ytick_17">
     <g id="line2d_65">
      <g>
       <use xlink:href="#mc222da94c0" x="606.640625" y="231.147656" style="stroke: #000000; stroke-width: 0.8"/>
      </g>
     </g>
     <g id="text_63">
      <!-- 3 -->
      <g transform="translate(593.278125 234.946875) scale(0.1 -0.1)">
       <use xlink:href="#DejaVuSans-33"/>
      </g>
     </g>
    </g>
    <g id="text_64">
     <!-- $f\left(x\right)$ -->
     <g transform="translate(587.198438 283.645703) rotate(-90) scale(0.1 -0.1)">
      <use xlink:href="#DejaVuSans-Oblique-66" transform="translate(0 0.015625)"/>
      <use xlink:href="#DejaVuSans-28" transform="translate(35.205078 0.015625)"/>
      <use xlink:href="#DejaVuSans-Oblique-78" transform="translate(74.21875 0.015625)"/>
      <use xlink:href="#DejaVuSans-29" transform="translate(133.398438 0.015625)"/>
     </g>
    </g>
   </g>
   <g id="line2d_66">
    <path d="M 648.32065 318.843508 
L 648.932138 318.824844 
L 649.543625 316.455983 
L 650.155113 264.415695 
L 650.7666 167.347657 
L 651.378088 266.937019 
L 651.989575 316.353695 
L 652.601063 318.8103 
L 654.435525 318.838902 
L 655.047013 318.634084 
L 655.6585 306.586173 
L 656.269988 146.883296 
L 656.697865 -1 
M 657.035868 -1 
L 657.492963 186.87955 
L 658.104451 310.60085 
L 658.715938 318.659777 
L 659.327426 318.836963 
L 660.550401 318.824117 
L 661.161888 318.184939 
L 661.773376 298.575481 
L 662.925021 -1 
M 663.046393 -1 
L 663.607838 198.948065 
L 664.219326 308.748519 
L 664.830814 318.429266 
L 665.442301 318.812724 
L 666.665276 318.777578 
L 667.276764 317.636171 
L 667.888251 298.635593 
L 668.499739 195.43804 
L 669.111226 129.282269 
L 669.722714 247.214608 
L 670.334201 310.488867 
L 670.945689 318.265411 
L 671.557177 318.774669 
L 672.168664 318.807877 
L 672.780152 318.68547 
L 673.391639 317.068983 
L 674.003127 302.04624 
L 674.614614 247.542075 
L 675.226102 223.922545 
L 675.837589 279.918367 
L 676.449077 312.46918 
L 677.060564 318.125796 
L 677.672052 318.691288 
L 678.283539 318.73419 
L 678.895027 318.517495 
L 679.506515 316.763816 
L 680.118002 306.508851 
L 680.72949 281.660655 
L 681.340977 274.761314 
L 681.952465 298.771331 
L 682.563952 314.286365 
L 683.17544 317.997088 
L 683.786927 318.583183 
L 684.398415 318.623419 
L 685.009902 318.32819 
L 685.62139 316.717035 
L 686.232877 310.581459 
L 686.844365 300.094771 
L 687.455853 298.667589 
L 688.06734 308.422749 
L 688.678828 315.615138 
L 689.290315 317.939157 
L 689.901803 318.444536 
L 690.51329 318.477016 
L 691.124778 318.148096 
L 691.736265 316.865377 
L 692.347753 313.564532 
L 692.95924 309.643901 
L 693.570728 309.475684 
L 694.793703 316.527487 
L 695.405191 317.902556 
L 696.016678 318.314374 
L 696.628166 318.302497 
L 697.239653 318.010904 
L 697.851141 317.142911 
L 699.074116 314.028464 
L 699.685603 314.215103 
L 700.908578 317.156727 
L 701.520066 317.892618 
L 702.131553 318.201421 
L 702.743041 318.182515 
L 703.354529 317.944974 
L 703.966016 317.457774 
L 704.577504 316.737396 
L 705.188991 316.257709 
L 705.800479 316.387144 
L 707.023454 317.578241 
L 707.634941 317.958063 
L 708.246429 318.102527 
L 708.857916 318.116827 
L 709.469404 317.98109 
L 710.692379 317.450987 
L 711.303867 317.301918 
L 711.915354 317.347972 
L 713.749817 317.990058 
L 714.361304 318.097436 
L 715.584279 317.997088 
L 717.418742 317.841717 
L 718.641717 317.941338 
L 721.087667 318.091861 
L 738.209318 318.290135 
L 739.432293 318.336916 
L 743.101219 318.182757 
L 744.935681 318.437992 
L 746.158656 318.374729 
L 747.993119 317.918796 
L 748.604606 317.92728 
L 750.439069 318.491802 
L 751.662044 318.5301 
L 752.273532 318.40333 
L 754.107994 317.490011 
L 754.719482 317.593269 
L 755.942457 318.36673 
L 756.553944 318.581486 
L 757.77692 318.612512 
L 758.388407 318.412784 
L 758.999895 317.995391 
L 760.22287 316.568208 
L 760.834357 316.935427 
L 761.445845 317.824022 
L 762.057332 318.427569 
L 762.66882 318.646931 
L 763.280307 318.729343 
L 763.891795 318.686198 
L 764.503282 318.503194 
L 765.11477 317.84608 
L 766.337745 315.234103 
L 766.949233 316.043438 
L 767.56072 317.697738 
L 768.172208 318.505376 
L 768.783695 318.744128 
L 770.00667 318.761823 
L 770.618158 318.548521 
L 771.229645 317.560789 
L 772.45262 312.505053 
L 773.064108 314.651644 
L 773.675596 317.589633 
L 774.287083 318.616875 
L 774.898571 318.795272 
L 776.121546 318.783638 
L 776.733033 318.5444 
L 777.344521 316.885495 
L 778.567496 305.436283 
L 779.790471 317.256349 
L 780.401958 318.668018 
L 781.013446 318.814179 
L 782.236421 318.813694 
L 782.847909 318.619541 
L 783.459396 316.546394 
L 784.682371 297.60108 
L 785.293859 309.149429 
L 785.905346 317.532672 
L 786.516834 318.749703 
L 787.739809 318.839145 
L 788.351296 318.833085 
L 788.962784 318.653233 
L 789.574272 315.682037 
L 790.797247 282.118284 
L 791.408734 305.515059 
L 792.020222 317.676893 
L 792.631709 318.802059 
L 794.466172 318.839629 
L 795.077659 318.734675 
L 795.689147 315.623621 
L 796.300634 291.184334 
L 796.912122 273.448296 
L 797.52361 306.074733 
L 798.135097 318.144702 
L 798.746585 318.829934 
L 801.192535 318.836478 
L 801.804022 318.417147 
L 802.41551 314.435191 
L 803.026997 312.003309 
L 803.638485 317.389905 
L 804.249972 318.792364 
L 804.249972 318.792364 
" clip-path="url(#p69433547a9)" style="fill: none; stroke: #1f77b4; stroke-width: 1.5; stroke-linecap: square"/>
   </g>
   <g id="line2d_67">
    <path d="M 649.262219 292.700184 
L 655.407517 248.39084 
L 661.552814 251.797964 
L 667.698112 277.55025 
L 673.84341 295.857147 
L 679.988707 306.736069 
L 686.134005 312.391165 
L 692.279303 315.254843 
L 698.4246 316.637479 
L 704.569898 317.369365 
L 710.715196 317.743135 
L 716.860493 317.964739 
L 723.005791 318.09609 
L 729.151089 318.175634 
L 735.296386 318.229516 
L 741.441684 318.244059 
L 747.586982 318.224402 
L 753.732279 318.141651 
L 759.877577 317.933167 
L 766.022875 317.64678 
L 772.168172 317.072463 
L 778.31347 315.542026 
L 784.458768 314.121137 
L 790.604065 311.258761 
L 796.749363 309.901136 
L 802.894661 317.531444 
" clip-path="url(#p69433547a9)" style="fill: none; stroke: #ff7f0e; stroke-width: 1.5; stroke-linecap: square"/>
   </g>
   <g id="line2d_68">
    <path d="M 606.336402 318.843741 
L 621.243313 318.735835 
L 623.981316 318.496274 
L 625.806652 318.146122 
L 627.327766 317.655302 
L 628.848879 316.902538 
L 630.06577 316.052166 
L 631.28266 314.928927 
L 632.499551 313.485863 
L 633.716441 311.681862 
L 634.933332 309.486626 
L 636.150223 306.885644 
L 637.671336 303.074647 
L 639.496672 297.77114 
L 641.930453 289.848709 
L 645.581125 277.88041 
L 647.102238 273.547052 
L 648.319129 270.584544 
L 649.53602 268.168159 
L 650.448688 266.754524 
L 651.361355 265.703162 
L 652.274023 265.023227 
L 652.882469 264.776942 
L 653.490914 264.694365 
L 654.099359 264.772164 
L 655.012027 265.178884 
L 655.924695 265.914381 
L 656.837363 266.952189 
L 658.054254 268.752826 
L 659.271145 270.955907 
L 660.792258 274.146526 
L 663.226039 279.876466 
L 668.397824 292.289613 
L 670.527383 296.819647 
L 672.656941 300.813343 
L 674.482277 303.781923 
L 676.307613 306.337792 
L 678.132949 308.506464 
L 679.958285 310.324195 
L 681.783621 311.832336 
L 683.608957 313.073228 
L 685.738516 314.237109 
L 687.868074 315.150735 
L 690.301855 315.952806 
L 693.039859 316.619773 
L 696.386309 317.191412 
L 700.341203 317.63513 
L 705.512988 317.985517 
L 713.118555 318.25469 
L 725.287461 318.434613 
L 744.453488 318.483572 
L 758.143508 318.322545 
L 766.35752 318.015481 
L 772.441973 317.574917 
L 777.613758 316.98606 
L 782.785543 316.171606 
L 795.258672 314.043852 
L 797.996676 313.878205 
L 800.73468 313.945106 
L 803.168461 314.2175 
L 805.906465 314.74598 
L 809.557137 315.706853 
L 816.250035 317.512076 
L 819.596484 318.138139 
L 822.942934 318.524323 
L 826.897828 318.743674 
L 833.286504 318.835131 
L 850.322973 318.84375 
L 850.322973 318.84375 
" clip-path="url(#p69433547a9)" style="fill: none; stroke-dasharray: 1.2,1.2; stroke-dashoffset: 0; stroke: #008000; stroke-width: 1.5"/>
   </g>
   <g id="patch_18">
    <path d="M 606.640625 318.84375 
L 606.640625 231.147656 
" style="fill: none; stroke: #000000; stroke-width: 0.8; stroke-linejoin: miter; stroke-linecap: square"/>
   </g>
   <g id="patch_19">
    <path d="M 850.01875 318.84375 
L 850.01875 231.147656 
" style="fill: none; stroke: #000000; stroke-width: 0.8; stroke-linejoin: miter; stroke-linecap: square"/>
   </g>
   <g id="patch_20">
    <path d="M 606.640625 318.84375 
L 850.01875 318.84375 
" style="fill: none; stroke: #000000; stroke-width: 0.8; stroke-linejoin: miter; stroke-linecap: square"/>
   </g>
   <g id="patch_21">
    <path d="M 606.640625 231.147656 
L 850.01875 231.147656 
" style="fill: none; stroke: #000000; stroke-width: 0.8; stroke-linejoin: miter; stroke-linecap: square"/>
   </g>
   <g id="text_65">
    <!-- c) $\lambda = 0.5$ -->
    <g transform="translate(758.751953 254.533281) scale(0.1 -0.1)">
     <use xlink:href="#DejaVuSans-63" transform="translate(0 0.015625)"/>
     <use xlink:href="#DejaVuSans-29" transform="translate(54.980469 0.015625)"/>
     <use xlink:href="#DejaVuSans-20" transform="translate(93.994141 0.015625)"/>
     <use xlink:href="#DejaVuSans-Oblique-3bb" transform="translate(125.78125 0.015625)"/>
     <use xlink:href="#DejaVuSans-3d" transform="translate(204.443359 0.015625)"/>
     <use xlink:href="#DejaVuSans-30" transform="translate(307.714844 0.015625)"/>
     <use xlink:href="#DejaVuSans-2e" transform="translate(371.337891 0.015625)"/>
     <use xlink:href="#DejaVuSans-35" transform="translate(403.125 0.015625)"/>
    </g>
   </g>
  </g>
  <g id="legend_1">
   <g id="patch_22">
    <path d="M 27.92 216 
L 151.445 216 
Q 153.445 216 153.445 214 
L 153.445 170.965625 
Q 153.445 168.965625 151.445 168.965625 
L 27.92 168.965625 
Q 25.92 168.965625 25.92 170.965625 
L 25.92 214 
Q 25.92 216 27.92 216 
z
" style="fill: #ffffff; opacity: 0.8; stroke: #cccccc; stroke-linejoin: miter"/>
   </g>
   <g id="line2d_69">
    <path d="M 29.92 177.064063 
L 39.92 177.064063 
L 49.92 177.064063 
" style="fill: none; stroke: #1f77b4; stroke-width: 1.5; stroke-linecap: square"/>
   </g>
   <g id="text_66">
    <!-- Simulated PDF -->
    <g transform="translate(57.92 180.564063) scale(0.1 -0.1)">
     <defs>
      <path id="DejaVuSans-53" d="M 3425 4513 
L 3425 3897 
Q 3066 4069 2747 4153 
Q 2428 4238 2131 4238 
Q 1616 4238 1336 4038 
Q 1056 3838 1056 3469 
Q 1056 3159 1242 3001 
Q 1428 2844 1947 2747 
L 2328 2669 
Q 3034 2534 3370 2195 
Q 3706 1856 3706 1288 
Q 3706 609 3251 259 
Q 2797 -91 1919 -91 
Q 1588 -91 1214 -16 
Q 841 59 441 206 
L 441 856 
Q 825 641 1194 531 
Q 1563 422 1919 422 
Q 2459 422 2753 634 
Q 3047 847 3047 1241 
Q 3047 1584 2836 1778 
Q 2625 1972 2144 2069 
L 1759 2144 
Q 1053 2284 737 2584 
Q 422 2884 422 3419 
Q 422 4038 858 4394 
Q 1294 4750 2059 4750 
Q 2388 4750 2728 4690 
Q 3069 4631 3425 4513 
z
" transform="scale(0.015625)"/>
      <path id="DejaVuSans-69" d="M 603 3500 
L 1178 3500 
L 1178 0 
L 603 0 
L 603 3500 
z
M 603 4863 
L 1178 4863 
L 1178 4134 
L 603 4134 
L 603 4863 
z
" transform="scale(0.015625)"/>
      <path id="DejaVuSans-6d" d="M 3328 2828 
Q 3544 3216 3844 3400 
Q 4144 3584 4550 3584 
Q 5097 3584 5394 3201 
Q 5691 2819 5691 2113 
L 5691 0 
L 5113 0 
L 5113 2094 
Q 5113 2597 4934 2840 
Q 4756 3084 4391 3084 
Q 3944 3084 3684 2787 
Q 3425 2491 3425 1978 
L 3425 0 
L 2847 0 
L 2847 2094 
Q 2847 2600 2669 2842 
Q 2491 3084 2119 3084 
Q 1678 3084 1418 2786 
Q 1159 2488 1159 1978 
L 1159 0 
L 581 0 
L 581 3500 
L 1159 3500 
L 1159 2956 
Q 1356 3278 1631 3431 
Q 1906 3584 2284 3584 
Q 2666 3584 2933 3390 
Q 3200 3197 3328 2828 
z
" transform="scale(0.015625)"/>
      <path id="DejaVuSans-75" d="M 544 1381 
L 544 3500 
L 1119 3500 
L 1119 1403 
Q 1119 906 1312 657 
Q 1506 409 1894 409 
Q 2359 409 2629 706 
Q 2900 1003 2900 1516 
L 2900 3500 
L 3475 3500 
L 3475 0 
L 2900 0 
L 2900 538 
Q 2691 219 2414 64 
Q 2138 -91 1772 -91 
Q 1169 -91 856 284 
Q 544 659 544 1381 
z
M 1991 3584 
L 1991 3584 
z
" transform="scale(0.015625)"/>
      <path id="DejaVuSans-6c" d="M 603 4863 
L 1178 4863 
L 1178 0 
L 603 0 
L 603 4863 
z
" transform="scale(0.015625)"/>
      <path id="DejaVuSans-74" d="M 1172 4494 
L 1172 3500 
L 2356 3500 
L 2356 3053 
L 1172 3053 
L 1172 1153 
Q 1172 725 1289 603 
Q 1406 481 1766 481 
L 2356 481 
L 2356 0 
L 1766 0 
Q 1100 0 847 248 
Q 594 497 594 1153 
L 594 3053 
L 172 3053 
L 172 3500 
L 594 3500 
L 594 4494 
L 1172 4494 
z
" transform="scale(0.015625)"/>
      <path id="DejaVuSans-65" d="M 3597 1894 
L 3597 1613 
L 953 1613 
Q 991 1019 1311 708 
Q 1631 397 2203 397 
Q 2534 397 2845 478 
Q 3156 559 3463 722 
L 3463 178 
Q 3153 47 2828 -22 
Q 2503 -91 2169 -91 
Q 1331 -91 842 396 
Q 353 884 353 1716 
Q 353 2575 817 3079 
Q 1281 3584 2069 3584 
Q 2775 3584 3186 3129 
Q 3597 2675 3597 1894 
z
M 3022 2063 
Q 3016 2534 2758 2815 
Q 2500 3097 2075 3097 
Q 1594 3097 1305 2825 
Q 1016 2553 972 2059 
L 3022 2063 
z
" transform="scale(0.015625)"/>
      <path id="DejaVuSans-64" d="M 2906 2969 
L 2906 4863 
L 3481 4863 
L 3481 0 
L 2906 0 
L 2906 525 
Q 2725 213 2448 61 
Q 2172 -91 1784 -91 
Q 1150 -91 751 415 
Q 353 922 353 1747 
Q 353 2572 751 3078 
Q 1150 3584 1784 3584 
Q 2172 3584 2448 3432 
Q 2725 3281 2906 2969 
z
M 947 1747 
Q 947 1113 1208 752 
Q 1469 391 1925 391 
Q 2381 391 2643 752 
Q 2906 1113 2906 1747 
Q 2906 2381 2643 2742 
Q 2381 3103 1925 3103 
Q 1469 3103 1208 2742 
Q 947 2381 947 1747 
z
" transform="scale(0.015625)"/>
      <path id="DejaVuSans-50" d="M 1259 4147 
L 1259 2394 
L 2053 2394 
Q 2494 2394 2734 2622 
Q 2975 2850 2975 3272 
Q 2975 3691 2734 3919 
Q 2494 4147 2053 4147 
L 1259 4147 
z
M 628 4666 
L 2053 4666 
Q 2838 4666 3239 4311 
Q 3641 3956 3641 3272 
Q 3641 2581 3239 2228 
Q 2838 1875 2053 1875 
L 1259 1875 
L 1259 0 
L 628 0 
L 628 4666 
z
" transform="scale(0.015625)"/>
      <path id="DejaVuSans-44" d="M 1259 4147 
L 1259 519 
L 2022 519 
Q 2988 519 3436 956 
Q 3884 1394 3884 2338 
Q 3884 3275 3436 3711 
Q 2988 4147 2022 4147 
L 1259 4147 
z
M 628 4666 
L 1925 4666 
Q 3281 4666 3915 4102 
Q 4550 3538 4550 2338 
Q 4550 1131 3912 565 
Q 3275 0 1925 0 
L 628 0 
L 628 4666 
z
" transform="scale(0.015625)"/>
      <path id="DejaVuSans-46" d="M 628 4666 
L 3309 4666 
L 3309 4134 
L 1259 4134 
L 1259 2759 
L 3109 2759 
L 3109 2228 
L 1259 2228 
L 1259 0 
L 628 0 
L 628 4666 
z
" transform="scale(0.015625)"/>
     </defs>
     <use xlink:href="#DejaVuSans-53"/>
     <use xlink:href="#DejaVuSans-69" x="63.476562"/>
     <use xlink:href="#DejaVuSans-6d" x="91.259766"/>
     <use xlink:href="#DejaVuSans-75" x="188.671875"/>
     <use xlink:href="#DejaVuSans-6c" x="252.050781"/>
     <use xlink:href="#DejaVuSans-61" x="279.833984"/>
     <use xlink:href="#DejaVuSans-74" x="341.113281"/>
     <use xlink:href="#DejaVuSans-65" x="380.322266"/>
     <use xlink:href="#DejaVuSans-64" x="441.845703"/>
     <use xlink:href="#DejaVuSans-20" x="505.322266"/>
     <use xlink:href="#DejaVuSans-50" x="537.109375"/>
     <use xlink:href="#DejaVuSans-44" x="597.412109"/>
     <use xlink:href="#DejaVuSans-46" x="674.414062"/>
    </g>
   </g>
   <g id="line2d_70">
    <path d="M 29.92 191.742188 
L 39.92 191.742188 
L 49.92 191.742188 
" style="fill: none; stroke: #ff7f0e; stroke-width: 1.5; stroke-linecap: square"/>
   </g>
   <g id="text_67">
    <!-- Simulated PDF -->
    <g transform="translate(57.92 195.242188) scale(0.1 -0.1)">
     <use xlink:href="#DejaVuSans-53"/>
     <use xlink:href="#DejaVuSans-69" x="63.476562"/>
     <use xlink:href="#DejaVuSans-6d" x="91.259766"/>
     <use xlink:href="#DejaVuSans-75" x="188.671875"/>
     <use xlink:href="#DejaVuSans-6c" x="252.050781"/>
     <use xlink:href="#DejaVuSans-61" x="279.833984"/>
     <use xlink:href="#DejaVuSans-74" x="341.113281"/>
     <use xlink:href="#DejaVuSans-65" x="380.322266"/>
     <use xlink:href="#DejaVuSans-64" x="441.845703"/>
     <use xlink:href="#DejaVuSans-20" x="505.322266"/>
     <use xlink:href="#DejaVuSans-50" x="537.109375"/>
     <use xlink:href="#DejaVuSans-44" x="597.412109"/>
     <use xlink:href="#DejaVuSans-46" x="674.414062"/>
    </g>
   </g>
   <g id="line2d_71">
    <path d="M 29.92 206.420313 
L 39.92 206.420313 
L 49.92 206.420313 
" style="fill: none; stroke-dasharray: 1.2,1.2; stroke-dashoffset: 0; stroke: #008000; stroke-width: 1.5"/>
   </g>
   <g id="text_68">
    <!-- Homogenized PDF -->
    <g transform="translate(57.92 209.920313) scale(0.1 -0.1)">
     <defs>
      <path id="DejaVuSans-48" d="M 628 4666 
L 1259 4666 
L 1259 2753 
L 3553 2753 
L 3553 4666 
L 4184 4666 
L 4184 0 
L 3553 0 
L 3553 2222 
L 1259 2222 
L 1259 0 
L 628 0 
L 628 4666 
z
" transform="scale(0.015625)"/>
      <path id="DejaVuSans-6f" d="M 1959 3097 
Q 1497 3097 1228 2736 
Q 959 2375 959 1747 
Q 959 1119 1226 758 
Q 1494 397 1959 397 
Q 2419 397 2687 759 
Q 2956 1122 2956 1747 
Q 2956 2369 2687 2733 
Q 2419 3097 1959 3097 
z
M 1959 3584 
Q 2709 3584 3137 3096 
Q 3566 2609 3566 1747 
Q 3566 888 3137 398 
Q 2709 -91 1959 -91 
Q 1206 -91 779 398 
Q 353 888 353 1747 
Q 353 2609 779 3096 
Q 1206 3584 1959 3584 
z
" transform="scale(0.015625)"/>
      <path id="DejaVuSans-67" d="M 2906 1791 
Q 2906 2416 2648 2759 
Q 2391 3103 1925 3103 
Q 1463 3103 1205 2759 
Q 947 2416 947 1791 
Q 947 1169 1205 825 
Q 1463 481 1925 481 
Q 2391 481 2648 825 
Q 2906 1169 2906 1791 
z
M 3481 434 
Q 3481 -459 3084 -895 
Q 2688 -1331 1869 -1331 
Q 1566 -1331 1297 -1286 
Q 1028 -1241 775 -1147 
L 775 -588 
Q 1028 -725 1275 -790 
Q 1522 -856 1778 -856 
Q 2344 -856 2625 -561 
Q 2906 -266 2906 331 
L 2906 616 
Q 2728 306 2450 153 
Q 2172 0 1784 0 
Q 1141 0 747 490 
Q 353 981 353 1791 
Q 353 2603 747 3093 
Q 1141 3584 1784 3584 
Q 2172 3584 2450 3431 
Q 2728 3278 2906 2969 
L 2906 3500 
L 3481 3500 
L 3481 434 
z
" transform="scale(0.015625)"/>
      <path id="DejaVuSans-6e" d="M 3513 2113 
L 3513 0 
L 2938 0 
L 2938 2094 
Q 2938 2591 2744 2837 
Q 2550 3084 2163 3084 
Q 1697 3084 1428 2787 
Q 1159 2491 1159 1978 
L 1159 0 
L 581 0 
L 581 3500 
L 1159 3500 
L 1159 2956 
Q 1366 3272 1645 3428 
Q 1925 3584 2291 3584 
Q 2894 3584 3203 3211 
Q 3513 2838 3513 2113 
z
" transform="scale(0.015625)"/>
      <path id="DejaVuSans-7a" d="M 353 3500 
L 3084 3500 
L 3084 2975 
L 922 459 
L 3084 459 
L 3084 0 
L 275 0 
L 275 525 
L 2438 3041 
L 353 3041 
L 353 3500 
z
" transform="scale(0.015625)"/>
     </defs>
     <use xlink:href="#DejaVuSans-48"/>
     <use xlink:href="#DejaVuSans-6f" x="75.195312"/>
     <use xlink:href="#DejaVuSans-6d" x="136.376953"/>
     <use xlink:href="#DejaVuSans-6f" x="233.789062"/>
     <use xlink:href="#DejaVuSans-67" x="294.970703"/>
     <use xlink:href="#DejaVuSans-65" x="358.447266"/>
     <use xlink:href="#DejaVuSans-6e" x="419.970703"/>
     <use xlink:href="#DejaVuSans-69" x="483.349609"/>
     <use xlink:href="#DejaVuSans-7a" x="511.132812"/>
     <use xlink:href="#DejaVuSans-65" x="563.623047"/>
     <use xlink:href="#DejaVuSans-64" x="625.146484"/>
     <use xlink:href="#DejaVuSans-20" x="688.623047"/>
     <use xlink:href="#DejaVuSans-50" x="720.410156"/>
     <use xlink:href="#DejaVuSans-44" x="780.712891"/>
     <use xlink:href="#DejaVuSans-46" x="857.714844"/>
    </g>
   </g>
  </g>
 </g>
 <defs>
  <clipPath id="p7e54936d6b">
   <rect x="179.982872" y="10.8" width="527.893631" height="175.392187"/>
  </clipPath>
  <clipPath id="p194dc36264">
   <rect x="37.840625" y="231.147656" width="243.378125" height="87.696094"/>
  </clipPath>
  <clipPath id="p67834b6b33">
   <rect x="322.240625" y="231.147656" width="243.378125" height="87.696094"/>
  </clipPath>
  <clipPath id="p69433547a9">
   <rect x="606.640625" y="231.147656" width="243.378125" height="87.696094"/>
  </clipPath>
 </defs>
</svg>
