<?xml version="1.0" encoding="utf-8" standalone="no"?>
<!DOCTYPE svg PUBLIC "-//W3C//DTD SVG 1.1//EN"
  "http://www.w3.org/Graphics/SVG/1.1/DTD/svg11.dtd">
<svg xmlns:xlink="http://www.w3.org/1999/xlink" width="864pt" height="360pt" viewBox="0 0 864 360" xmlns="http://www.w3.org/2000/svg" version="1.1">
 <metadata>
  <rdf:RDF xmlns:dc="http://purl.org/dc/elements/1.1/" xmlns:cc="http://creativecommons.org/ns#" xmlns:rdf="http://www.w3.org/1999/02/22-rdf-syntax-ns#">
   <cc:Work>
    <dc:type rdf:resource="http://purl.org/dc/dcmitype/StillImage"/>
    <dc:date>2024-10-02T21:40:30.224526</dc:date>
    <dc:format>image/svg+xml</dc:format>
    <dc:creator>
     <cc:Agent>
      <dc:title>Matplotlib v3.9.2, https://matplotlib.org/</dc:title>
     </cc:Agent>
    </dc:creator>
   </cc:Work>
  </rdf:RDF>
 </metadata>
 <defs>
  <style type="text/css">*{stroke-linejoin: round; stroke-linecap: butt}</style>
 </defs>
 <g id="figure_1">
  <g id="patch_1">
   <path d="M 0 360 
L 864 360 
L 864 0 
L 0 0 
z
" style="fill: #ffffff"/>
  </g>
  <g id="axes_1">
   <g id="patch_2">
    <path d="M 176.138231 188.612029 
L 711.315077 188.612029 
L 711.315077 10.8 
L 176.138231 10.8 
z
" style="fill: #ffffff"/>
   </g>
   <g id="matplotlib.axis_1">
    <g id="xtick_1">
     <g id="line2d_1">
      <defs>
       <path id="m9ce4fbdce9" d="M 0 0 
L 0 3.5 
" style="stroke: #000000; stroke-width: 0.8"/>
      </defs>
      <g>
       <use xlink:href="#m9ce4fbdce9" x="200.464451" y="188.612029" style="stroke: #000000; stroke-width: 0.8"/>
      </g>
     </g>
     <g id="text_1">
      <!-- $\mathdefault{−3}$ -->
      <g transform="translate(194.099411 202.530528) scale(0.1 -0.1)">
       <defs>
        <path id="CMSY10-0" d="M 4218 1472 
C 4326 1472 4442 1472 4442 1600 
C 4442 1728 4326 1728 4218 1728 
L 755 1728 
C 646 1728 531 1728 531 1600 
C 531 1472 646 1472 755 1472 
L 4218 1472 
z
" transform="scale(0.015625)"/>
        <path id="CMR17-33" d="M 1414 2157 
C 1984 2157 2234 1662 2234 1090 
C 2234 320 1824 25 1453 25 
C 1114 25 563 194 390 693 
C 422 680 454 680 486 680 
C 640 680 755 782 755 948 
C 755 1133 614 1216 486 1216 
C 378 1216 211 1165 211 926 
C 211 335 787 -128 1466 -128 
C 2176 -128 2720 430 2720 1085 
C 2720 1707 2208 2157 1600 2227 
C 2086 2328 2554 2756 2554 3329 
C 2554 3820 2048 4179 1472 4179 
C 890 4179 378 3829 378 3329 
C 378 3110 544 3072 627 3072 
C 762 3072 877 3155 877 3321 
C 877 3486 762 3569 627 3569 
C 602 3569 570 3569 544 3557 
C 730 3959 1235 4032 1459 4032 
C 1683 4032 2106 3925 2106 3320 
C 2106 3143 2080 2828 1862 2550 
C 1670 2304 1453 2304 1242 2284 
C 1210 2284 1062 2269 1037 2269 
C 992 2263 966 2257 966 2208 
C 966 2163 973 2157 1101 2157 
L 1414 2157 
z
" transform="scale(0.015625)"/>
       </defs>
       <use xlink:href="#CMSY10-0" transform="scale(0.996264)"/>
       <use xlink:href="#CMR17-33" transform="translate(77.487468 0) scale(0.996264)"/>
      </g>
     </g>
    </g>
    <g id="xtick_2">
     <g id="line2d_2">
      <g>
       <use xlink:href="#m9ce4fbdce9" x="281.551852" y="188.612029" style="stroke: #000000; stroke-width: 0.8"/>
      </g>
     </g>
     <g id="text_2">
      <!-- $\mathdefault{−2}$ -->
      <g transform="translate(275.186812 202.530528) scale(0.1 -0.1)">
       <defs>
        <path id="CMR17-32" d="M 2669 989 
L 2554 989 
C 2490 536 2438 459 2413 420 
C 2381 369 1920 369 1830 369 
L 602 369 
C 832 619 1280 1072 1824 1597 
C 2214 1967 2669 2402 2669 3035 
C 2669 3790 2067 4224 1395 4224 
C 691 4224 262 3604 262 3030 
C 262 2780 448 2748 525 2748 
C 589 2748 781 2787 781 3010 
C 781 3207 614 3264 525 3264 
C 486 3264 448 3258 422 3245 
C 544 3790 915 4058 1306 4058 
C 1862 4058 2227 3617 2227 3035 
C 2227 2479 1901 2000 1536 1584 
L 262 146 
L 262 0 
L 2515 0 
L 2669 989 
z
" transform="scale(0.015625)"/>
       </defs>
       <use xlink:href="#CMSY10-0" transform="scale(0.996264)"/>
       <use xlink:href="#CMR17-32" transform="translate(77.487468 0) scale(0.996264)"/>
      </g>
     </g>
    </g>
    <g id="xtick_3">
     <g id="line2d_3">
      <g>
       <use xlink:href="#m9ce4fbdce9" x="362.639253" y="188.612029" style="stroke: #000000; stroke-width: 0.8"/>
      </g>
     </g>
     <g id="text_3">
      <!-- $\mathdefault{−1}$ -->
      <g transform="translate(356.274213 202.530528) scale(0.1 -0.1)">
       <defs>
        <path id="CMR17-31" d="M 1702 4058 
C 1702 4192 1696 4192 1606 4192 
C 1357 3916 979 3827 621 3827 
C 602 3827 570 3827 563 3808 
C 557 3795 557 3782 557 3648 
C 755 3648 1088 3686 1344 3839 
L 1344 461 
C 1344 236 1331 160 781 160 
L 589 160 
L 589 0 
C 896 0 1216 0 1523 0 
C 1830 0 2150 0 2458 0 
L 2458 160 
L 2266 160 
C 1715 160 1702 230 1702 458 
L 1702 4058 
z
" transform="scale(0.015625)"/>
       </defs>
       <use xlink:href="#CMSY10-0" transform="scale(0.996264)"/>
       <use xlink:href="#CMR17-31" transform="translate(77.487468 0) scale(0.996264)"/>
      </g>
     </g>
    </g>
    <g id="xtick_4">
     <g id="line2d_4">
      <g>
       <use xlink:href="#m9ce4fbdce9" x="443.726654" y="188.612029" style="stroke: #000000; stroke-width: 0.8"/>
      </g>
     </g>
     <g id="text_4">
      <!-- $\mathdefault{0}$ -->
      <g transform="translate(441.235986 202.530528) scale(0.1 -0.1)">
       <defs>
        <path id="CMR17-30" d="M 2688 2025 
C 2688 2416 2682 3080 2413 3591 
C 2176 4039 1798 4198 1466 4198 
C 1158 4198 768 4058 525 3597 
C 269 3118 243 2524 243 2025 
C 243 1661 250 1106 448 619 
C 723 -39 1216 -128 1466 -128 
C 1760 -128 2208 -7 2470 600 
C 2662 1042 2688 1559 2688 2025 
z
M 1466 -26 
C 1056 -26 813 325 723 812 
C 653 1188 653 1738 653 2096 
C 653 2588 653 2997 736 3387 
C 858 3929 1216 4096 1466 4096 
C 1728 4096 2067 3923 2189 3400 
C 2272 3036 2278 2607 2278 2096 
C 2278 1680 2278 1169 2202 792 
C 2067 95 1690 -26 1466 -26 
z
" transform="scale(0.015625)"/>
       </defs>
       <use xlink:href="#CMR17-30" transform="scale(0.996264)"/>
      </g>
     </g>
    </g>
    <g id="xtick_5">
     <g id="line2d_5">
      <g>
       <use xlink:href="#m9ce4fbdce9" x="524.814055" y="188.612029" style="stroke: #000000; stroke-width: 0.8"/>
      </g>
     </g>
     <g id="text_5">
      <!-- $\mathdefault{1}$ -->
      <g transform="translate(522.323387 202.530528) scale(0.1 -0.1)">
       <use xlink:href="#CMR17-31" transform="scale(0.996264)"/>
      </g>
     </g>
    </g>
    <g id="xtick_6">
     <g id="line2d_6">
      <g>
       <use xlink:href="#m9ce4fbdce9" x="605.901456" y="188.612029" style="stroke: #000000; stroke-width: 0.8"/>
      </g>
     </g>
     <g id="text_6">
      <!-- $\mathdefault{2}$ -->
      <g transform="translate(603.410788 202.530528) scale(0.1 -0.1)">
       <use xlink:href="#CMR17-32" transform="scale(0.996264)"/>
      </g>
     </g>
    </g>
    <g id="xtick_7">
     <g id="line2d_7">
      <g>
       <use xlink:href="#m9ce4fbdce9" x="686.988857" y="188.612029" style="stroke: #000000; stroke-width: 0.8"/>
      </g>
     </g>
     <g id="text_7">
      <!-- $\mathdefault{3}$ -->
      <g transform="translate(684.498189 202.530528) scale(0.1 -0.1)">
       <use xlink:href="#CMR17-33" transform="scale(0.996264)"/>
      </g>
     </g>
    </g>
    <g id="text_8">
     <!-- $\lambda$ -->
     <g transform="translate(440.820871 215.386204) scale(0.1 -0.1)">
      <defs>
       <path id="CMMI12-15" d="M 1978 3965 
C 1818 4416 1312 4416 1229 4416 
C 1190 4416 1120 4416 1120 4352 
C 1120 4302 1158 4295 1190 4289 
C 1286 4276 1363 4263 1466 4080 
C 1530 3959 2189 2059 2189 2046 
C 2189 2040 2182 2033 2131 1982 
L 467 311 
C 390 234 339 183 339 102 
C 339 12 416 -64 518 -64 
C 544 -64 614 -51 653 -13 
C 755 82 1670 1194 2253 1881 
C 2419 1383 2624 797 2822 261 
C 2854 166 2886 76 2976 -6 
C 3040 -64 3053 -64 3232 -64 
L 3354 -64 
C 3379 -64 3424 -64 3424 -13 
C 3424 13 3418 19 3392 45 
C 3334 115 3290 229 3264 306 
L 1978 3965 
z
" transform="scale(0.015625)"/>
      </defs>
      <use xlink:href="#CMMI12-15" transform="scale(0.996264)"/>
     </g>
    </g>
   </g>
   <g id="matplotlib.axis_2">
    <g id="ytick_1">
     <g id="line2d_8">
      <defs>
       <path id="md8512d3f9e" d="M 0 0 
L -3.5 0 
" style="stroke: #000000; stroke-width: 0.8"/>
      </defs>
      <g>
       <use xlink:href="#md8512d3f9e" x="176.138231" y="180.279944" style="stroke: #000000; stroke-width: 0.8"/>
      </g>
     </g>
     <g id="text_9">
      <!-- $\mathdefault{−2}$ -->
      <g transform="translate(156.408152 183.739193) scale(0.1 -0.1)">
       <use xlink:href="#CMSY10-0" transform="scale(0.996264)"/>
       <use xlink:href="#CMR17-32" transform="translate(77.487468 0) scale(0.996264)"/>
      </g>
     </g>
    </g>
    <g id="ytick_2">
     <g id="line2d_9">
      <g>
       <use xlink:href="#md8512d3f9e" x="176.138231" y="139.736244" style="stroke: #000000; stroke-width: 0.8"/>
      </g>
     </g>
     <g id="text_10">
      <!-- $\mathdefault{−1}$ -->
      <g transform="translate(156.408152 143.195493) scale(0.1 -0.1)">
       <use xlink:href="#CMSY10-0" transform="scale(0.996264)"/>
       <use xlink:href="#CMR17-31" transform="translate(77.487468 0) scale(0.996264)"/>
      </g>
     </g>
    </g>
    <g id="ytick_3">
     <g id="line2d_10">
      <g>
       <use xlink:href="#md8512d3f9e" x="176.138231" y="99.192543" style="stroke: #000000; stroke-width: 0.8"/>
      </g>
     </g>
     <g id="text_11">
      <!-- $\mathdefault{0}$ -->
      <g transform="translate(164.156895 102.651792) scale(0.1 -0.1)">
       <use xlink:href="#CMR17-30" transform="scale(0.996264)"/>
      </g>
     </g>
    </g>
    <g id="ytick_4">
     <g id="line2d_11">
      <g>
       <use xlink:href="#md8512d3f9e" x="176.138231" y="58.648843" style="stroke: #000000; stroke-width: 0.8"/>
      </g>
     </g>
     <g id="text_12">
      <!-- $\mathdefault{1}$ -->
      <g transform="translate(164.156895 62.108092) scale(0.1 -0.1)">
       <use xlink:href="#CMR17-31" transform="scale(0.996264)"/>
      </g>
     </g>
    </g>
    <g id="ytick_5">
     <g id="line2d_12">
      <g>
       <use xlink:href="#md8512d3f9e" x="176.138231" y="18.105142" style="stroke: #000000; stroke-width: 0.8"/>
      </g>
     </g>
     <g id="text_13">
      <!-- $\mathdefault{2}$ -->
      <g transform="translate(164.156895 21.564391) scale(0.1 -0.1)">
       <use xlink:href="#CMR17-32" transform="scale(0.996264)"/>
      </g>
     </g>
    </g>
    <g id="text_14">
     <!-- $x$ -->
     <g transform="translate(150.470973 102.552974) rotate(-90) scale(0.1 -0.1)">
      <defs>
       <path id="CMMI12-78" d="M 3034 2606 
C 2829 2567 2752 2414 2752 2293 
C 2752 2139 2874 2088 2963 2088 
C 3155 2088 3290 2254 3290 2427 
C 3290 2695 2982 2816 2714 2816 
C 2323 2816 2106 2433 2048 2312 
C 1901 2816 1504 2816 1389 2816 
C 736 2816 390 1980 390 1839 
C 390 1814 416 1782 461 1782 
C 512 1782 525 1820 538 1846 
C 755 2555 1184 2689 1370 2689 
C 1658 2689 1715 2420 1715 2267 
C 1715 2127 1677 1980 1600 1673 
L 1382 798 
C 1286 415 1101 64 762 64 
C 730 64 570 64 435 147 
C 666 192 717 383 717 460 
C 717 588 621 664 499 664 
C 346 664 179 530 179 326 
C 179 57 480 -64 755 -64 
C 1062 -64 1280 179 1414 441 
C 1517 64 1837 -64 2074 -64 
C 2726 -64 3072 773 3072 913 
C 3072 945 3046 971 3008 971 
C 2950 971 2944 939 2925 888 
C 2752 326 2381 64 2093 64 
C 1869 64 1747 230 1747 492 
C 1747 632 1773 734 1875 1156 
L 2099 2024 
C 2195 2408 2413 2689 2707 2689 
C 2720 2689 2899 2689 3034 2606 
z
" transform="scale(0.015625)"/>
      </defs>
      <use xlink:href="#CMMI12-78" transform="scale(0.996264)"/>
     </g>
    </g>
   </g>
   <g id="line2d_13">
    <path d="M 686.988857 18.882365 
L 647.795969 24.07054 
L 619.703008 28.036365 
L 594.069167 31.874522 
L 570.889144 35.563552 
L 550.154824 39.077903 
L 531.094906 42.52939 
L 514.465243 45.757295 
L 499.500629 48.881843 
L 486.199984 51.886485 
L 475.281725 54.566011 
L 465.988672 57.053307 
L 457.610241 59.526521 
L 450.845562 61.761168 
L 445.651874 63.703671 
L 441.357416 65.558361 
L 438.51353 67.002448 
L 436.444223 68.250612 
L 434.649333 69.60026 
L 433.563992 70.688038 
L 432.790719 71.840117 
L 432.493784 72.636909 
L 432.398474 73.404929 
L 432.425285 73.810144 
L 432.425285 73.810144 
" clip-path="url(#p7a4dac3aed)" style="fill: none; stroke: #000000; stroke-width: 1.5; stroke-linecap: square"/>
   </g>
   <g id="line2d_14">
    <path d="M 432.425285 73.810144 
L 432.638309 74.613557 
L 433.052618 75.397134 
L 433.998748 76.516469 
L 435.249693 77.558826 
L 437.249232 78.834545 
L 439.502451 80.000421 
L 442.548147 81.337762 
L 447.081259 83.044751 
L 452.505279 84.823027 
L 458.824092 86.647704 
L 465.33612 88.293789 
L 472.029315 89.746717 
L 478.887395 90.992638 
L 485.880653 92.034186 
L 493.76629 92.976693 
L 502.532191 93.79904 
L 512.965021 94.551096 
L 525.863907 95.24537 
L 542.031848 95.87574 
L 562.272773 96.432414 
L 589.01244 96.935559 
L 625.490457 97.38623 
L 676.569283 97.781502 
L 686.988857 97.841836 
L 686.988857 97.841836 
" clip-path="url(#p7a4dac3aed)" style="fill: none; stroke-dasharray: 5.55,2.4; stroke-dashoffset: 0; stroke: #000000; stroke-width: 1.5"/>
   </g>
   <g id="line2d_15">
    <path d="M 686.988857 180.529664 
L 646.157555 175.269166 
L 616.440654 171.196572 
L 589.183769 167.243586 
L 564.381964 163.430708 
L 541.259344 159.652724 
L 520.583911 156.052718 
L 501.585744 152.517169 
L 485.017169 149.211686 
L 470.114589 146.013897 
L 457.606604 143.117388 
L 446.735266 140.390591 
L 437.487866 137.86114 
L 429.845189 135.56243 
L 423.775752 133.53698 
L 418.592224 131.587733 
L 414.904698 130.001538 
L 412.031031 128.572195 
L 409.430278 127.018246 
L 407.639121 125.667212 
L 406.530019 124.58525 
L 405.676023 123.447074 
L 405.117974 122.263992 
L 404.869944 121.054739 
L 404.867526 120.222295 
L 404.867526 120.222295 
" clip-path="url(#p7a4dac3aed)" style="fill: none; stroke: #000000; stroke-width: 1.5; stroke-linecap: square"/>
   </g>
   <g id="line2d_16">
    <path d="M 404.867526 120.222295 
L 404.909763 119.817408 
L 404.977006 119.413367 
L 405.066404 119.010402 
L 405.174936 118.608613 
L 405.299459 118.207985 
L 405.436739 117.8084 
L 405.583468 117.409656 
L 405.736262 117.011482 
L 405.891647 116.613559 
L 406.046032 116.215538 
L 406.195674 115.817065 
L 406.336632 115.4178 
L 406.464729 115.017454 
L 406.575504 114.615818 
L 406.664185 114.212813 
L 406.725685 113.808544 
L 406.754643 113.403366 
L 406.756169 113.290105 
L 406.735437 112.884801 
" clip-path="url(#p7a4dac3aed)" style="fill: none; stroke-dasharray: 5.55,2.4; stroke-dashoffset: 0; stroke: #000000; stroke-width: 1.5"/>
   </g>
   <g id="line2d_17">
    <path d="M 406.735437 112.884801 
L 406.553868 112.079418 
L 406.157153 111.293727 
L 405.530409 110.546497 
L 404.686284 109.854763 
L 403.088603 108.939666 
L 401.210761 108.167914 
L 398.443941 107.323818 
L 394.751522 106.489004 
L 390.144726 105.708965 
L 384.648329 105.002415 
L 377.486007 104.304675 
L 367.856114 103.609682 
L 355.759922 102.975361 
L 340.397102 102.397767 
L 320.153656 101.864401 
L 292.601704 101.373026 
L 254.501007 100.931989 
L 200.464451 100.544752 
L 200.464451 100.544752 
" clip-path="url(#p7a4dac3aed)" style="fill: none; stroke: #000000; stroke-width: 1.5; stroke-linecap: square"/>
   </g>
   <g id="line2d_18">
    <path d="M 403.182953 188.612029 
L 403.182953 10.8 
" clip-path="url(#p7a4dac3aed)" style="fill: none; stroke-dasharray: 9.6,2.4,1.5,2.4; stroke-dashoffset: 0; stroke: #000000; stroke-width: 1.5"/>
   </g>
   <g id="line2d_19">
    <path d="M 423.454804 188.612029 
L 423.454804 10.8 
" clip-path="url(#p7a4dac3aed)" style="fill: none; stroke-dasharray: 9.6,2.4,1.5,2.4; stroke-dashoffset: 0; stroke: #000000; stroke-width: 1.5"/>
   </g>
   <g id="line2d_20">
    <path d="M 484.270354 188.612029 
L 484.270354 10.8 
" clip-path="url(#p7a4dac3aed)" style="fill: none; stroke-dasharray: 9.6,2.4,1.5,2.4; stroke-dashoffset: 0; stroke: #000000; stroke-width: 1.5"/>
   </g>
   <g id="patch_3">
    <path d="M 176.138231 188.612029 
L 176.138231 10.8 
" style="fill: none; stroke: #000000; stroke-width: 0.8; stroke-linejoin: miter; stroke-linecap: square"/>
   </g>
   <g id="patch_4">
    <path d="M 711.315077 188.612029 
L 711.315077 10.8 
" style="fill: none; stroke: #000000; stroke-width: 0.8; stroke-linejoin: miter; stroke-linecap: square"/>
   </g>
   <g id="patch_5">
    <path d="M 176.138231 188.612029 
L 711.315077 188.612029 
" style="fill: none; stroke: #000000; stroke-width: 0.8; stroke-linejoin: miter; stroke-linecap: square"/>
   </g>
   <g id="patch_6">
    <path d="M 176.138231 10.8 
L 711.315077 10.8 
" style="fill: none; stroke: #000000; stroke-width: 0.8; stroke-linejoin: miter; stroke-linecap: square"/>
   </g>
   <g id="text_15">
    <!-- a. -->
    <g transform="translate(386.965473 30.268252) scale(0.1 -0.1)">
     <defs>
      <path id="CMSS17-61" d="M 2406 1791 
C 2406 2392 1978 2808 1402 2808 
C 1120 2808 813 2757 461 2553 
L 499 2135 
C 659 2248 934 2432 1395 2432 
C 1722 2432 1920 2180 1920 1782 
L 1920 1536 
C 896 1536 256 1238 256 726 
C 256 461 416 -64 947 -64 
C 1043 -64 1562 -64 1933 217 
L 1933 -19 
L 2406 -19 
L 2406 1791 
z
M 1920 816 
C 1920 701 1920 548 1728 434 
C 1562 325 1350 325 1261 325 
C 941 325 723 511 723 744 
C 723 1211 1722 1211 1920 1211 
L 1920 816 
z
" transform="scale(0.015625)"/>
      <path id="CMSS17-2e" d="M 1088 510 
L 576 510 
L 576 0 
L 1088 0 
L 1088 510 
z
" transform="scale(0.015625)"/>
     </defs>
     <use xlink:href="#CMSS17-61" transform="scale(0.996264)"/>
     <use xlink:href="#CMSS17-2e" transform="translate(44.921921 0) scale(0.996264)"/>
    </g>
   </g>
   <g id="text_16">
    <!-- b. -->
    <g transform="translate(431.563544 30.268252) scale(0.1 -0.1)">
     <defs>
      <path id="CMSS17-62" d="M 954 4416 
L 480 4416 
L 480 -13 
L 966 -13 
L 966 274 
C 1210 38 1504 -64 1766 -64 
C 2381 -64 2880 549 2880 1352 
C 2880 2086 2496 2756 1926 2756 
C 1523 2756 1165 2591 954 2419 
L 954 4416 
z
M 966 2046 
C 1107 2222 1306 2368 1587 2368 
C 1965 2368 2394 2097 2394 1352 
C 2394 558 1882 325 1530 325 
C 1402 325 1267 356 1139 464 
C 966 615 966 709 966 797 
L 966 2046 
z
" transform="scale(0.015625)"/>
     </defs>
     <use xlink:href="#CMSS17-62" transform="scale(0.996264)"/>
     <use xlink:href="#CMSS17-2e" transform="translate(48.204943 0) scale(0.996264)"/>
    </g>
   </g>
   <g id="text_17">
    <!-- c. -->
    <g transform="translate(492.379094 30.268252) scale(0.1 -0.1)">
     <defs>
      <path id="CMSS17-63" d="M 2464 2541 
C 2464 2585 2170 2714 2093 2739 
C 1882 2816 1613 2816 1542 2816 
C 710 2816 211 2093 211 1363 
C 211 595 768 -64 1517 -64 
C 1946 -64 2253 76 2502 242 
L 2464 664 
C 2189 453 1869 337 1523 337 
C 1024 337 698 774 698 1369 
C 698 1831 909 2414 1549 2414 
C 1901 2414 2099 2343 2394 2145 
L 2464 2541 
z
" transform="scale(0.015625)"/>
     </defs>
     <use xlink:href="#CMSS17-63" transform="scale(0.996264)"/>
     <use xlink:href="#CMSS17-2e" transform="translate(41.638822 0) scale(0.996264)"/>
    </g>
   </g>
  </g>
  <g id="axes_2">
   <g id="patch_7">
    <path d="M 36.743975 320.488647 
L 281.909332 320.488647 
L 281.909332 231.582632 
L 36.743975 231.582632 
z
" style="fill: #ffffff"/>
   </g>
   <g id="matplotlib.axis_3">
    <g id="xtick_8">
     <g id="line2d_21">
      <g>
       <use xlink:href="#m9ce4fbdce9" x="36.743975" y="320.488647" style="stroke: #000000; stroke-width: 0.8"/>
      </g>
     </g>
     <g id="text_18">
      <!-- $\mathdefault{−2.0}$ -->
      <g transform="translate(26.504564 334.407145) scale(0.1 -0.1)">
       <defs>
        <path id="CMMI12-3a" d="M 1178 307 
C 1178 492 1024 619 870 619 
C 685 619 557 466 557 313 
C 557 128 710 0 864 0 
C 1050 0 1178 153 1178 307 
z
" transform="scale(0.015625)"/>
       </defs>
       <use xlink:href="#CMSY10-0" transform="scale(0.996264)"/>
       <use xlink:href="#CMR17-32" transform="translate(77.487468 0) scale(0.996264)"/>
       <use xlink:href="#CMMI12-3a" transform="translate(123.177945 0) scale(0.996264)"/>
       <use xlink:href="#CMR17-30" transform="translate(150.275122 0) scale(0.996264)"/>
      </g>
     </g>
    </g>
    <g id="xtick_9">
     <g id="line2d_22">
      <g>
       <use xlink:href="#m9ce4fbdce9" x="67.389645" y="320.488647" style="stroke: #000000; stroke-width: 0.8"/>
      </g>
     </g>
     <g id="text_19">
      <!-- $\mathdefault{−1.5}$ -->
      <g transform="translate(57.150234 334.407145) scale(0.1 -0.1)">
       <defs>
        <path id="CMR17-35" d="M 730 3692 
C 794 3666 1056 3584 1325 3584 
C 1920 3584 2246 3911 2432 4100 
C 2432 4157 2432 4192 2394 4192 
C 2387 4192 2374 4192 2323 4163 
C 2099 4058 1837 3973 1517 3973 
C 1325 3973 1037 3999 723 4139 
C 653 4171 640 4171 634 4171 
C 602 4171 595 4164 595 4037 
L 595 2203 
C 595 2089 595 2057 659 2057 
C 691 2057 704 2070 736 2114 
C 941 2401 1222 2522 1542 2522 
C 1766 2522 2246 2382 2246 1289 
C 2246 1085 2246 715 2054 421 
C 1894 159 1645 25 1370 25 
C 947 25 518 320 403 814 
C 429 807 480 795 506 795 
C 589 795 749 840 749 1038 
C 749 1210 627 1280 506 1280 
C 358 1280 262 1190 262 1011 
C 262 454 704 -128 1382 -128 
C 2042 -128 2669 440 2669 1264 
C 2669 2030 2170 2624 1549 2624 
C 1222 2624 947 2503 730 2274 
L 730 3692 
z
" transform="scale(0.015625)"/>
       </defs>
       <use xlink:href="#CMSY10-0" transform="scale(0.996264)"/>
       <use xlink:href="#CMR17-31" transform="translate(77.487468 0) scale(0.996264)"/>
       <use xlink:href="#CMMI12-3a" transform="translate(123.177945 0) scale(0.996264)"/>
       <use xlink:href="#CMR17-35" transform="translate(150.275122 0) scale(0.996264)"/>
      </g>
     </g>
    </g>
    <g id="xtick_10">
     <g id="line2d_23">
      <g>
       <use xlink:href="#m9ce4fbdce9" x="98.035315" y="320.488647" style="stroke: #000000; stroke-width: 0.8"/>
      </g>
     </g>
     <g id="text_20">
      <!-- $\mathdefault{−1.0}$ -->
      <g transform="translate(87.795903 334.407145) scale(0.1 -0.1)">
       <use xlink:href="#CMSY10-0" transform="scale(0.996264)"/>
       <use xlink:href="#CMR17-31" transform="translate(77.487468 0) scale(0.996264)"/>
       <use xlink:href="#CMMI12-3a" transform="translate(123.177945 0) scale(0.996264)"/>
       <use xlink:href="#CMR17-30" transform="translate(150.275122 0) scale(0.996264)"/>
      </g>
     </g>
    </g>
    <g id="xtick_11">
     <g id="line2d_24">
      <g>
       <use xlink:href="#m9ce4fbdce9" x="128.680984" y="320.488647" style="stroke: #000000; stroke-width: 0.8"/>
      </g>
     </g>
     <g id="text_21">
      <!-- $\mathdefault{−0.5}$ -->
      <g transform="translate(118.441573 334.407145) scale(0.1 -0.1)">
       <use xlink:href="#CMSY10-0" transform="scale(0.996264)"/>
       <use xlink:href="#CMR17-30" transform="translate(77.487468 0) scale(0.996264)"/>
       <use xlink:href="#CMMI12-3a" transform="translate(123.177945 0) scale(0.996264)"/>
       <use xlink:href="#CMR17-35" transform="translate(150.275122 0) scale(0.996264)"/>
      </g>
     </g>
    </g>
    <g id="xtick_12">
     <g id="line2d_25">
      <g>
       <use xlink:href="#m9ce4fbdce9" x="159.326654" y="320.488647" style="stroke: #000000; stroke-width: 0.8"/>
      </g>
     </g>
     <g id="text_22">
      <!-- $\mathdefault{0.0}$ -->
      <g transform="translate(152.961614 334.407145) scale(0.1 -0.1)">
       <use xlink:href="#CMR17-30" transform="scale(0.996264)"/>
       <use xlink:href="#CMMI12-3a" transform="translate(45.690477 0) scale(0.996264)"/>
       <use xlink:href="#CMR17-30" transform="translate(72.787654 0) scale(0.996264)"/>
      </g>
     </g>
    </g>
    <g id="xtick_13">
     <g id="line2d_26">
      <g>
       <use xlink:href="#m9ce4fbdce9" x="189.972323" y="320.488647" style="stroke: #000000; stroke-width: 0.8"/>
      </g>
     </g>
     <g id="text_23">
      <!-- $\mathdefault{0.5}$ -->
      <g transform="translate(183.607284 334.407145) scale(0.1 -0.1)">
       <use xlink:href="#CMR17-30" transform="scale(0.996264)"/>
       <use xlink:href="#CMMI12-3a" transform="translate(45.690477 0) scale(0.996264)"/>
       <use xlink:href="#CMR17-35" transform="translate(72.787654 0) scale(0.996264)"/>
      </g>
     </g>
    </g>
    <g id="xtick_14">
     <g id="line2d_27">
      <g>
       <use xlink:href="#m9ce4fbdce9" x="220.617993" y="320.488647" style="stroke: #000000; stroke-width: 0.8"/>
      </g>
     </g>
     <g id="text_24">
      <!-- $\mathdefault{1.0}$ -->
      <g transform="translate(214.252954 334.407145) scale(0.1 -0.1)">
       <use xlink:href="#CMR17-31" transform="scale(0.996264)"/>
       <use xlink:href="#CMMI12-3a" transform="translate(45.690477 0) scale(0.996264)"/>
       <use xlink:href="#CMR17-30" transform="translate(72.787654 0) scale(0.996264)"/>
      </g>
     </g>
    </g>
    <g id="xtick_15">
     <g id="line2d_28">
      <g>
       <use xlink:href="#m9ce4fbdce9" x="251.263663" y="320.488647" style="stroke: #000000; stroke-width: 0.8"/>
      </g>
     </g>
     <g id="text_25">
      <!-- $\mathdefault{1.5}$ -->
      <g transform="translate(244.898623 334.407145) scale(0.1 -0.1)">
       <use xlink:href="#CMR17-31" transform="scale(0.996264)"/>
       <use xlink:href="#CMMI12-3a" transform="translate(45.690477 0) scale(0.996264)"/>
       <use xlink:href="#CMR17-35" transform="translate(72.787654 0) scale(0.996264)"/>
      </g>
     </g>
    </g>
    <g id="xtick_16">
     <g id="line2d_29">
      <g>
       <use xlink:href="#m9ce4fbdce9" x="281.909332" y="320.488647" style="stroke: #000000; stroke-width: 0.8"/>
      </g>
     </g>
     <g id="text_26">
      <!-- $\mathdefault{2.0}$ -->
      <g transform="translate(275.544293 334.407145) scale(0.1 -0.1)">
       <use xlink:href="#CMR17-32" transform="scale(0.996264)"/>
       <use xlink:href="#CMMI12-3a" transform="translate(45.690477 0) scale(0.996264)"/>
       <use xlink:href="#CMR17-30" transform="translate(72.787654 0) scale(0.996264)"/>
      </g>
     </g>
    </g>
    <g id="text_27">
     <!-- $x$ -->
     <g transform="translate(156.479694 347.262822) scale(0.1 -0.1)">
      <use xlink:href="#CMMI12-78" transform="scale(0.996264)"/>
     </g>
    </g>
   </g>
   <g id="matplotlib.axis_4">
    <g id="ytick_6">
     <g id="line2d_30">
      <g>
       <use xlink:href="#md8512d3f9e" x="36.743975" y="320.488647" style="stroke: #000000; stroke-width: 0.8"/>
      </g>
     </g>
     <g id="text_28">
      <!-- $\mathdefault{0}$ -->
      <g transform="translate(24.76264 323.947896) scale(0.1 -0.1)">
       <use xlink:href="#CMR17-30" transform="scale(0.996264)"/>
      </g>
     </g>
    </g>
    <g id="ytick_7">
     <g id="line2d_31">
      <g>
       <use xlink:href="#md8512d3f9e" x="36.743975" y="290.853308" style="stroke: #000000; stroke-width: 0.8"/>
      </g>
     </g>
     <g id="text_29">
      <!-- $\mathdefault{1}$ -->
      <g transform="translate(24.76264 294.312558) scale(0.1 -0.1)">
       <use xlink:href="#CMR17-31" transform="scale(0.996264)"/>
      </g>
     </g>
    </g>
    <g id="ytick_8">
     <g id="line2d_32">
      <g>
       <use xlink:href="#md8512d3f9e" x="36.743975" y="261.21797" style="stroke: #000000; stroke-width: 0.8"/>
      </g>
     </g>
     <g id="text_30">
      <!-- $\mathdefault{2}$ -->
      <g transform="translate(24.76264 264.677219) scale(0.1 -0.1)">
       <use xlink:href="#CMR17-32" transform="scale(0.996264)"/>
      </g>
     </g>
    </g>
    <g id="ytick_9">
     <g id="line2d_33">
      <g>
       <use xlink:href="#md8512d3f9e" x="36.743975" y="231.582632" style="stroke: #000000; stroke-width: 0.8"/>
      </g>
     </g>
     <g id="text_31">
      <!-- $\mathdefault{3}$ -->
      <g transform="translate(24.76264 235.041881) scale(0.1 -0.1)">
       <use xlink:href="#CMR17-33" transform="scale(0.996264)"/>
      </g>
     </g>
    </g>
    <g id="text_32">
     <!-- $f\left(x\right)$ -->
     <g transform="translate(18.27198 286.562144) rotate(-90) scale(0.1 -0.1)">
      <defs>
       <path id="CMMI12-66" d="M 2854 2566 
C 2982 2566 3034 2566 3034 2688 
C 3034 2752 2982 2752 2867 2752 
L 2349 2752 
C 2470 3429 2560 3897 2611 4107 
C 2650 4265 2784 4416 2950 4416 
C 3085 4416 3219 4358 3283 4298 
C 3034 4272 2957 4082 2957 3969 
C 2957 3837 3053 3759 3174 3759 
C 3302 3759 3494 3870 3494 4119 
C 3494 4393 3226 4544 2944 4544 
C 2669 4544 2400 4334 2272 4078 
C 2157 3848 2093 3611 1946 2752 
L 1517 2752 
C 1395 2752 1331 2752 1331 2637 
C 1331 2566 1370 2566 1498 2566 
L 1907 2566 
C 1792 1976 1530 542 1382 -137 
C 1274 -689 1178 -1152 858 -1152 
C 838 -1152 653 -1152 538 -1031 
C 864 -1005 864 -726 864 -720 
C 864 -593 768 -517 646 -517 
C 518 -517 326 -625 326 -867 
C 326 -1140 608 -1280 858 -1280 
C 1510 -1280 1779 -118 1850 199 
C 1965 688 2278 2376 2310 2566 
L 2854 2566 
z
" transform="scale(0.015625)"/>
       <path id="CMR17-28" d="M 1958 -1561 
C 1958 -1555 1958 -1542 1939 -1523 
C 1645 -1224 858 -407 858 1581 
C 858 3569 1632 4379 1946 4697 
C 1946 4704 1958 4717 1958 4736 
C 1958 4755 1939 4768 1914 4768 
C 1843 4768 1299 4296 986 3594 
C 666 2887 576 2199 576 1588 
C 576 1128 621 351 1005 -471 
C 1312 -1135 1837 -1600 1914 -1600 
C 1946 -1600 1958 -1587 1958 -1561 
z
" transform="scale(0.015625)"/>
       <path id="CMR17-29" d="M 1683 1581 
C 1683 2040 1638 2817 1254 3639 
C 947 4303 422 4768 346 4768 
C 326 4768 301 4761 301 4729 
C 301 4717 307 4710 314 4697 
C 621 4378 1402 3568 1402 1584 
C 1402 -407 627 -1217 314 -1537 
C 307 -1549 301 -1556 301 -1568 
C 301 -1600 326 -1600 346 -1600 
C 416 -1600 960 -1128 1274 -426 
C 1594 281 1683 969 1683 1581 
z
" transform="scale(0.015625)"/>
      </defs>
      <use xlink:href="#CMMI12-66" transform="scale(0.996264)"/>
      <use xlink:href="#CMR17-28" transform="translate(75.32471 0.003177) scale(0.996264)"/>
      <use xlink:href="#CMMI12-78" transform="translate(110.605478 0) scale(0.996264)"/>
      <use xlink:href="#CMR17-29" transform="translate(166.039537 0.003177) scale(0.996264)"/>
     </g>
    </g>
   </g>
   <g id="line2d_34">
    <path d="M 85.716675 320.485692 
L 86.331427 320.354455 
L 86.946179 319.35036 
L 87.560931 319.044798 
L 88.175683 320.19121 
L 88.790435 320.473381 
L 91.249444 320.483476 
L 91.864196 320.291176 
L 92.478948 315.621074 
L 93.0937 291.657471 
L 93.708453 286.580363 
L 94.323205 312.487893 
L 94.937957 319.95853 
L 95.552709 320.465502 
L 97.396965 320.459346 
L 98.011717 319.773863 
L 98.62647 310.248746 
L 99.241222 275.054443 
L 99.855974 271.437188 
L 100.470726 306.720378 
L 101.085478 319.107831 
L 101.70023 320.377108 
L 102.929735 320.469934 
L 103.544487 320.341159 
L 104.159239 318.664877 
L 104.773991 304.50733 
L 105.388743 267.37107 
L 106.003495 266.340383 
L 106.618247 302.523762 
L 107.232999 317.72997 
L 107.847752 320.107987 
L 108.462504 320.38868 
L 109.077256 320.347807 
L 109.692008 319.904607 
L 110.30676 316.281197 
L 110.921512 296.579951 
L 111.536264 259.005661 
L 112.151016 260.229879 
L 112.765769 296.677701 
L 113.380521 315.267499 
L 113.995273 319.348636 
L 114.610025 320.025502 
L 115.224777 319.956806 
L 115.839529 318.75918 
L 116.454281 312.614698 
L 117.069034 291.243325 
L 117.683786 260.666432 
L 118.298538 263.407873 
L 118.91329 293.441845 
L 119.528042 311.993232 
L 120.142794 317.755085 
L 120.757546 319.045537 
L 121.372298 318.788973 
L 121.987051 316.570262 
L 122.601803 308.415373 
L 123.831307 267.380673 
L 124.446059 270.510899 
L 125.060811 292.163212 
L 125.675563 308.436056 
L 126.290316 315.088003 
L 126.905068 316.863759 
L 127.51982 316.28489 
L 128.134572 312.861659 
L 128.749324 303.786391 
L 129.978828 274.997565 
L 130.59358 277.807949 
L 131.823085 304.558544 
L 132.437837 311.009573 
L 133.052589 313.156387 
L 133.667341 312.297317 
L 134.282093 308.338059 
L 134.896845 300.411173 
L 135.511598 289.978234 
L 136.12635 283.212286 
L 136.741102 285.091948 
L 137.970606 301.550198 
L 138.585358 306.425157 
L 139.20011 308.142559 
L 139.814862 307.370405 
L 140.429615 303.995433 
L 141.659119 292.965897 
L 142.273871 289.975033 
L 142.888623 291.047578 
L 144.118127 299.588051 
L 144.73288 302.494461 
L 145.347632 303.60911 
L 145.962384 302.890387 
L 146.577136 300.979947 
L 147.191888 298.260912 
L 147.80664 296.05205 
L 148.421392 295.203813 
L 149.036144 295.772095 
L 150.880401 300.063753 
L 151.495153 300.599287 
L 153.954162 298.569182 
L 154.568914 298.492115 
L 155.798418 299.396736 
L 157.642674 300.291755 
L 158.257426 300.313176 
L 158.872179 300.493904 
L 159.486931 300.535023 
L 160.101683 300.695314 
L 160.716435 301.00974 
L 161.331187 301.026483 
L 164.404948 302.902206 
L 165.0197 302.889895 
L 165.634452 302.752256 
L 166.249204 302.296498 
L 166.863956 302.174372 
L 167.478708 302.441523 
L 168.093461 303.426167 
L 169.937717 306.929421 
L 170.552469 307.180568 
L 171.167221 306.568458 
L 171.781973 305.148986 
L 172.396726 303.402776 
L 173.011478 302.625205 
L 173.62623 303.141534 
L 174.240982 305.407273 
L 175.470486 310.392786 
L 176.085238 311.672897 
L 176.69999 311.652214 
L 177.314743 310.330492 
L 177.929495 307.625492 
L 178.544247 304.232792 
L 179.158999 302.314473 
L 179.773751 303.612804 
L 181.003255 311.732236 
L 181.618007 314.432805 
L 182.23276 315.742216 
L 182.847512 315.569614 
L 183.462264 313.855905 
L 184.077016 310.225847 
L 184.691768 305.184196 
L 185.30652 302.172648 
L 185.921272 304.449714 
L 187.150777 315.022507 
L 187.765529 317.489164 
L 188.380281 318.35439 
L 188.995033 318.135252 
L 189.609785 316.635018 
L 190.224537 312.646953 
L 190.839289 306.115409 
L 191.454042 301.755548 
L 192.068794 305.426725 
L 192.683546 312.773265 
L 193.298298 317.442136 
L 193.91305 319.256795 
L 194.527802 319.693348 
L 195.142554 319.559157 
L 195.757307 318.453618 
L 196.372059 314.914416 
L 196.986811 307.482929 
L 197.601563 302.190376 
L 198.216315 307.115319 
L 198.831067 315.243369 
L 199.445819 319.058094 
L 200.060571 320.070068 
L 200.675324 320.262122 
L 201.290076 320.172989 
L 201.904828 319.608894 
L 202.51958 316.888135 
L 203.134332 309.692037 
L 203.749084 303.93437 
L 204.363836 309.776984 
L 204.978589 317.403725 
L 205.593341 319.933415 
L 206.208093 320.371445 
L 207.437597 320.415272 
L 208.052349 320.148367 
L 208.667101 318.416192 
L 209.896606 306.555901 
L 211.12611 318.89214 
L 211.740862 320.309643 
L 212.355614 320.468456 
L 213.585118 320.477813 
L 214.199871 320.378585 
L 214.814623 319.524193 
L 216.044127 311.394912 
L 216.658879 316.144297 
L 217.273631 319.893034 
L 217.888383 320.455899 
L 220.347392 320.477074 
L 220.962144 320.286005 
L 222.191648 317.868593 
L 222.8064 319.446879 
L 223.421153 320.391389 
L 224.035905 320.484461 
L 224.035905 320.484461 
" clip-path="url(#p4b2ef7d186)" style="fill: none; stroke: #1f77b4; stroke-width: 1.5; stroke-linecap: square"/>
   </g>
   <g id="line2d_35">
    <path d="M 85.194779 320.191755 
L 91.385204 313.018805 
L 97.57563 308.612505 
L 103.766055 306.106436 
L 109.95648 302.812586 
L 116.146905 301.518436 
L 122.337331 301.12342 
L 128.527756 300.648888 
L 134.718181 300.109608 
L 140.908606 299.50003 
L 147.099032 299.217736 
L 153.289457 299.415231 
L 159.479882 300.639743 
L 165.670307 302.696587 
L 171.860733 305.308287 
L 178.051158 308.015054 
L 184.241583 310.618832 
L 190.432009 312.674429 
L 196.622434 314.31941 
L 202.812859 315.802278 
L 209.003284 317.06222 
L 215.19371 318.456768 
L 221.384135 319.950638 
" clip-path="url(#p4b2ef7d186)" style="fill: none; stroke: #ff7f0e; stroke-width: 1.5; stroke-linecap: square"/>
   </g>
   <g id="line2d_36">
    <path d="M 36.437519 320.488647 
L 73.825236 320.386766 
L 77.809173 320.154968 
L 80.87374 319.764371 
L 83.325393 319.244215 
L 85.777047 318.484339 
L 87.922244 317.593388 
L 90.067441 316.48129 
L 92.519094 314.953026 
L 95.277204 312.964103 
L 100.180511 309.079869 
L 104.164449 306.056951 
L 106.922559 304.247657 
L 109.374212 302.906607 
L 111.825866 301.837996 
L 114.27752 301.03381 
L 116.729173 300.464369 
L 119.487283 300.049227 
L 123.164764 299.746514 
L 131.132638 299.416805 
L 146.149016 298.862862 
L 149.52004 299.055605 
L 152.584607 299.441202 
L 155.649174 300.047928 
L 158.71374 300.874906 
L 162.084764 302.013374 
L 166.068701 303.597677 
L 173.423662 306.826234 
L 179.246339 309.264403 
L 183.84319 310.939031 
L 188.133583 312.267641 
L 193.03689 313.545723 
L 199.778938 315.048603 
L 216.634056 318.50851 
L 222.150277 319.397836 
L 226.747127 319.920256 
L 231.650434 320.253873 
L 237.779568 320.432657 
L 249.118466 320.487466 
L 282.215789 320.488647 
L 282.215789 320.488647 
" clip-path="url(#p4b2ef7d186)" style="fill: none; stroke-dasharray: 1.2,1.2; stroke-dashoffset: 0; stroke: #008000; stroke-width: 1.5"/>
   </g>
   <g id="patch_8">
    <path d="M 36.743975 320.488647 
L 36.743975 231.582632 
" style="fill: none; stroke: #000000; stroke-width: 0.8; stroke-linejoin: miter; stroke-linecap: square"/>
   </g>
   <g id="patch_9">
    <path d="M 281.909332 320.488647 
L 281.909332 231.582632 
" style="fill: none; stroke: #000000; stroke-width: 0.8; stroke-linejoin: miter; stroke-linecap: square"/>
   </g>
   <g id="patch_10">
    <path d="M 36.743975 320.488647 
L 281.909332 320.488647 
" style="fill: none; stroke: #000000; stroke-width: 0.8; stroke-linejoin: miter; stroke-linecap: square"/>
   </g>
   <g id="patch_11">
    <path d="M 36.743975 231.582632 
L 281.909332 231.582632 
" style="fill: none; stroke: #000000; stroke-width: 0.8; stroke-linejoin: miter; stroke-linecap: square"/>
   </g>
   <g id="text_33">
    <!-- a) $\lambda = -0.5$ -->
    <g transform="translate(189.972323 255.290902) scale(0.1 -0.1)">
     <defs>
      <path id="CMSS17-29" d="M 723 -1600 
C 1069 -1249 1862 -433 1862 1581 
C 1862 3601 1069 4411 723 4768 
L 333 4768 
C 1120 3952 1376 2811 1376 1588 
C 1376 370 1133 -778 333 -1600 
L 723 -1600 
z
" transform="scale(0.015625)"/>
      <path id="CMR17-3d" d="M 4115 2017 
C 4211 2017 4307 2017 4307 2125 
C 4307 2240 4198 2240 4090 2240 
L 512 2240 
C 403 2240 294 2240 294 2125 
C 294 2017 390 2017 486 2017 
L 4115 2017 
z
M 4090 896 
C 4198 896 4307 896 4307 1011 
C 4307 1119 4211 1119 4115 1119 
L 486 1119 
C 390 1119 294 1119 294 1011 
C 294 896 403 896 512 896 
L 4090 896 
z
" transform="scale(0.015625)"/>
     </defs>
     <use xlink:href="#CMSS17-61" transform="scale(0.996264)"/>
     <use xlink:href="#CMSS17-29" transform="translate(44.921921 0) scale(0.996264)"/>
     <use xlink:href="#CMMI12-15" transform="translate(112.584948 0) scale(0.996264)"/>
     <use xlink:href="#CMR17-3d" transform="translate(197.163028 0) scale(0.996264)"/>
     <use xlink:href="#CMSY10-0" transform="translate(296.551825 0) scale(0.996264)"/>
     <use xlink:href="#CMR17-30" transform="translate(374.039293 0) scale(0.996264)"/>
     <use xlink:href="#CMMI12-3a" transform="translate(419.72977 0) scale(0.996264)"/>
     <use xlink:href="#CMR17-35" transform="translate(446.826947 0) scale(0.996264)"/>
    </g>
   </g>
  </g>
  <g id="axes_3">
   <g id="patch_12">
    <path d="M 321.143975 320.488647 
L 566.309332 320.488647 
L 566.309332 231.582632 
L 321.143975 231.582632 
z
" style="fill: #ffffff"/>
   </g>
   <g id="matplotlib.axis_5">
    <g id="xtick_17">
     <g id="line2d_37">
      <g>
       <use xlink:href="#m9ce4fbdce9" x="321.143975" y="320.488647" style="stroke: #000000; stroke-width: 0.8"/>
      </g>
     </g>
     <g id="text_34">
      <!-- $\mathdefault{−2.0}$ -->
      <g transform="translate(310.904564 334.407145) scale(0.1 -0.1)">
       <use xlink:href="#CMSY10-0" transform="scale(0.996264)"/>
       <use xlink:href="#CMR17-32" transform="translate(77.487468 0) scale(0.996264)"/>
       <use xlink:href="#CMMI12-3a" transform="translate(123.177945 0) scale(0.996264)"/>
       <use xlink:href="#CMR17-30" transform="translate(150.275122 0) scale(0.996264)"/>
      </g>
     </g>
    </g>
    <g id="xtick_18">
     <g id="line2d_38">
      <g>
       <use xlink:href="#m9ce4fbdce9" x="351.789645" y="320.488647" style="stroke: #000000; stroke-width: 0.8"/>
      </g>
     </g>
     <g id="text_35">
      <!-- $\mathdefault{−1.5}$ -->
      <g transform="translate(341.550234 334.407145) scale(0.1 -0.1)">
       <use xlink:href="#CMSY10-0" transform="scale(0.996264)"/>
       <use xlink:href="#CMR17-31" transform="translate(77.487468 0) scale(0.996264)"/>
       <use xlink:href="#CMMI12-3a" transform="translate(123.177945 0) scale(0.996264)"/>
       <use xlink:href="#CMR17-35" transform="translate(150.275122 0) scale(0.996264)"/>
      </g>
     </g>
    </g>
    <g id="xtick_19">
     <g id="line2d_39">
      <g>
       <use xlink:href="#m9ce4fbdce9" x="382.435315" y="320.488647" style="stroke: #000000; stroke-width: 0.8"/>
      </g>
     </g>
     <g id="text_36">
      <!-- $\mathdefault{−1.0}$ -->
      <g transform="translate(372.195903 334.407145) scale(0.1 -0.1)">
       <use xlink:href="#CMSY10-0" transform="scale(0.996264)"/>
       <use xlink:href="#CMR17-31" transform="translate(77.487468 0) scale(0.996264)"/>
       <use xlink:href="#CMMI12-3a" transform="translate(123.177945 0) scale(0.996264)"/>
       <use xlink:href="#CMR17-30" transform="translate(150.275122 0) scale(0.996264)"/>
      </g>
     </g>
    </g>
    <g id="xtick_20">
     <g id="line2d_40">
      <g>
       <use xlink:href="#m9ce4fbdce9" x="413.080984" y="320.488647" style="stroke: #000000; stroke-width: 0.8"/>
      </g>
     </g>
     <g id="text_37">
      <!-- $\mathdefault{−0.5}$ -->
      <g transform="translate(402.841573 334.407145) scale(0.1 -0.1)">
       <use xlink:href="#CMSY10-0" transform="scale(0.996264)"/>
       <use xlink:href="#CMR17-30" transform="translate(77.487468 0) scale(0.996264)"/>
       <use xlink:href="#CMMI12-3a" transform="translate(123.177945 0) scale(0.996264)"/>
       <use xlink:href="#CMR17-35" transform="translate(150.275122 0) scale(0.996264)"/>
      </g>
     </g>
    </g>
    <g id="xtick_21">
     <g id="line2d_41">
      <g>
       <use xlink:href="#m9ce4fbdce9" x="443.726654" y="320.488647" style="stroke: #000000; stroke-width: 0.8"/>
      </g>
     </g>
     <g id="text_38">
      <!-- $\mathdefault{0.0}$ -->
      <g transform="translate(437.361614 334.407145) scale(0.1 -0.1)">
       <use xlink:href="#CMR17-30" transform="scale(0.996264)"/>
       <use xlink:href="#CMMI12-3a" transform="translate(45.690477 0) scale(0.996264)"/>
       <use xlink:href="#CMR17-30" transform="translate(72.787654 0) scale(0.996264)"/>
      </g>
     </g>
    </g>
    <g id="xtick_22">
     <g id="line2d_42">
      <g>
       <use xlink:href="#m9ce4fbdce9" x="474.372323" y="320.488647" style="stroke: #000000; stroke-width: 0.8"/>
      </g>
     </g>
     <g id="text_39">
      <!-- $\mathdefault{0.5}$ -->
      <g transform="translate(468.007284 334.407145) scale(0.1 -0.1)">
       <use xlink:href="#CMR17-30" transform="scale(0.996264)"/>
       <use xlink:href="#CMMI12-3a" transform="translate(45.690477 0) scale(0.996264)"/>
       <use xlink:href="#CMR17-35" transform="translate(72.787654 0) scale(0.996264)"/>
      </g>
     </g>
    </g>
    <g id="xtick_23">
     <g id="line2d_43">
      <g>
       <use xlink:href="#m9ce4fbdce9" x="505.017993" y="320.488647" style="stroke: #000000; stroke-width: 0.8"/>
      </g>
     </g>
     <g id="text_40">
      <!-- $\mathdefault{1.0}$ -->
      <g transform="translate(498.652954 334.407145) scale(0.1 -0.1)">
       <use xlink:href="#CMR17-31" transform="scale(0.996264)"/>
       <use xlink:href="#CMMI12-3a" transform="translate(45.690477 0) scale(0.996264)"/>
       <use xlink:href="#CMR17-30" transform="translate(72.787654 0) scale(0.996264)"/>
      </g>
     </g>
    </g>
    <g id="xtick_24">
     <g id="line2d_44">
      <g>
       <use xlink:href="#m9ce4fbdce9" x="535.663663" y="320.488647" style="stroke: #000000; stroke-width: 0.8"/>
      </g>
     </g>
     <g id="text_41">
      <!-- $\mathdefault{1.5}$ -->
      <g transform="translate(529.298623 334.407145) scale(0.1 -0.1)">
       <use xlink:href="#CMR17-31" transform="scale(0.996264)"/>
       <use xlink:href="#CMMI12-3a" transform="translate(45.690477 0) scale(0.996264)"/>
       <use xlink:href="#CMR17-35" transform="translate(72.787654 0) scale(0.996264)"/>
      </g>
     </g>
    </g>
    <g id="xtick_25">
     <g id="line2d_45">
      <g>
       <use xlink:href="#m9ce4fbdce9" x="566.309332" y="320.488647" style="stroke: #000000; stroke-width: 0.8"/>
      </g>
     </g>
     <g id="text_42">
      <!-- $\mathdefault{2.0}$ -->
      <g transform="translate(559.944293 334.407145) scale(0.1 -0.1)">
       <use xlink:href="#CMR17-32" transform="scale(0.996264)"/>
       <use xlink:href="#CMMI12-3a" transform="translate(45.690477 0) scale(0.996264)"/>
       <use xlink:href="#CMR17-30" transform="translate(72.787654 0) scale(0.996264)"/>
      </g>
     </g>
    </g>
    <g id="text_43">
     <!-- $x$ -->
     <g transform="translate(440.879694 347.262822) scale(0.1 -0.1)">
      <use xlink:href="#CMMI12-78" transform="scale(0.996264)"/>
     </g>
    </g>
   </g>
   <g id="matplotlib.axis_6">
    <g id="ytick_10">
     <g id="line2d_46">
      <g>
       <use xlink:href="#md8512d3f9e" x="321.143975" y="320.488647" style="stroke: #000000; stroke-width: 0.8"/>
      </g>
     </g>
     <g id="text_44">
      <!-- $\mathdefault{0}$ -->
      <g transform="translate(309.16264 323.947896) scale(0.1 -0.1)">
       <use xlink:href="#CMR17-30" transform="scale(0.996264)"/>
      </g>
     </g>
    </g>
    <g id="ytick_11">
     <g id="line2d_47">
      <g>
       <use xlink:href="#md8512d3f9e" x="321.143975" y="290.853308" style="stroke: #000000; stroke-width: 0.8"/>
      </g>
     </g>
     <g id="text_45">
      <!-- $\mathdefault{1}$ -->
      <g transform="translate(309.16264 294.312558) scale(0.1 -0.1)">
       <use xlink:href="#CMR17-31" transform="scale(0.996264)"/>
      </g>
     </g>
    </g>
    <g id="ytick_12">
     <g id="line2d_48">
      <g>
       <use xlink:href="#md8512d3f9e" x="321.143975" y="261.21797" style="stroke: #000000; stroke-width: 0.8"/>
      </g>
     </g>
     <g id="text_46">
      <!-- $\mathdefault{2}$ -->
      <g transform="translate(309.16264 264.677219) scale(0.1 -0.1)">
       <use xlink:href="#CMR17-32" transform="scale(0.996264)"/>
      </g>
     </g>
    </g>
    <g id="ytick_13">
     <g id="line2d_49">
      <g>
       <use xlink:href="#md8512d3f9e" x="321.143975" y="231.582632" style="stroke: #000000; stroke-width: 0.8"/>
      </g>
     </g>
     <g id="text_47">
      <!-- $\mathdefault{3}$ -->
      <g transform="translate(309.16264 235.041881) scale(0.1 -0.1)">
       <use xlink:href="#CMR17-33" transform="scale(0.996264)"/>
      </g>
     </g>
    </g>
    <g id="text_48">
     <!-- $f\left(x\right)$ -->
     <g transform="translate(302.67198 286.562144) rotate(-90) scale(0.1 -0.1)">
      <use xlink:href="#CMMI12-66" transform="scale(0.996264)"/>
      <use xlink:href="#CMR17-28" transform="translate(75.32471 0.003177) scale(0.996264)"/>
      <use xlink:href="#CMMI12-78" transform="translate(110.605478 0) scale(0.996264)"/>
      <use xlink:href="#CMR17-29" transform="translate(166.039537 0.003177) scale(0.996264)"/>
     </g>
    </g>
   </g>
   <g id="line2d_50">
    <path d="M 369.013431 320.4884 
L 369.628183 320.484953 
L 370.242935 320.202044 
L 370.857687 311.156568 
L 371.472439 268.591349 
L 372.087191 276.084145 
L 372.701943 314.205049 
L 373.316696 320.276403 
L 373.931448 320.481999 
L 375.775704 320.465255 
L 376.390456 319.335094 
L 377.005208 299.079848 
L 377.619961 229.271095 
L 378.234713 246.074056 
L 378.849465 307.56886 
L 379.464217 319.781003 
L 380.078969 320.458361 
L 381.308473 320.475843 
L 381.923225 320.371937 
L 382.537978 317.911436 
L 383.15273 291.097807 
L 383.767482 223.685292 
L 384.382234 243.369056 
L 384.996986 304.151539 
L 385.611738 319.042336 
L 386.22649 320.356179 
L 386.841243 320.462055 
L 387.455995 320.436694 
L 388.070747 320.044461 
L 388.685499 315.233274 
L 389.300251 282.15156 
L 389.915003 221.588461 
L 390.529755 243.0012 
L 391.144507 299.758191 
L 391.75926 317.715935 
L 392.374012 320.087058 
L 392.988764 320.335989 
L 393.603516 320.246364 
L 394.218268 319.257288 
L 394.83302 311.717463 
L 395.447772 278.163494 
L 396.062525 232.225026 
L 396.677277 250.791187 
L 397.292029 297.339055 
L 397.906781 315.724242 
L 398.521533 319.419795 
L 399.136285 319.974042 
L 399.751037 319.69778 
L 400.365789 317.789063 
L 400.980542 308.036929 
L 402.210046 249.801865 
L 402.824798 263.528768 
L 403.43955 296.778652 
L 404.054302 313.423046 
L 404.669054 318.094872 
L 405.283807 318.991614 
L 405.898559 318.465436 
L 406.513311 315.45709 
L 407.128063 305.300413 
L 407.742815 283.955385 
L 408.357567 266.926885 
L 408.972319 276.254039 
L 409.587071 297.699278 
L 410.201824 311.154598 
L 410.816576 316.072646 
L 411.431328 317.251067 
L 412.04608 316.360727 
L 412.660832 312.806505 
L 413.275584 304.040985 
L 413.890336 290.505888 
L 414.505089 282.299047 
L 415.119841 287.540385 
L 415.734593 299.942611 
L 416.349345 309.122278 
L 416.964097 313.495928 
L 417.578849 314.759542 
L 418.193601 313.715805 
L 418.808353 310.203933 
L 419.423106 303.891035 
L 420.037858 296.323141 
L 420.65261 292.56874 
L 421.267362 295.608849 
L 422.496866 307.707237 
L 423.111618 310.885477 
L 423.72637 311.867413 
L 424.341123 310.818505 
L 424.955875 308.395183 
L 426.185379 300.911497 
L 426.800131 299.542992 
L 427.414883 301.110198 
L 428.644388 306.977926 
L 429.25914 308.829519 
L 429.873892 309.380565 
L 430.488644 308.686464 
L 432.3329 304.452915 
L 432.947652 304.270218 
L 433.562405 304.898331 
L 434.177157 306.13683 
L 434.791909 307.000579 
L 435.406661 307.660455 
L 436.021413 307.943119 
L 436.636165 307.774456 
L 437.250917 307.308849 
L 438.480422 306.817882 
L 440.324678 307.401429 
L 441.554182 307.852016 
L 442.168934 307.875407 
L 442.783687 308.041854 
L 443.398439 308.060813 
L 445.242695 308.4853 
L 445.857447 308.516324 
L 448.931208 309.449261 
L 449.54596 309.469206 
L 450.775464 308.997936 
L 451.390216 308.925054 
L 452.004969 309.102826 
L 453.234473 310.572036 
L 453.849225 311.362903 
L 454.463977 311.827771 
L 455.078729 311.881693 
L 455.693481 311.285096 
L 456.922986 309.070818 
L 457.537738 308.59093 
L 458.15249 309.311377 
L 458.767242 310.810379 
L 459.381994 312.645476 
L 459.996746 313.934696 
L 460.611498 314.585955 
L 461.226251 314.311663 
L 461.841003 313.118715 
L 463.070507 308.633526 
L 463.685259 307.657008 
L 464.300011 308.879995 
L 465.529516 314.627074 
L 466.144268 316.359249 
L 466.75902 317.001151 
L 467.373772 316.653978 
L 467.988524 315.002317 
L 468.603276 311.780742 
L 469.218028 307.829856 
L 469.83278 306.075029 
L 470.447533 308.591176 
L 471.062285 313.11256 
L 471.677037 316.635265 
L 472.291789 318.255162 
L 472.906541 318.742929 
L 473.521293 318.316718 
L 474.136045 316.715287 
L 474.750798 312.746919 
L 475.36555 306.774547 
L 475.980302 303.991248 
L 476.595054 308.177522 
L 477.209806 314.56281 
L 477.824558 318.151503 
L 478.43931 319.468793 
L 479.054062 319.758597 
L 479.668815 319.471009 
L 480.283567 318.098565 
L 480.898319 313.772928 
L 481.513071 305.938621 
L 482.127823 302.147041 
L 483.357327 316.177045 
L 483.97208 319.340019 
L 484.586832 320.12079 
L 485.201584 320.254243 
L 485.816336 320.08558 
L 486.431088 319.130483 
L 487.04584 314.989021 
L 487.660592 305.300166 
L 488.275344 300.611105 
L 489.504849 317.722337 
L 490.119601 320.003835 
L 490.734353 320.382525 
L 491.349105 320.424136 
L 491.963857 320.346576 
L 492.578609 319.763275 
L 493.193361 316.135187 
L 493.808114 305.444699 
L 494.422866 300.36636 
L 495.037618 311.292975 
L 495.65237 318.872196 
L 496.267122 320.317768 
L 496.881874 320.46107 
L 498.111379 320.458854 
L 498.726131 320.215832 
L 499.340883 317.915375 
L 499.955635 309.15995 
L 500.570387 305.082013 
L 501.185139 314.816665 
L 501.799891 319.827539 
L 502.414643 320.450975 
L 504.2589 320.483722 
L 504.873652 320.423151 
L 505.488404 319.547338 
L 506.103156 315.232289 
L 506.717908 313.325296 
L 507.332661 318.365716 
L 507.947413 320.334265 
L 508.562165 320.485446 
L 511.635925 320.403946 
L 512.250678 319.869889 
L 512.86543 319.684976 
L 513.480182 320.306196 
L 514.094934 320.481752 
L 514.094934 320.481752 
" clip-path="url(#p06fbcee52e)" style="fill: none; stroke: #1f77b4; stroke-width: 1.5; stroke-linecap: square"/>
   </g>
   <g id="line2d_51">
    <path d="M 369.594779 309.465328 
L 375.785204 300.595706 
L 381.97563 298.367432 
L 388.166055 296.410032 
L 394.35648 296.946182 
L 400.546905 299.116237 
L 406.737331 301.507335 
L 412.927756 303.81048 
L 419.118181 305.183975 
L 425.308606 305.999998 
L 431.499032 306.663248 
L 437.689457 307.330874 
L 443.879882 308.220081 
L 450.070307 309.280889 
L 456.260733 310.588487 
L 462.451158 311.75055 
L 468.641583 312.838279 
L 474.832009 313.617454 
L 481.022434 314.282782 
L 487.212859 314.807953 
L 493.403284 315.366477 
L 499.59371 316.911109 
L 505.784135 318.927754 
L 511.97456 320.319686 
" clip-path="url(#p06fbcee52e)" style="fill: none; stroke: #ff7f0e; stroke-width: 1.5; stroke-linecap: square"/>
   </g>
   <g id="line2d_52">
    <path d="M 320.837519 320.488647 
L 352.096102 320.381566 
L 355.773582 320.12952 
L 358.225236 319.766865 
L 360.370432 319.244411 
L 362.209173 318.594184 
L 364.047913 317.718506 
L 365.886653 316.590233 
L 367.725393 315.197343 
L 369.87059 313.249459 
L 372.322244 310.663041 
L 375.999724 306.369783 
L 379.677204 302.157759 
L 381.822401 300.001174 
L 383.661141 298.429962 
L 385.499882 297.161759 
L 387.032165 296.353908 
L 388.564449 295.776053 
L 390.096732 295.422375 
L 391.629015 295.279603 
L 393.467756 295.359393 
L 395.306496 295.67431 
L 397.451693 296.278133 
L 400.209803 297.31552 
L 405.11311 299.476193 
L 410.016417 301.549442 
L 413.693898 302.854128 
L 417.371378 303.90347 
L 421.355315 304.783936 
L 426.258622 305.613997 
L 442.500827 308.166884 
L 449.855788 309.686538 
L 462.114056 312.247704 
L 467.630276 313.146865 
L 473.146497 313.810211 
L 479.582087 314.340507 
L 490.920985 315.237137 
L 495.824292 315.88337 
L 500.727599 316.75381 
L 515.743977 319.616104 
L 520.034371 320.070711 
L 524.937678 320.345658 
L 531.679726 320.468284 
L 551.599411 320.488646 
L 566.615789 320.488647 
L 566.615789 320.488647 
" clip-path="url(#p06fbcee52e)" style="fill: none; stroke-dasharray: 1.2,1.2; stroke-dashoffset: 0; stroke: #008000; stroke-width: 1.5"/>
   </g>
   <g id="patch_13">
    <path d="M 321.143975 320.488647 
L 321.143975 231.582632 
" style="fill: none; stroke: #000000; stroke-width: 0.8; stroke-linejoin: miter; stroke-linecap: square"/>
   </g>
   <g id="patch_14">
    <path d="M 566.309332 320.488647 
L 566.309332 231.582632 
" style="fill: none; stroke: #000000; stroke-width: 0.8; stroke-linejoin: miter; stroke-linecap: square"/>
   </g>
   <g id="patch_15">
    <path d="M 321.143975 320.488647 
L 566.309332 320.488647 
" style="fill: none; stroke: #000000; stroke-width: 0.8; stroke-linejoin: miter; stroke-linecap: square"/>
   </g>
   <g id="patch_16">
    <path d="M 321.143975 231.582632 
L 566.309332 231.582632 
" style="fill: none; stroke: #000000; stroke-width: 0.8; stroke-linejoin: miter; stroke-linecap: square"/>
   </g>
   <g id="text_49">
    <!-- b) $\lambda = -0.25$ -->
    <g transform="translate(474.372323 255.290902) scale(0.1 -0.1)">
     <use xlink:href="#CMSS17-62" transform="scale(0.996264)"/>
     <use xlink:href="#CMSS17-29" transform="translate(48.204943 0) scale(0.996264)"/>
     <use xlink:href="#CMMI12-15" transform="translate(115.86797 0) scale(0.996264)"/>
     <use xlink:href="#CMR17-3d" transform="translate(200.446051 0) scale(0.996264)"/>
     <use xlink:href="#CMSY10-0" transform="translate(299.834848 0) scale(0.996264)"/>
     <use xlink:href="#CMR17-30" transform="translate(377.322315 0) scale(0.996264)"/>
     <use xlink:href="#CMMI12-3a" transform="translate(423.012793 0) scale(0.996264)"/>
     <use xlink:href="#CMR17-32" transform="translate(450.10997 0) scale(0.996264)"/>
     <use xlink:href="#CMR17-35" transform="translate(495.800447 0) scale(0.996264)"/>
    </g>
   </g>
  </g>
  <g id="axes_4">
   <g id="patch_17">
    <path d="M 605.543975 320.488647 
L 850.709332 320.488647 
L 850.709332 231.582632 
L 605.543975 231.582632 
z
" style="fill: #ffffff"/>
   </g>
   <g id="matplotlib.axis_7">
    <g id="xtick_26">
     <g id="line2d_53">
      <g>
       <use xlink:href="#m9ce4fbdce9" x="605.543975" y="320.488647" style="stroke: #000000; stroke-width: 0.8"/>
      </g>
     </g>
     <g id="text_50">
      <!-- $\mathdefault{−2.0}$ -->
      <g transform="translate(595.304564 334.407145) scale(0.1 -0.1)">
       <use xlink:href="#CMSY10-0" transform="scale(0.996264)"/>
       <use xlink:href="#CMR17-32" transform="translate(77.487468 0) scale(0.996264)"/>
       <use xlink:href="#CMMI12-3a" transform="translate(123.177945 0) scale(0.996264)"/>
       <use xlink:href="#CMR17-30" transform="translate(150.275122 0) scale(0.996264)"/>
      </g>
     </g>
    </g>
    <g id="xtick_27">
     <g id="line2d_54">
      <g>
       <use xlink:href="#m9ce4fbdce9" x="636.189645" y="320.488647" style="stroke: #000000; stroke-width: 0.8"/>
      </g>
     </g>
     <g id="text_51">
      <!-- $\mathdefault{−1.5}$ -->
      <g transform="translate(625.950234 334.407145) scale(0.1 -0.1)">
       <use xlink:href="#CMSY10-0" transform="scale(0.996264)"/>
       <use xlink:href="#CMR17-31" transform="translate(77.487468 0) scale(0.996264)"/>
       <use xlink:href="#CMMI12-3a" transform="translate(123.177945 0) scale(0.996264)"/>
       <use xlink:href="#CMR17-35" transform="translate(150.275122 0) scale(0.996264)"/>
      </g>
     </g>
    </g>
    <g id="xtick_28">
     <g id="line2d_55">
      <g>
       <use xlink:href="#m9ce4fbdce9" x="666.835315" y="320.488647" style="stroke: #000000; stroke-width: 0.8"/>
      </g>
     </g>
     <g id="text_52">
      <!-- $\mathdefault{−1.0}$ -->
      <g transform="translate(656.595903 334.407145) scale(0.1 -0.1)">
       <use xlink:href="#CMSY10-0" transform="scale(0.996264)"/>
       <use xlink:href="#CMR17-31" transform="translate(77.487468 0) scale(0.996264)"/>
       <use xlink:href="#CMMI12-3a" transform="translate(123.177945 0) scale(0.996264)"/>
       <use xlink:href="#CMR17-30" transform="translate(150.275122 0) scale(0.996264)"/>
      </g>
     </g>
    </g>
    <g id="xtick_29">
     <g id="line2d_56">
      <g>
       <use xlink:href="#m9ce4fbdce9" x="697.480984" y="320.488647" style="stroke: #000000; stroke-width: 0.8"/>
      </g>
     </g>
     <g id="text_53">
      <!-- $\mathdefault{−0.5}$ -->
      <g transform="translate(687.241573 334.407145) scale(0.1 -0.1)">
       <use xlink:href="#CMSY10-0" transform="scale(0.996264)"/>
       <use xlink:href="#CMR17-30" transform="translate(77.487468 0) scale(0.996264)"/>
       <use xlink:href="#CMMI12-3a" transform="translate(123.177945 0) scale(0.996264)"/>
       <use xlink:href="#CMR17-35" transform="translate(150.275122 0) scale(0.996264)"/>
      </g>
     </g>
    </g>
    <g id="xtick_30">
     <g id="line2d_57">
      <g>
       <use xlink:href="#m9ce4fbdce9" x="728.126654" y="320.488647" style="stroke: #000000; stroke-width: 0.8"/>
      </g>
     </g>
     <g id="text_54">
      <!-- $\mathdefault{0.0}$ -->
      <g transform="translate(721.761614 334.407145) scale(0.1 -0.1)">
       <use xlink:href="#CMR17-30" transform="scale(0.996264)"/>
       <use xlink:href="#CMMI12-3a" transform="translate(45.690477 0) scale(0.996264)"/>
       <use xlink:href="#CMR17-30" transform="translate(72.787654 0) scale(0.996264)"/>
      </g>
     </g>
    </g>
    <g id="xtick_31">
     <g id="line2d_58">
      <g>
       <use xlink:href="#m9ce4fbdce9" x="758.772323" y="320.488647" style="stroke: #000000; stroke-width: 0.8"/>
      </g>
     </g>
     <g id="text_55">
      <!-- $\mathdefault{0.5}$ -->
      <g transform="translate(752.407284 334.407145) scale(0.1 -0.1)">
       <use xlink:href="#CMR17-30" transform="scale(0.996264)"/>
       <use xlink:href="#CMMI12-3a" transform="translate(45.690477 0) scale(0.996264)"/>
       <use xlink:href="#CMR17-35" transform="translate(72.787654 0) scale(0.996264)"/>
      </g>
     </g>
    </g>
    <g id="xtick_32">
     <g id="line2d_59">
      <g>
       <use xlink:href="#m9ce4fbdce9" x="789.417993" y="320.488647" style="stroke: #000000; stroke-width: 0.8"/>
      </g>
     </g>
     <g id="text_56">
      <!-- $\mathdefault{1.0}$ -->
      <g transform="translate(783.052954 334.407145) scale(0.1 -0.1)">
       <use xlink:href="#CMR17-31" transform="scale(0.996264)"/>
       <use xlink:href="#CMMI12-3a" transform="translate(45.690477 0) scale(0.996264)"/>
       <use xlink:href="#CMR17-30" transform="translate(72.787654 0) scale(0.996264)"/>
      </g>
     </g>
    </g>
    <g id="xtick_33">
     <g id="line2d_60">
      <g>
       <use xlink:href="#m9ce4fbdce9" x="820.063663" y="320.488647" style="stroke: #000000; stroke-width: 0.8"/>
      </g>
     </g>
     <g id="text_57">
      <!-- $\mathdefault{1.5}$ -->
      <g transform="translate(813.698623 334.407145) scale(0.1 -0.1)">
       <use xlink:href="#CMR17-31" transform="scale(0.996264)"/>
       <use xlink:href="#CMMI12-3a" transform="translate(45.690477 0) scale(0.996264)"/>
       <use xlink:href="#CMR17-35" transform="translate(72.787654 0) scale(0.996264)"/>
      </g>
     </g>
    </g>
    <g id="xtick_34">
     <g id="line2d_61">
      <g>
       <use xlink:href="#m9ce4fbdce9" x="850.709332" y="320.488647" style="stroke: #000000; stroke-width: 0.8"/>
      </g>
     </g>
     <g id="text_58">
      <!-- $\mathdefault{2.0}$ -->
      <g transform="translate(844.344293 334.407145) scale(0.1 -0.1)">
       <use xlink:href="#CMR17-32" transform="scale(0.996264)"/>
       <use xlink:href="#CMMI12-3a" transform="translate(45.690477 0) scale(0.996264)"/>
       <use xlink:href="#CMR17-30" transform="translate(72.787654 0) scale(0.996264)"/>
      </g>
     </g>
    </g>
    <g id="text_59">
     <!-- $x$ -->
     <g transform="translate(725.279694 347.262822) scale(0.1 -0.1)">
      <use xlink:href="#CMMI12-78" transform="scale(0.996264)"/>
     </g>
    </g>
   </g>
   <g id="matplotlib.axis_8">
    <g id="ytick_14">
     <g id="line2d_62">
      <g>
       <use xlink:href="#md8512d3f9e" x="605.543975" y="320.488647" style="stroke: #000000; stroke-width: 0.8"/>
      </g>
     </g>
     <g id="text_60">
      <!-- $\mathdefault{0}$ -->
      <g transform="translate(593.56264 323.947896) scale(0.1 -0.1)">
       <use xlink:href="#CMR17-30" transform="scale(0.996264)"/>
      </g>
     </g>
    </g>
    <g id="ytick_15">
     <g id="line2d_63">
      <g>
       <use xlink:href="#md8512d3f9e" x="605.543975" y="290.853308" style="stroke: #000000; stroke-width: 0.8"/>
      </g>
     </g>
     <g id="text_61">
      <!-- $\mathdefault{1}$ -->
      <g transform="translate(593.56264 294.312558) scale(0.1 -0.1)">
       <use xlink:href="#CMR17-31" transform="scale(0.996264)"/>
      </g>
     </g>
    </g>
    <g id="ytick_16">
     <g id="line2d_64">
      <g>
       <use xlink:href="#md8512d3f9e" x="605.543975" y="261.21797" style="stroke: #000000; stroke-width: 0.8"/>
      </g>
     </g>
     <g id="text_62">
      <!-- $\mathdefault{2}$ -->
      <g transform="translate(593.56264 264.677219) scale(0.1 -0.1)">
       <use xlink:href="#CMR17-32" transform="scale(0.996264)"/>
      </g>
     </g>
    </g>
    <g id="ytick_17">
     <g id="line2d_65">
      <g>
       <use xlink:href="#md8512d3f9e" x="605.543975" y="231.582632" style="stroke: #000000; stroke-width: 0.8"/>
      </g>
     </g>
     <g id="text_63">
      <!-- $\mathdefault{3}$ -->
      <g transform="translate(593.56264 235.041881) scale(0.1 -0.1)">
       <use xlink:href="#CMR17-33" transform="scale(0.996264)"/>
      </g>
     </g>
    </g>
    <g id="text_64">
     <!-- $f\left(x\right)$ -->
     <g transform="translate(587.07198 286.562144) rotate(-90) scale(0.1 -0.1)">
      <use xlink:href="#CMMI12-66" transform="scale(0.996264)"/>
      <use xlink:href="#CMR17-28" transform="translate(75.32471 0.003177) scale(0.996264)"/>
      <use xlink:href="#CMMI12-78" transform="translate(110.605478 0) scale(0.996264)"/>
      <use xlink:href="#CMR17-29" transform="translate(166.039537 0.003177) scale(0.996264)"/>
     </g>
    </g>
   </g>
   <g id="line2d_66">
    <path d="M 647.530075 320.488401 
L 648.146053 320.469479 
L 648.762031 318.067936 
L 649.378009 265.309662 
L 649.993987 166.9024 
L 650.609965 267.865771 
L 651.225943 317.964237 
L 651.841921 320.454735 
L 653.689855 320.483732 
L 654.305833 320.276088 
L 654.921811 308.061955 
L 655.537788 146.155698 
L 655.96085 -1 
M 656.315984 -1 
L 656.769744 186.70377 
L 657.385722 312.132022 
L 658.0017 320.302136 
L 658.617678 320.481766 
L 659.849634 320.468742 
L 660.465612 319.820746 
L 661.08159 299.940742 
L 662.230685 -1 
M 662.371678 -1 
L 662.929524 198.938791 
L 663.545502 310.254134 
L 664.16148 320.068444 
L 664.777458 320.457193 
L 666.009414 320.421562 
L 666.625392 319.264407 
L 667.24137 300.001683 
L 667.857348 195.380339 
L 668.473326 128.311833 
L 669.089304 247.871256 
L 669.705282 312.018493 
L 670.32126 319.902329 
L 670.937237 320.418613 
L 671.553215 320.452278 
L 672.169193 320.328183 
L 672.785171 318.689393 
L 673.401149 303.459385 
L 674.017127 248.20324 
L 674.633105 224.257838 
L 675.249083 281.02622 
L 675.865061 314.026128 
L 676.481039 319.760787 
L 677.097017 320.334081 
L 677.712995 320.377575 
L 678.328973 320.157891 
L 678.944951 318.380016 
L 679.560929 307.983566 
L 680.176907 282.792546 
L 680.792885 275.798016 
L 681.408863 300.139293 
L 682.024841 315.868384 
L 682.640819 319.630303 
L 683.256797 320.224484 
L 683.872775 320.265276 
L 684.488753 319.965974 
L 685.104731 318.33259 
L 685.720709 312.112363 
L 686.336686 301.480993 
L 686.952664 300.03412 
L 687.568642 309.92387 
L 688.18462 317.21549 
L 688.800598 319.571573 
L 689.416576 320.083925 
L 690.032554 320.116853 
L 690.648532 319.783394 
L 691.26451 318.482978 
L 691.880488 315.136593 
L 692.496466 311.16187 
L 693.112444 310.991332 
L 694.3444 318.140427 
L 694.960378 319.534467 
L 695.576356 319.951967 
L 696.192334 319.939926 
L 696.808312 319.64431 
L 697.42429 318.764342 
L 698.656246 315.606925 
L 699.272224 315.796139 
L 700.50418 318.778348 
L 701.120158 319.524392 
L 701.736135 319.837455 
L 702.352113 319.818288 
L 702.968091 319.577471 
L 703.584069 319.083548 
L 704.200047 318.353231 
L 704.816025 317.866927 
L 705.432003 317.998148 
L 706.663959 319.205677 
L 707.279937 319.59074 
L 707.895915 319.737197 
L 708.511893 319.751695 
L 709.127871 319.614085 
L 710.359827 319.076668 
L 710.975805 318.925542 
L 711.591783 318.972231 
L 713.439717 319.623177 
L 714.055695 319.732036 
L 715.287651 319.630303 
L 717.135584 319.472788 
L 718.36754 319.573785 
L 720.831452 319.726384 
L 737.462857 319.918547 
L 740.542747 319.886111 
L 741.774703 319.722698 
L 743.622637 319.918301 
L 744.854593 320.07729 
L 746.086549 320.013154 
L 747.934482 319.550931 
L 748.55046 319.559532 
L 750.398394 320.131843 
L 751.63035 320.170669 
L 752.246328 320.042151 
L 754.094262 319.116231 
L 754.71024 319.220913 
L 755.942196 320.005045 
L 756.558174 320.222764 
L 757.79013 320.254218 
L 758.406108 320.051734 
L 759.022086 319.628583 
L 760.254042 318.18171 
L 760.87002 318.553995 
L 761.485998 319.45485 
L 762.101975 320.066724 
L 762.717953 320.289112 
L 763.333931 320.372661 
L 763.949909 320.32892 
L 764.565887 320.143392 
L 765.181865 319.477212 
L 766.413821 316.829198 
L 767.029799 317.649699 
L 767.645777 319.326823 
L 768.261755 320.145604 
L 768.877733 320.387651 
L 770.109689 320.405589 
L 770.725667 320.189344 
L 771.341645 319.187985 
L 772.573601 314.062496 
L 773.189579 316.238703 
L 773.805557 319.217227 
L 774.421535 320.258641 
L 775.037513 320.4395 
L 776.269469 320.427705 
L 776.885447 320.185167 
L 777.501424 318.503374 
L 778.73338 306.8962 
L 779.965336 318.879345 
L 780.581314 320.310491 
L 781.197292 320.458667 
L 782.429248 320.458176 
L 783.045226 320.261344 
L 783.661204 318.159594 
L 784.89316 298.952897 
L 785.509138 310.660576 
L 786.125116 319.15948 
L 786.741094 320.393302 
L 787.97305 320.483978 
L 788.589028 320.477834 
L 789.205006 320.295501 
L 789.820984 317.283312 
L 791.05294 283.256488 
L 791.668918 306.976063 
L 792.284896 319.30569 
L 792.900873 320.446381 
L 794.748807 320.484469 
L 795.364785 320.378067 
L 795.980763 317.22409 
L 796.596741 292.447621 
L 797.212719 274.466883 
L 797.828697 307.543459 
L 798.444675 319.779954 
L 799.060653 320.47464 
L 801.524565 320.481275 
L 802.140543 320.056157 
L 802.756521 316.019264 
L 803.372499 313.55383 
L 803.988477 319.014743 
L 804.604455 320.436551 
L 804.604455 320.436551 
" clip-path="url(#pee10756773)" style="fill: none; stroke: #1f77b4; stroke-width: 1.5; stroke-linecap: square"/>
   </g>
   <g id="line2d_67">
    <path d="M 648.478558 293.984385 
L 654.668984 249.063716 
L 660.859409 252.517847 
L 667.049834 278.62543 
L 673.24026 297.184903 
L 679.430685 308.213919 
L 685.62111 313.947037 
L 691.811535 316.850224 
L 698.001961 318.251937 
L 704.192386 318.99392 
L 710.382811 319.372847 
L 716.573236 319.597508 
L 722.763662 319.730671 
L 728.954087 319.811313 
L 735.144512 319.865938 
L 741.334937 319.880682 
L 747.525363 319.860754 
L 753.715788 319.776861 
L 759.906213 319.565501 
L 766.096639 319.275163 
L 772.287064 318.692921 
L 778.477489 317.141369 
L 784.667914 315.700877 
L 790.85834 312.79901 
L 797.048765 311.422654 
L 803.23919 319.158235 
" clip-path="url(#pee10756773)" style="fill: none; stroke: #ff7f0e; stroke-width: 1.5; stroke-linecap: square"/>
   </g>
   <g id="line2d_68">
    <path d="M 605.237519 320.488637 
L 620.253897 320.379243 
L 623.012007 320.136377 
L 624.850747 319.781393 
L 626.383031 319.283801 
L 627.915314 318.520652 
L 629.141141 317.658547 
L 630.366968 316.519812 
L 631.592795 315.056838 
L 632.818621 313.227947 
L 634.044448 311.002424 
L 635.270275 308.365558 
L 636.802558 304.501981 
L 638.641299 299.125303 
L 641.092952 291.093568 
L 644.770432 278.960146 
L 646.302716 274.567001 
L 647.528543 271.563621 
L 648.75437 269.113897 
L 649.67374 267.680759 
L 650.59311 266.614891 
L 651.51248 265.925575 
L 652.125393 265.675893 
L 652.738307 265.592176 
L 653.35122 265.671049 
L 654.27059 266.08338 
L 655.18996 266.829024 
L 656.10933 267.881151 
L 657.335157 269.706631 
L 658.560984 271.940107 
L 660.093267 275.174747 
L 662.544921 280.983741 
L 667.754685 293.568149 
L 669.899882 298.160682 
L 672.045078 302.209479 
L 673.883819 305.219016 
L 675.722559 307.810147 
L 677.561299 310.00874 
L 679.400039 311.851549 
L 681.238779 313.380498 
L 683.07752 314.63851 
L 685.222716 315.818449 
L 687.367913 316.74468 
L 689.819567 317.557817 
L 692.577677 318.233986 
L 695.948701 318.813512 
L 699.932638 319.263351 
L 705.142402 319.618572 
L 712.497362 319.883951 
L 724.449174 320.068532 
L 743.449489 320.126434 
L 757.546497 319.974506 
L 765.820828 319.681558 
L 771.949961 319.25823 
L 777.159725 318.687473 
L 782.369489 317.887725 
L 796.16004 315.567144 
L 798.918151 315.44796 
L 801.369804 315.545807 
L 803.821458 315.847037 
L 806.579568 316.406347 
L 810.257048 317.396831 
L 816.386182 319.068743 
L 819.757206 319.726009 
L 823.12823 320.138208 
L 827.112167 320.376695 
L 833.241301 320.477238 
L 851.015789 320.488646 
L 851.015789 320.488646 
" clip-path="url(#pee10756773)" style="fill: none; stroke-dasharray: 1.2,1.2; stroke-dashoffset: 0; stroke: #008000; stroke-width: 1.5"/>
   </g>
   <g id="patch_18">
    <path d="M 605.543975 320.488647 
L 605.543975 231.582632 
" style="fill: none; stroke: #000000; stroke-width: 0.8; stroke-linejoin: miter; stroke-linecap: square"/>
   </g>
   <g id="patch_19">
    <path d="M 850.709332 320.488647 
L 850.709332 231.582632 
" style="fill: none; stroke: #000000; stroke-width: 0.8; stroke-linejoin: miter; stroke-linecap: square"/>
   </g>
   <g id="patch_20">
    <path d="M 605.543975 320.488647 
L 850.709332 320.488647 
" style="fill: none; stroke: #000000; stroke-width: 0.8; stroke-linejoin: miter; stroke-linecap: square"/>
   </g>
   <g id="patch_21">
    <path d="M 605.543975 231.582632 
L 850.709332 231.582632 
" style="fill: none; stroke: #000000; stroke-width: 0.8; stroke-linejoin: miter; stroke-linecap: square"/>
   </g>
   <g id="text_65">
    <!-- c) $\lambda = 0.5$ -->
    <g transform="translate(758.772323 255.290902) scale(0.1 -0.1)">
     <use xlink:href="#CMSS17-63" transform="scale(0.996264)"/>
     <use xlink:href="#CMSS17-29" transform="translate(41.638822 0) scale(0.996264)"/>
     <use xlink:href="#CMMI12-15" transform="translate(109.301849 0) scale(0.996264)"/>
     <use xlink:href="#CMR17-3d" transform="translate(193.87993 0) scale(0.996264)"/>
     <use xlink:href="#CMR17-30" transform="translate(293.268727 0) scale(0.996264)"/>
     <use xlink:href="#CMMI12-3a" transform="translate(338.959204 0) scale(0.996264)"/>
     <use xlink:href="#CMR17-35" transform="translate(366.056381 0) scale(0.996264)"/>
    </g>
   </g>
  </g>
  <g id="legend_1">
   <g id="patch_22">
    <path d="M 27.92 216 
L 138.25144 216 
Q 140.25144 216 140.25144 214 
L 140.25144 173.188465 
Q 140.25144 171.188465 138.25144 171.188465 
L 27.92 171.188465 
Q 25.92 171.188465 25.92 173.188465 
L 25.92 214 
Q 25.92 216 27.92 216 
z
" style="fill: #ffffff; opacity: 0.8; stroke: #cccccc; stroke-linejoin: miter"/>
   </g>
   <g id="line2d_69">
    <path d="M 29.92 178.688465 
L 39.92 178.688465 
L 49.92 178.688465 
" style="fill: none; stroke: #1f77b4; stroke-width: 1.5; stroke-linecap: square"/>
   </g>
   <g id="text_66">
    <!-- Simulated PDF -->
    <g transform="translate(57.92 182.188465) scale(0.1 -0.1)">
     <defs>
      <path id="CMSS17-53" d="M 2797 4169 
C 2515 4334 2208 4480 1690 4480 
C 864 4480 333 3879 333 3266 
C 333 3025 403 2753 653 2475 
C 902 2196 1184 2121 1542 2033 
C 1690 1994 1939 1924 1984 1906 
C 2342 1767 2515 1444 2515 1140 
C 2515 742 2202 318 1645 318 
C 1453 318 890 318 358 819 
L 269 318 
C 794 -64 1363 -128 1651 -128 
C 2438 -128 3002 488 3002 1186 
C 3002 1440 2925 1763 2656 2061 
C 2394 2347 2163 2410 1638 2549 
C 1338 2626 1146 2677 986 2873 
C 877 3013 819 3146 819 3317 
C 819 3673 1126 4060 1690 4060 
C 1971 4060 2336 4002 2707 3660 
L 2797 4169 
z
" transform="scale(0.015625)"/>
      <path id="CMSS17-69" d="M 979 4183 
L 442 4183 
L 442 3648 
L 979 3648 
L 979 4183 
z
M 947 2739 
L 474 2739 
L 474 0 
L 947 0 
L 947 2739 
z
" transform="scale(0.015625)"/>
      <path id="CMSS17-6d" d="M 4288 1877 
C 4288 2308 4179 2816 3462 2816 
C 2982 2816 2694 2516 2566 2331 
C 2451 2670 2182 2816 1798 2816 
C 1363 2816 1088 2568 941 2389 
L 941 2758 
L 474 2758 
L 474 0 
L 960 0 
L 960 1559 
C 960 1939 1101 2428 1555 2428 
C 2138 2428 2138 2016 2138 1829 
L 2138 0 
L 2624 0 
L 2624 1559 
C 2624 1939 2765 2428 3219 2428 
C 3802 2428 3802 2016 3802 1829 
L 3802 0 
L 4288 0 
L 4288 1877 
z
" transform="scale(0.015625)"/>
      <path id="CMSS17-75" d="M 2618 2739 
L 2131 2739 
L 2131 972 
C 2131 498 1786 306 1421 306 
C 998 306 960 447 960 709 
L 960 2739 
L 474 2739 
L 474 678 
C 474 179 646 -64 1088 -64 
C 1306 -64 1798 -13 2144 306 
L 2144 0 
L 2618 0 
L 2618 2739 
z
" transform="scale(0.015625)"/>
      <path id="CMSS17-6c" d="M 947 4416 
L 474 4416 
L 474 0 
L 947 0 
L 947 4416 
z
" transform="scale(0.015625)"/>
      <path id="CMSS17-74" d="M 1069 2368 
L 1901 2368 
L 1901 2737 
L 1069 2737 
L 1069 3520 
L 614 3520 
L 614 2737 
L 109 2737 
L 109 2368 
L 602 2368 
L 602 749 
C 602 384 685 -64 1107 -64 
C 1427 -64 1722 25 2003 172 
L 1901 548 
C 1747 414 1562 337 1363 337 
C 1082 337 1069 696 1069 856 
L 1069 2368 
z
" transform="scale(0.015625)"/>
      <path id="CMSS17-65" d="M 2502 1377 
C 2502 1590 2490 2003 2285 2345 
C 2061 2713 1696 2816 1421 2816 
C 755 2816 192 2188 192 1375 
C 192 582 774 -64 1510 -64 
C 1798 -64 2150 19 2470 248 
C 2470 274 2458 414 2451 420 
C 2451 433 2432 630 2432 656 
C 2125 407 1773 325 1517 325 
C 1107 325 666 667 646 1377 
L 2502 1377 
z
M 698 1728 
C 781 2084 1062 2421 1421 2421 
C 1517 2421 1965 2421 2080 1728 
L 698 1728 
z
" transform="scale(0.015625)"/>
      <path id="CMSS17-64" d="M 2611 4416 
L 2138 4416 
L 2138 2438 
C 1939 2603 1613 2756 1254 2756 
C 672 2756 211 2131 211 1347 
C 211 562 666 -64 1235 -64 
C 1677 -64 1971 172 2125 306 
L 2125 -13 
L 2611 -13 
L 2611 4416 
z
M 2125 836 
C 2125 747 2125 653 1926 482 
C 1798 375 1645 325 1498 325 
C 1152 325 698 576 698 1340 
C 698 2134 1210 2368 1562 2368 
C 1798 2368 1990 2254 2125 2065 
L 2125 836 
z
" transform="scale(0.015625)"/>
      <path id="CMSS17-50" d="M 2106 1856 
C 2874 1856 3501 2453 3501 3158 
C 3501 3850 2899 4453 2067 4453 
L 570 4453 
L 570 0 
L 1107 0 
L 1107 1856 
L 2106 1856 
z
M 1926 4096 
C 2669 4096 2995 3627 2995 3157 
C 2995 2720 2694 2226 1926 2226 
L 1094 2226 
L 1094 4096 
L 1926 4096 
z
" transform="scale(0.015625)"/>
      <path id="CMSS17-44" d="M 570 4416 
L 570 0 
L 2144 0 
C 3194 0 4000 980 4000 2170 
C 4000 3398 3194 4416 2144 4416 
L 570 4416 
z
M 1094 357 
L 1094 4059 
L 2003 4059 
C 2861 4059 3475 3277 3475 2170 
C 3475 1107 2867 357 2003 357 
L 1094 357 
z
" transform="scale(0.015625)"/>
      <path id="CMSS17-46" d="M 2918 1984 
L 2918 2373 
L 1101 2373 
L 1101 3968 
L 1882 3968 
C 1958 3968 2035 3968 2112 3968 
L 3168 3968 
L 3168 4375 
L 563 4375 
L 563 -32 
L 1101 -32 
L 1101 1984 
L 2918 1984 
z
" transform="scale(0.015625)"/>
     </defs>
     <use xlink:href="#CMSS17-53" transform="scale(0.996264)"/>
     <use xlink:href="#CMSS17-69" transform="translate(52.048516 0) scale(0.996264)"/>
     <use xlink:href="#CMSS17-6d" transform="translate(74.229239 0) scale(0.996264)"/>
     <use xlink:href="#CMSS17-75" transform="translate(148.458494 0) scale(0.996264)"/>
     <use xlink:href="#CMSS17-6c" transform="translate(196.663437 0) scale(0.996264)"/>
     <use xlink:href="#CMSS17-61" transform="translate(218.84416 0) scale(0.996264)"/>
     <use xlink:href="#CMSS17-74" transform="translate(263.76608 0) scale(0.996264)"/>
     <use xlink:href="#CMSS17-65" transform="translate(297.597647 0) scale(0.996264)"/>
     <use xlink:href="#CMSS17-64" transform="translate(339.236469 0) scale(0.996264)"/>
     <use xlink:href="#CMSS17-50" transform="translate(418.670525 0) scale(0.996264)"/>
     <use xlink:href="#CMSS17-44" transform="translate(478.406111 0) scale(0.996264)"/>
     <use xlink:href="#CMSS17-46" transform="translate(545.948953 0) scale(0.996264)"/>
    </g>
   </g>
   <g id="line2d_70">
    <path d="M 29.92 192.625643 
L 39.92 192.625643 
L 49.92 192.625643 
" style="fill: none; stroke: #ff7f0e; stroke-width: 1.5; stroke-linecap: square"/>
   </g>
   <g id="text_67">
    <!-- Simulated PDF -->
    <g transform="translate(57.92 196.125643) scale(0.1 -0.1)">
     <use xlink:href="#CMSS17-53" transform="scale(0.996264)"/>
     <use xlink:href="#CMSS17-69" transform="translate(52.048516 0) scale(0.996264)"/>
     <use xlink:href="#CMSS17-6d" transform="translate(74.229239 0) scale(0.996264)"/>
     <use xlink:href="#CMSS17-75" transform="translate(148.458494 0) scale(0.996264)"/>
     <use xlink:href="#CMSS17-6c" transform="translate(196.663437 0) scale(0.996264)"/>
     <use xlink:href="#CMSS17-61" transform="translate(218.84416 0) scale(0.996264)"/>
     <use xlink:href="#CMSS17-74" transform="translate(263.76608 0) scale(0.996264)"/>
     <use xlink:href="#CMSS17-65" transform="translate(297.597647 0) scale(0.996264)"/>
     <use xlink:href="#CMSS17-64" transform="translate(339.236469 0) scale(0.996264)"/>
     <use xlink:href="#CMSS17-50" transform="translate(418.670525 0) scale(0.996264)"/>
     <use xlink:href="#CMSS17-44" transform="translate(478.406111 0) scale(0.996264)"/>
     <use xlink:href="#CMSS17-46" transform="translate(545.948953 0) scale(0.996264)"/>
    </g>
   </g>
   <g id="line2d_71">
    <path d="M 29.92 206.562822 
L 39.92 206.562822 
L 49.92 206.562822 
" style="fill: none; stroke-dasharray: 1.2,1.2; stroke-dashoffset: 0; stroke: #008000; stroke-width: 1.5"/>
   </g>
   <g id="text_68">
    <!-- Homogenized PDF -->
    <g transform="translate(57.92 210.062822) scale(0.1 -0.1)">
     <defs>
      <path id="CMSS17-48" d="M 3674 4416 
L 3136 4416 
L 3136 2501 
L 1101 2501 
L 1101 4416 
L 563 4416 
L 563 0 
L 1101 0 
L 1101 2112 
L 3136 2112 
L 3136 0 
L 3674 0 
L 3674 4416 
z
" transform="scale(0.015625)"/>
      <path id="CMSS17-6f" d="M 2829 1356 
C 2829 2176 2221 2816 1504 2816 
C 768 2816 173 2157 173 1356 
C 173 544 787 -64 1498 -64 
C 2227 -64 2829 563 2829 1356 
z
M 1504 337 
C 1050 337 659 709 659 1408 
C 659 2151 1114 2427 1498 2427 
C 1914 2427 2342 2126 2342 1408 
C 2342 683 1926 337 1504 337 
z
" transform="scale(0.015625)"/>
      <path id="CMSS17-67" d="M 2848 2808 
C 2483 2808 2170 2738 1914 2617 
C 1702 2777 1485 2808 1338 2808 
C 781 2808 358 2349 358 1814 
C 358 1468 550 1207 563 1195 
C 448 1035 384 863 384 672 
C 384 448 474 289 544 200 
C 211 -3 166 -314 166 -435 
C 166 -898 749 -1280 1498 -1280 
C 2253 -1280 2835 -898 2835 -428 
C 2835 448 1856 448 1587 448 
L 1069 448 
C 973 448 717 448 717 791 
C 717 921 774 1004 781 1010 
C 877 940 1075 832 1338 832 
C 1869 832 2310 1278 2310 1827 
C 2310 2132 2170 2355 2112 2432 
L 2131 2432 
C 2150 2432 2419 2432 2515 2432 
C 2720 2432 2739 2429 2918 2419 
L 2848 2808 
z
M 1338 1182 
C 1120 1182 813 1315 813 1823 
C 813 2375 1165 2464 1331 2464 
C 1549 2464 1856 2331 1856 1823 
C 1856 1271 1504 1182 1338 1182 
z
M 1581 -10 
C 1734 -10 2381 -10 2381 -442 
C 2381 -714 1984 -929 1504 -929 
C 1018 -929 621 -720 621 -435 
C 621 -403 621 -10 1062 -10 
L 1581 -10 
z
" transform="scale(0.015625)"/>
      <path id="CMSS17-6e" d="M 2618 1877 
C 2618 2283 2522 2816 1798 2816 
C 1389 2816 1120 2606 941 2389 
L 941 2758 
L 474 2758 
L 474 0 
L 960 0 
L 960 1559 
C 960 1964 1114 2428 1549 2428 
C 2112 2428 2131 2048 2131 1829 
L 2131 0 
L 2618 0 
L 2618 1877 
z
" transform="scale(0.015625)"/>
      <path id="CMSS17-7a" d="M 2400 2502 
L 2400 2750 
L 250 2750 
L 250 2368 
L 1069 2368 
C 1146 2368 1222 2368 1299 2368 
L 1747 2368 
L 166 261 
L 166 0 
L 2419 0 
L 2419 395 
L 1549 395 
C 1472 395 1395 395 1318 395 
L 826 395 
L 2400 2502 
z
" transform="scale(0.015625)"/>
     </defs>
     <use xlink:href="#CMSS17-48" transform="scale(0.996264)"/>
     <use xlink:href="#CMSS17-6f" transform="translate(66.061519 0) scale(0.996264)"/>
     <use xlink:href="#CMSS17-6d" transform="translate(112.905143 0) scale(0.996264)"/>
     <use xlink:href="#CMSS17-6f" transform="translate(187.134397 0) scale(0.996264)"/>
     <use xlink:href="#CMSS17-67" transform="translate(233.978021 0) scale(0.996264)"/>
     <use xlink:href="#CMSS17-65" transform="translate(280.821644 0) scale(0.996264)"/>
     <use xlink:href="#CMSS17-6e" transform="translate(322.460466 0) scale(0.996264)"/>
     <use xlink:href="#CMSS17-69" transform="translate(370.665409 0) scale(0.996264)"/>
     <use xlink:href="#CMSS17-7a" transform="translate(392.846132 0) scale(0.996264)"/>
     <use xlink:href="#CMSS17-65" transform="translate(433.524004 0) scale(0.996264)"/>
     <use xlink:href="#CMSS17-64" transform="translate(475.162826 0) scale(0.996264)"/>
     <use xlink:href="#CMSS17-50" transform="translate(554.596882 0) scale(0.996264)"/>
     <use xlink:href="#CMSS17-44" transform="translate(614.332468 0) scale(0.996264)"/>
     <use xlink:href="#CMSS17-46" transform="translate(681.87531 0) scale(0.996264)"/>
    </g>
   </g>
  </g>
 </g>
 <defs>
  <clipPath id="p7a4dac3aed">
   <rect x="176.138231" y="10.8" width="535.176847" height="177.812029"/>
  </clipPath>
  <clipPath id="p4b2ef7d186">
   <rect x="36.743975" y="231.582632" width="245.165357" height="88.906015"/>
  </clipPath>
  <clipPath id="p06fbcee52e">
   <rect x="321.143975" y="231.582632" width="245.165357" height="88.906015"/>
  </clipPath>
  <clipPath id="pee10756773">
   <rect x="605.543975" y="231.582632" width="245.165357" height="88.906015"/>
  </clipPath>
 </defs>
</svg>
