<?xml version="1.0" encoding="utf-8" standalone="no"?>
<!DOCTYPE svg PUBLIC "-//W3C//DTD SVG 1.1//EN"
  "http://www.w3.org/Graphics/SVG/1.1/DTD/svg11.dtd">
<svg xmlns:xlink="http://www.w3.org/1999/xlink" width="864pt" height="360pt" viewBox="0 0 864 360" xmlns="http://www.w3.org/2000/svg" version="1.1">
 <metadata>
  <rdf:RDF xmlns:dc="http://purl.org/dc/elements/1.1/" xmlns:cc="http://creativecommons.org/ns#" xmlns:rdf="http://www.w3.org/1999/02/22-rdf-syntax-ns#">
   <cc:Work>
    <dc:type rdf:resource="http://purl.org/dc/dcmitype/StillImage"/>
    <dc:date>2024-11-24T23:17:54.855158</dc:date>
    <dc:format>image/svg+xml</dc:format>
    <dc:creator>
     <cc:Agent>
      <dc:title>Matplotlib v3.9.2, https://matplotlib.org/</dc:title>
     </cc:Agent>
    </dc:creator>
   </cc:Work>
  </rdf:RDF>
 </metadata>
 <defs>
  <style type="text/css">*{stroke-linejoin: round; stroke-linecap: butt}</style>
 </defs>
 <g id="figure_1">
  <g id="patch_1">
   <path d="M 0 360 
L 864 360 
L 864 0 
L 0 0 
z
" style="fill: #ffffff"/>
  </g>
  <g id="axes_1">
   <g id="patch_2">
    <path d="M 278.723859 188.612029 
L 608.729448 188.612029 
L 608.729448 10.8 
L 278.723859 10.8 
z
" style="fill: #ffffff"/>
   </g>
   <g id="matplotlib.axis_1">
    <g id="xtick_1">
     <g id="line2d_1">
      <defs>
       <path id="m3c13734502" d="M 0 0 
L 0 3.5 
" style="stroke: #000000; stroke-width: 0.8"/>
      </defs>
      <g>
       <use xlink:href="#m3c13734502" x="309.940604" y="188.612029" style="stroke: #000000; stroke-width: 0.8"/>
      </g>
     </g>
     <g id="text_1">
      <!-- $\mathdefault{−0.5}$ -->
      <g transform="translate(299.701193 202.530528) scale(0.1 -0.1)">
       <defs>
        <path id="CMSY10-0" d="M 4218 1472 
C 4326 1472 4442 1472 4442 1600 
C 4442 1728 4326 1728 4218 1728 
L 755 1728 
C 646 1728 531 1728 531 1600 
C 531 1472 646 1472 755 1472 
L 4218 1472 
z
" transform="scale(0.015625)"/>
        <path id="CMR17-30" d="M 2688 2025 
C 2688 2416 2682 3080 2413 3591 
C 2176 4039 1798 4198 1466 4198 
C 1158 4198 768 4058 525 3597 
C 269 3118 243 2524 243 2025 
C 243 1661 250 1106 448 619 
C 723 -39 1216 -128 1466 -128 
C 1760 -128 2208 -7 2470 600 
C 2662 1042 2688 1559 2688 2025 
z
M 1466 -26 
C 1056 -26 813 325 723 812 
C 653 1188 653 1738 653 2096 
C 653 2588 653 2997 736 3387 
C 858 3929 1216 4096 1466 4096 
C 1728 4096 2067 3923 2189 3400 
C 2272 3036 2278 2607 2278 2096 
C 2278 1680 2278 1169 2202 792 
C 2067 95 1690 -26 1466 -26 
z
" transform="scale(0.015625)"/>
        <path id="CMMI12-3a" d="M 1178 307 
C 1178 492 1024 619 870 619 
C 685 619 557 466 557 313 
C 557 128 710 0 864 0 
C 1050 0 1178 153 1178 307 
z
" transform="scale(0.015625)"/>
        <path id="CMR17-35" d="M 730 3692 
C 794 3666 1056 3584 1325 3584 
C 1920 3584 2246 3911 2432 4100 
C 2432 4157 2432 4192 2394 4192 
C 2387 4192 2374 4192 2323 4163 
C 2099 4058 1837 3973 1517 3973 
C 1325 3973 1037 3999 723 4139 
C 653 4171 640 4171 634 4171 
C 602 4171 595 4164 595 4037 
L 595 2203 
C 595 2089 595 2057 659 2057 
C 691 2057 704 2070 736 2114 
C 941 2401 1222 2522 1542 2522 
C 1766 2522 2246 2382 2246 1289 
C 2246 1085 2246 715 2054 421 
C 1894 159 1645 25 1370 25 
C 947 25 518 320 403 814 
C 429 807 480 795 506 795 
C 589 795 749 840 749 1038 
C 749 1210 627 1280 506 1280 
C 358 1280 262 1190 262 1011 
C 262 454 704 -128 1382 -128 
C 2042 -128 2669 440 2669 1264 
C 2669 2030 2170 2624 1549 2624 
C 1222 2624 947 2503 730 2274 
L 730 3692 
z
" transform="scale(0.015625)"/>
       </defs>
       <use xlink:href="#CMSY10-0" transform="scale(0.996264)"/>
       <use xlink:href="#CMR17-30" transform="translate(77.487468 0) scale(0.996264)"/>
       <use xlink:href="#CMMI12-3a" transform="translate(123.177945 0) scale(0.996264)"/>
       <use xlink:href="#CMR17-35" transform="translate(150.275122 0) scale(0.996264)"/>
      </g>
     </g>
    </g>
    <g id="xtick_2">
     <g id="line2d_2">
      <g>
       <use xlink:href="#m3c13734502" x="350.481831" y="188.612029" style="stroke: #000000; stroke-width: 0.8"/>
      </g>
     </g>
     <g id="text_2">
      <!-- $\mathdefault{0.0}$ -->
      <g transform="translate(344.116792 202.530528) scale(0.1 -0.1)">
       <use xlink:href="#CMR17-30" transform="scale(0.996264)"/>
       <use xlink:href="#CMMI12-3a" transform="translate(45.690477 0) scale(0.996264)"/>
       <use xlink:href="#CMR17-30" transform="translate(72.787654 0) scale(0.996264)"/>
      </g>
     </g>
    </g>
    <g id="xtick_3">
     <g id="line2d_3">
      <g>
       <use xlink:href="#m3c13734502" x="391.023059" y="188.612029" style="stroke: #000000; stroke-width: 0.8"/>
      </g>
     </g>
     <g id="text_3">
      <!-- $\mathdefault{0.5}$ -->
      <g transform="translate(384.658019 202.530528) scale(0.1 -0.1)">
       <use xlink:href="#CMR17-30" transform="scale(0.996264)"/>
       <use xlink:href="#CMMI12-3a" transform="translate(45.690477 0) scale(0.996264)"/>
       <use xlink:href="#CMR17-35" transform="translate(72.787654 0) scale(0.996264)"/>
      </g>
     </g>
    </g>
    <g id="xtick_4">
     <g id="line2d_4">
      <g>
       <use xlink:href="#m3c13734502" x="431.564286" y="188.612029" style="stroke: #000000; stroke-width: 0.8"/>
      </g>
     </g>
     <g id="text_4">
      <!-- $\mathdefault{1.0}$ -->
      <g transform="translate(425.199246 202.530528) scale(0.1 -0.1)">
       <defs>
        <path id="CMR17-31" d="M 1702 4058 
C 1702 4192 1696 4192 1606 4192 
C 1357 3916 979 3827 621 3827 
C 602 3827 570 3827 563 3808 
C 557 3795 557 3782 557 3648 
C 755 3648 1088 3686 1344 3839 
L 1344 461 
C 1344 236 1331 160 781 160 
L 589 160 
L 589 0 
C 896 0 1216 0 1523 0 
C 1830 0 2150 0 2458 0 
L 2458 160 
L 2266 160 
C 1715 160 1702 230 1702 458 
L 1702 4058 
z
" transform="scale(0.015625)"/>
       </defs>
       <use xlink:href="#CMR17-31" transform="scale(0.996264)"/>
       <use xlink:href="#CMMI12-3a" transform="translate(45.690477 0) scale(0.996264)"/>
       <use xlink:href="#CMR17-30" transform="translate(72.787654 0) scale(0.996264)"/>
      </g>
     </g>
    </g>
    <g id="xtick_5">
     <g id="line2d_5">
      <g>
       <use xlink:href="#m3c13734502" x="472.105513" y="188.612029" style="stroke: #000000; stroke-width: 0.8"/>
      </g>
     </g>
     <g id="text_5">
      <!-- $\mathdefault{1.5}$ -->
      <g transform="translate(465.740473 202.530528) scale(0.1 -0.1)">
       <use xlink:href="#CMR17-31" transform="scale(0.996264)"/>
       <use xlink:href="#CMMI12-3a" transform="translate(45.690477 0) scale(0.996264)"/>
       <use xlink:href="#CMR17-35" transform="translate(72.787654 0) scale(0.996264)"/>
      </g>
     </g>
    </g>
    <g id="xtick_6">
     <g id="line2d_6">
      <g>
       <use xlink:href="#m3c13734502" x="512.64674" y="188.612029" style="stroke: #000000; stroke-width: 0.8"/>
      </g>
     </g>
     <g id="text_6">
      <!-- $\mathdefault{2.0}$ -->
      <g transform="translate(506.2817 202.530528) scale(0.1 -0.1)">
       <defs>
        <path id="CMR17-32" d="M 2669 989 
L 2554 989 
C 2490 536 2438 459 2413 420 
C 2381 369 1920 369 1830 369 
L 602 369 
C 832 619 1280 1072 1824 1597 
C 2214 1967 2669 2402 2669 3035 
C 2669 3790 2067 4224 1395 4224 
C 691 4224 262 3604 262 3030 
C 262 2780 448 2748 525 2748 
C 589 2748 781 2787 781 3010 
C 781 3207 614 3264 525 3264 
C 486 3264 448 3258 422 3245 
C 544 3790 915 4058 1306 4058 
C 1862 4058 2227 3617 2227 3035 
C 2227 2479 1901 2000 1536 1584 
L 262 146 
L 262 0 
L 2515 0 
L 2669 989 
z
" transform="scale(0.015625)"/>
       </defs>
       <use xlink:href="#CMR17-32" transform="scale(0.996264)"/>
       <use xlink:href="#CMMI12-3a" transform="translate(45.690477 0) scale(0.996264)"/>
       <use xlink:href="#CMR17-30" transform="translate(72.787654 0) scale(0.996264)"/>
      </g>
     </g>
    </g>
    <g id="xtick_7">
     <g id="line2d_7">
      <g>
       <use xlink:href="#m3c13734502" x="553.187967" y="188.612029" style="stroke: #000000; stroke-width: 0.8"/>
      </g>
     </g>
     <g id="text_7">
      <!-- $\mathdefault{2.5}$ -->
      <g transform="translate(546.822928 202.530528) scale(0.1 -0.1)">
       <use xlink:href="#CMR17-32" transform="scale(0.996264)"/>
       <use xlink:href="#CMMI12-3a" transform="translate(45.690477 0) scale(0.996264)"/>
       <use xlink:href="#CMR17-35" transform="translate(72.787654 0) scale(0.996264)"/>
      </g>
     </g>
    </g>
    <g id="xtick_8">
     <g id="line2d_8">
      <g>
       <use xlink:href="#m3c13734502" x="593.729194" y="188.612029" style="stroke: #000000; stroke-width: 0.8"/>
      </g>
     </g>
     <g id="text_8">
      <!-- $\mathdefault{3.0}$ -->
      <g transform="translate(587.364155 202.530528) scale(0.1 -0.1)">
       <defs>
        <path id="CMR17-33" d="M 1414 2157 
C 1984 2157 2234 1662 2234 1090 
C 2234 320 1824 25 1453 25 
C 1114 25 563 194 390 693 
C 422 680 454 680 486 680 
C 640 680 755 782 755 948 
C 755 1133 614 1216 486 1216 
C 378 1216 211 1165 211 926 
C 211 335 787 -128 1466 -128 
C 2176 -128 2720 430 2720 1085 
C 2720 1707 2208 2157 1600 2227 
C 2086 2328 2554 2756 2554 3329 
C 2554 3820 2048 4179 1472 4179 
C 890 4179 378 3829 378 3329 
C 378 3110 544 3072 627 3072 
C 762 3072 877 3155 877 3321 
C 877 3486 762 3569 627 3569 
C 602 3569 570 3569 544 3557 
C 730 3959 1235 4032 1459 4032 
C 1683 4032 2106 3925 2106 3320 
C 2106 3143 2080 2828 1862 2550 
C 1670 2304 1453 2304 1242 2284 
C 1210 2284 1062 2269 1037 2269 
C 992 2263 966 2257 966 2208 
C 966 2163 973 2157 1101 2157 
L 1414 2157 
z
" transform="scale(0.015625)"/>
       </defs>
       <use xlink:href="#CMR17-33" transform="scale(0.996264)"/>
       <use xlink:href="#CMMI12-3a" transform="translate(45.690477 0) scale(0.996264)"/>
       <use xlink:href="#CMR17-30" transform="translate(72.787654 0) scale(0.996264)"/>
      </g>
     </g>
    </g>
    <g id="text_9">
     <!-- $\lambda$ -->
     <g transform="translate(440.820871 215.386204) scale(0.1 -0.1)">
      <defs>
       <path id="CMMI12-15" d="M 1978 3965 
C 1818 4416 1312 4416 1229 4416 
C 1190 4416 1120 4416 1120 4352 
C 1120 4302 1158 4295 1190 4289 
C 1286 4276 1363 4263 1466 4080 
C 1530 3959 2189 2059 2189 2046 
C 2189 2040 2182 2033 2131 1982 
L 467 311 
C 390 234 339 183 339 102 
C 339 12 416 -64 518 -64 
C 544 -64 614 -51 653 -13 
C 755 82 1670 1194 2253 1881 
C 2419 1383 2624 797 2822 261 
C 2854 166 2886 76 2976 -6 
C 3040 -64 3053 -64 3232 -64 
L 3354 -64 
C 3379 -64 3424 -64 3424 -13 
C 3424 13 3418 19 3392 45 
C 3334 115 3290 229 3264 306 
L 1978 3965 
z
" transform="scale(0.015625)"/>
      </defs>
      <use xlink:href="#CMMI12-15" transform="scale(0.996264)"/>
     </g>
    </g>
   </g>
   <g id="matplotlib.axis_2">
    <g id="ytick_1">
     <g id="line2d_9">
      <defs>
       <path id="m685b531e18" d="M 0 0 
L -3.5 0 
" style="stroke: #000000; stroke-width: 0.8"/>
      </defs>
      <g>
       <use xlink:href="#m685b531e18" x="278.723859" y="180.788469" style="stroke: #000000; stroke-width: 0.8"/>
      </g>
     </g>
     <g id="text_10">
      <!-- $\mathdefault{−2}$ -->
      <g transform="translate(258.99378 184.247718) scale(0.1 -0.1)">
       <use xlink:href="#CMSY10-0" transform="scale(0.996264)"/>
       <use xlink:href="#CMR17-32" transform="translate(77.487468 0) scale(0.996264)"/>
      </g>
     </g>
    </g>
    <g id="ytick_2">
     <g id="line2d_10">
      <g>
       <use xlink:href="#m685b531e18" x="278.723859" y="140.247242" style="stroke: #000000; stroke-width: 0.8"/>
      </g>
     </g>
     <g id="text_11">
      <!-- $\mathdefault{−1}$ -->
      <g transform="translate(258.99378 143.706491) scale(0.1 -0.1)">
       <use xlink:href="#CMSY10-0" transform="scale(0.996264)"/>
       <use xlink:href="#CMR17-31" transform="translate(77.487468 0) scale(0.996264)"/>
      </g>
     </g>
    </g>
    <g id="ytick_3">
     <g id="line2d_11">
      <g>
       <use xlink:href="#m685b531e18" x="278.723859" y="99.706015" style="stroke: #000000; stroke-width: 0.8"/>
      </g>
     </g>
     <g id="text_12">
      <!-- $\mathdefault{0}$ -->
      <g transform="translate(266.742524 103.165264) scale(0.1 -0.1)">
       <use xlink:href="#CMR17-30" transform="scale(0.996264)"/>
      </g>
     </g>
    </g>
    <g id="ytick_4">
     <g id="line2d_12">
      <g>
       <use xlink:href="#m685b531e18" x="278.723859" y="59.164788" style="stroke: #000000; stroke-width: 0.8"/>
      </g>
     </g>
     <g id="text_13">
      <!-- $\mathdefault{1}$ -->
      <g transform="translate(266.742524 62.624037) scale(0.1 -0.1)">
       <use xlink:href="#CMR17-31" transform="scale(0.996264)"/>
      </g>
     </g>
    </g>
    <g id="ytick_5">
     <g id="line2d_13">
      <g>
       <use xlink:href="#m685b531e18" x="278.723859" y="18.62356" style="stroke: #000000; stroke-width: 0.8"/>
      </g>
     </g>
     <g id="text_14">
      <!-- $\mathdefault{2}$ -->
      <g transform="translate(266.742524 22.08281) scale(0.1 -0.1)">
       <use xlink:href="#CMR17-32" transform="scale(0.996264)"/>
      </g>
     </g>
    </g>
    <g id="text_15">
     <!-- $x$ -->
     <g transform="translate(253.056602 102.552974) rotate(-90) scale(0.1 -0.1)">
      <defs>
       <path id="CMMI12-78" d="M 3034 2606 
C 2829 2567 2752 2414 2752 2293 
C 2752 2139 2874 2088 2963 2088 
C 3155 2088 3290 2254 3290 2427 
C 3290 2695 2982 2816 2714 2816 
C 2323 2816 2106 2433 2048 2312 
C 1901 2816 1504 2816 1389 2816 
C 736 2816 390 1980 390 1839 
C 390 1814 416 1782 461 1782 
C 512 1782 525 1820 538 1846 
C 755 2555 1184 2689 1370 2689 
C 1658 2689 1715 2420 1715 2267 
C 1715 2127 1677 1980 1600 1673 
L 1382 798 
C 1286 415 1101 64 762 64 
C 730 64 570 64 435 147 
C 666 192 717 383 717 460 
C 717 588 621 664 499 664 
C 346 664 179 530 179 326 
C 179 57 480 -64 755 -64 
C 1062 -64 1280 179 1414 441 
C 1517 64 1837 -64 2074 -64 
C 2726 -64 3072 773 3072 913 
C 3072 945 3046 971 3008 971 
C 2950 971 2944 939 2925 888 
C 2752 326 2381 64 2093 64 
C 1869 64 1747 230 1747 492 
C 1747 632 1773 734 1875 1156 
L 2099 2024 
C 2195 2408 2413 2689 2707 2689 
C 2720 2689 2899 2689 3034 2606 
z
" transform="scale(0.015625)"/>
      </defs>
      <use xlink:href="#CMMI12-78" transform="scale(0.996264)"/>
     </g>
    </g>
   </g>
   <g id="line2d_14">
    <path d="M 593.729194 18.882365 
L 553.719154 24.106094 
L 524.815812 28.125155 
L 498.371906 32.020681 
L 474.382346 35.771743 
L 452.072567 39.485254 
L 432.209218 43.015768 
L 414.778577 46.330197 
L 399.014209 49.547278 
L 384.915482 52.651458 
L 373.206326 55.443666 
L 363.129748 58.056451 
L 354.669313 60.458479 
L 347.798868 62.610751 
L 341.824596 64.705122 
L 337.387399 66.473922 
L 333.811788 68.122453 
L 331.08202 69.62016 
L 329.148831 70.921379 
L 327.911234 71.967877 
L 326.923593 73.078535 
L 326.259928 74.247511 
L 326.03175 75.049939 
L 326.005823 76.041568 
L 326.005823 76.041568 
" clip-path="url(#p0181edf880)" style="fill: none; stroke: #000000; stroke-width: 1.5; stroke-linecap: square"/>
   </g>
   <g id="line2d_15">
    <path d="M 326.005823 76.041568 
L 326.075485 76.445482 
L 326.189889 76.846838 
L 326.346927 77.244574 
L 326.544025 77.637826 
L 326.778301 78.025947 
L 327.046724 78.4085 
L 327.346235 78.785239 
L 327.673851 79.156084 
L 328.026731 79.521088 
L 328.402219 79.880409 
L 328.797861 80.234282 
L 329.211413 80.582998 
L 329.640837 80.926884 
L 330.084285 81.266292 
L 330.540087 81.601583 
L 331.006733 81.933125 
L 331.482854 82.26128 
L 331.967209 82.58641 
L 332.458669 82.908863 
L 332.956199 83.22898 
L 333.458849 83.547092 
L 333.96574 83.863516 
L 334.476056 84.178561 
L 334.989035 84.492524 
L 335.503955 84.80569 
L 336.020137 85.118338 
L 336.536929 85.430733 
L 337.053704 85.743135 
L 337.569857 86.055794 
L 338.084796 86.368953 
L 338.597941 86.682847 
L 339.108719 86.997705 
L 339.61656 87.313749 
L 340.120893 87.631193 
L 340.621148 87.950247 
L 341.116746 88.271113 
L 341.607102 88.593986 
L 342.091619 88.919055 
L 342.569691 89.246501 
L 343.040696 89.576498 
L 343.503996 89.90921 
L 343.958939 90.244793 
L 344.404855 90.583391 
L 344.841053 90.92514 
L 345.266828 91.270159 
L 345.681455 91.618555 
L 346.084193 91.970421 
L 346.474283 92.325832 
L 346.850954 92.684843 
L 347.213423 93.04749 
L 347.560898 93.413788 
L 347.892582 93.783728 
L 348.207679 94.157276 
L 348.505395 94.534371 
L 348.784948 94.914925 
L 349.045574 95.298823 
L 349.286528 95.68592 
L 349.507099 96.076044 
L 349.706613 96.468991 
L 349.884439 96.864533 
L 350.040002 97.262414 
L 350.172782 97.662354 
L 350.28233 98.064049 
L 350.368265 98.467178 
L 350.430286 98.871402 
L 350.468172 99.276372 
L 350.481788 99.681727 
L 350.481831 99.706015 
L 350.469672 100.111381 
" clip-path="url(#p0181edf880)" style="fill: none; stroke-dasharray: 5.55,2.4; stroke-dashoffset: 0; stroke: #000000; stroke-width: 1.5"/>
   </g>
   <g id="line2d_16">
    <path d="M 350.469672 100.111381 
L 350.433237 100.516384 
L 350.372656 100.920663 
L 350.288146 101.323868 
L 350.180003 101.725658 
L 350.048603 102.125711 
L 349.894391 102.523723 
L 349.717883 102.919413 
L 349.519651 103.312523 
L 349.300323 103.702821 
L 349.06057 104.090105 
L 348.801102 104.474199 
L 348.522661 104.854957 
L 348.226011 105.232262 
L 347.911934 105.606024 
L 347.581221 105.976181 
L 347.234669 106.342698 
L 346.873076 106.705564 
L 346.497234 107.064792 
L 346.107926 107.420417 
L 345.705924 107.772494 
L 345.291988 108.121096 
L 344.86686 108.466314 
L 344.431266 108.808255 
L 343.985914 109.147039 
L 343.531492 109.482798 
L 343.068674 109.815678 
L 342.598113 110.145833 
L 342.120447 110.473427 
L 341.636298 110.798633 
L 341.146275 111.121632 
L 340.650975 111.442613 
L 340.150983 111.76177 
L 339.646877 112.079305 
L 339.13923 112.395426 
L 338.628612 112.710349 
L 338.115593 113.024295 
L 337.600745 113.337492 
L 337.084648 113.650174 
L 336.567893 113.962584 
L 336.051085 114.274973 
L 335.534849 114.587597 
L 335.019834 114.900725 
L 334.50672 115.214632 
L 333.996223 115.529604 
L 333.489104 115.845937 
L 332.986176 116.163939 
L 332.488313 116.483927 
L 331.996462 116.806231 
L 331.51165 117.13119 
L 331.035001 117.459154 
L 330.567751 117.790483 
L 330.111259 118.125539 
L 329.667025 118.46469 
L 329.236711 118.808298 
L 328.822152 119.156715 
L 328.425376 119.51027 
L 328.048614 119.869257 
L 327.694307 120.233916 
L 327.365099 120.604408 
L 327.063821 120.980795 
L 326.793451 121.363005 
L 326.557042 121.750802 
L 326.357634 122.143763 
L 326.19812 122.541253 
L 326.081097 122.94242 
L 326.008706 123.346214 
L 325.982475 123.751414 
L 325.982391 123.775704 
L 326.005945 124.180945 
" clip-path="url(#p0181edf880)" style="fill: none; stroke: #000000; stroke-width: 1.5; stroke-linecap: square"/>
   </g>
   <g id="line2d_17">
    <path d="M 326.005945 124.180945 
L 326.193098 124.986017 
L 326.558203 125.775722 
L 327.398934 126.916043 
L 328.524633 127.993532 
L 330.351218 129.33249 
L 332.440012 130.572422 
L 335.300327 132.008231 
L 338.978065 133.599847 
L 343.493106 135.31887 
L 349.532804 137.365955 
L 357.15281 139.682811 
L 365.668264 142.03584 
L 375.790262 144.604442 
L 387.537076 147.356887 
L 400.920914 150.266778 
L 416.705008 153.459617 
L 434.15215 156.752295 
L 453.262819 160.131148 
L 474.808416 163.708953 
L 498.024408 167.338585 
L 523.687246 171.125166 
L 551.803397 175.046428 
L 582.377148 179.083508 
L 593.729187 180.529663 
L 593.729187 180.529663 
" clip-path="url(#p0181edf880)" style="fill: none; stroke-dasharray: 5.55,2.4; stroke-dashoffset: 0; stroke: #000000; stroke-width: 1.5"/>
   </g>
   <g id="line2d_18">
    <path d="M 593.729194 180.529664 
L 553.719154 175.305936 
L 524.815812 171.286874 
L 498.371906 167.391348 
L 474.382346 163.640286 
L 452.072567 159.926775 
L 432.209218 156.396261 
L 414.778577 153.081832 
L 399.014209 149.864751 
L 384.915482 146.760572 
L 373.206326 143.968364 
L 363.129748 141.355579 
L 354.669313 138.953551 
L 347.798868 136.801278 
L 341.824596 134.706908 
L 337.387399 132.938107 
L 333.811788 131.289576 
L 331.08202 129.791869 
L 329.148831 128.49065 
L 327.911234 127.444153 
L 326.923593 126.333495 
L 326.259928 125.164519 
L 326.03175 124.36209 
L 326.005823 123.370461 
L 326.005823 123.370461 
" clip-path="url(#p0181edf880)" style="fill: none; stroke: #000000; stroke-width: 1.5; stroke-linecap: square"/>
   </g>
   <g id="line2d_19">
    <path d="M 326.005823 123.370461 
L 326.075485 122.966548 
L 326.189889 122.565191 
L 326.346927 122.167455 
L 326.544025 121.774203 
L 326.778301 121.386082 
L 327.046724 121.00353 
L 327.346235 120.62679 
L 327.673851 120.255945 
L 328.026731 119.890941 
L 328.402219 119.53162 
L 328.797861 119.177748 
L 329.211413 118.829032 
L 329.640837 118.485145 
L 330.084285 118.145738 
L 330.540087 117.810446 
L 331.006733 117.478905 
L 331.482854 117.150749 
L 331.967209 116.82562 
L 332.458669 116.503167 
L 332.956199 116.183049 
L 333.458849 115.864938 
L 333.96574 115.548513 
L 334.476056 115.233468 
L 334.989035 114.919505 
L 335.503955 114.606339 
L 336.020137 114.293692 
L 336.536929 113.981296 
L 337.053704 113.668895 
L 337.569857 113.356235 
L 338.084796 113.043076 
L 338.597941 112.729182 
L 339.108719 112.414324 
L 339.61656 112.09828 
L 340.120893 111.780836 
L 340.621148 111.461782 
L 341.116746 111.140916 
L 341.607102 110.818043 
L 342.091619 110.492974 
L 342.569691 110.165528 
L 343.040696 109.835531 
L 343.503996 109.502819 
L 343.958939 109.167237 
L 344.404855 108.828638 
L 344.841053 108.48689 
L 345.266828 108.141871 
L 345.681455 107.793474 
L 346.084193 107.441608 
L 346.474283 107.086198 
L 346.850954 106.727187 
L 347.213423 106.364539 
L 347.560898 105.998241 
L 347.892582 105.628301 
L 348.207679 105.254753 
L 348.505395 104.877659 
L 348.784948 104.497104 
L 349.045574 104.113206 
L 349.286528 103.726109 
L 349.507099 103.335986 
L 349.706613 102.943038 
L 349.884439 102.547496 
L 350.040002 102.149615 
L 350.172782 101.749676 
L 350.28233 101.347981 
L 350.368265 100.944852 
L 350.430286 100.540627 
L 350.468172 100.135658 
L 350.481788 99.730302 
L 350.481831 99.706015 
L 350.469672 99.300648 
" clip-path="url(#p0181edf880)" style="fill: none; stroke-dasharray: 5.55,2.4; stroke-dashoffset: 0; stroke: #000000; stroke-width: 1.5"/>
   </g>
   <g id="line2d_20">
    <path d="M 350.469672 99.300648 
L 350.433237 98.895645 
L 350.372656 98.491366 
L 350.288146 98.088162 
L 350.180003 97.686371 
L 350.048603 97.286318 
L 349.894391 96.888306 
L 349.717883 96.492616 
L 349.519651 96.099507 
L 349.300323 95.709208 
L 349.06057 95.321924 
L 348.801102 94.93783 
L 348.522661 94.557072 
L 348.226011 94.179767 
L 347.911934 93.806005 
L 347.581221 93.435848 
L 347.234669 93.069331 
L 346.873076 92.706465 
L 346.497234 92.347237 
L 346.107926 91.991612 
L 345.705924 91.639536 
L 345.291988 91.290934 
L 344.86686 90.945715 
L 344.431266 90.603774 
L 343.985914 90.264991 
L 343.531492 89.929231 
L 343.068674 89.596352 
L 342.598113 89.266197 
L 342.120447 88.938603 
L 341.636298 88.613396 
L 341.146275 88.290397 
L 340.650975 87.969416 
L 340.150983 87.65026 
L 339.646877 87.332724 
L 339.13923 87.016603 
L 338.628612 86.70168 
L 338.115593 86.387734 
L 337.600745 86.074538 
L 337.084648 85.761855 
L 336.567893 85.449445 
L 336.051085 85.137057 
L 335.534849 84.824432 
L 335.019834 84.511304 
L 334.50672 84.197397 
L 333.996223 83.882425 
L 333.489104 83.566092 
L 332.986176 83.24809 
L 332.488313 82.928102 
L 331.996462 82.605799 
L 331.51165 82.28084 
L 331.035001 81.952875 
L 330.567751 81.621547 
L 330.111259 81.28649 
L 329.667025 80.947339 
L 329.236711 80.603731 
L 328.822152 80.255314 
L 328.425376 79.901759 
L 328.048614 79.542772 
L 327.694307 79.178114 
L 327.365099 78.807621 
L 327.063821 78.431234 
L 326.793451 78.049025 
L 326.557042 77.661227 
L 326.357634 77.268266 
L 326.19812 76.870777 
L 326.081097 76.469609 
L 326.008706 76.065816 
L 325.982475 75.660616 
L 325.982391 75.636326 
L 326.005945 75.231084 
" clip-path="url(#p0181edf880)" style="fill: none; stroke: #000000; stroke-width: 1.5; stroke-linecap: square"/>
   </g>
   <g id="line2d_21">
    <path d="M 326.005945 75.231084 
L 326.193098 74.426013 
L 326.558203 73.636308 
L 327.398934 72.495987 
L 328.524633 71.418497 
L 330.351218 70.079539 
L 332.440012 68.839607 
L 335.300327 67.403799 
L 338.978065 65.812182 
L 343.493106 64.093159 
L 349.532804 62.046075 
L 357.15281 59.729219 
L 365.668264 57.376189 
L 375.790262 54.807587 
L 387.537076 52.055142 
L 400.920914 49.145252 
L 416.705008 45.952412 
L 434.15215 42.659734 
L 453.262819 39.280881 
L 474.808416 35.703077 
L 498.024408 32.073444 
L 523.687246 28.286863 
L 551.803397 24.365601 
L 582.377148 20.328521 
L 593.729187 18.882366 
L 593.729187 18.882366 
" clip-path="url(#p0181edf880)" style="fill: none; stroke-dasharray: 5.55,2.4; stroke-dashoffset: 0; stroke: #000000; stroke-width: 1.5"/>
   </g>
   <g id="line2d_22">
    <path d="M 293.724113 99.706015 
L 350.481831 99.706015 
" clip-path="url(#p0181edf880)" style="fill: none; stroke-dasharray: 7.4,3.2; stroke-dashoffset: 0; stroke: #000000; stroke-width: 2"/>
   </g>
   <g id="line2d_23">
    <path d="M 309.940604 188.612029 
L 309.940604 10.8 
" clip-path="url(#p0181edf880)" style="fill: none; stroke-dasharray: 9.6,2.4,1.5,2.4; stroke-dashoffset: 0; stroke: #000000; stroke-width: 1.5"/>
   </g>
   <g id="line2d_24">
    <path d="M 330.211218 188.612029 
L 330.211218 10.8 
" clip-path="url(#p0181edf880)" style="fill: none; stroke-dasharray: 9.6,2.4,1.5,2.4; stroke-dashoffset: 0; stroke: #000000; stroke-width: 1.5"/>
   </g>
   <g id="line2d_25">
    <path d="M 391.023059 188.612029 
L 391.023059 10.8 
" clip-path="url(#p0181edf880)" style="fill: none; stroke-dasharray: 9.6,2.4,1.5,2.4; stroke-dashoffset: 0; stroke: #000000; stroke-width: 1.5"/>
   </g>
   <g id="patch_3">
    <path d="M 278.723859 188.612029 
L 278.723859 10.8 
" style="fill: none; stroke: #000000; stroke-width: 0.8; stroke-linejoin: miter; stroke-linecap: square"/>
   </g>
   <g id="patch_4">
    <path d="M 608.729448 188.612029 
L 608.729448 10.8 
" style="fill: none; stroke: #000000; stroke-width: 0.8; stroke-linejoin: miter; stroke-linecap: square"/>
   </g>
   <g id="patch_5">
    <path d="M 278.723859 188.612029 
L 608.729448 188.612029 
" style="fill: none; stroke: #000000; stroke-width: 0.8; stroke-linejoin: miter; stroke-linecap: square"/>
   </g>
   <g id="patch_6">
    <path d="M 278.723859 10.8 
L 608.729448 10.8 
" style="fill: none; stroke: #000000; stroke-width: 0.8; stroke-linejoin: miter; stroke-linecap: square"/>
   </g>
   <g id="text_16">
    <!-- a. -->
    <g transform="translate(312.373078 30.785929) scale(0.1 -0.1)">
     <defs>
      <path id="CMSS17-61" d="M 2406 1791 
C 2406 2392 1978 2808 1402 2808 
C 1120 2808 813 2757 461 2553 
L 499 2135 
C 659 2248 934 2432 1395 2432 
C 1722 2432 1920 2180 1920 1782 
L 1920 1536 
C 896 1536 256 1238 256 726 
C 256 461 416 -64 947 -64 
C 1043 -64 1562 -64 1933 217 
L 1933 -19 
L 2406 -19 
L 2406 1791 
z
M 1920 816 
C 1920 701 1920 548 1728 434 
C 1562 325 1350 325 1261 325 
C 941 325 723 511 723 744 
C 723 1211 1722 1211 1920 1211 
L 1920 816 
z
" transform="scale(0.015625)"/>
      <path id="CMSS17-2e" d="M 1088 510 
L 576 510 
L 576 0 
L 1088 0 
L 1088 510 
z
" transform="scale(0.015625)"/>
     </defs>
     <use xlink:href="#CMSS17-61" transform="scale(0.996264)"/>
     <use xlink:href="#CMSS17-2e" transform="translate(44.921921 0) scale(0.996264)"/>
    </g>
   </g>
   <g id="text_17">
    <!-- b. -->
    <g transform="translate(338.319463 30.785929) scale(0.1 -0.1)">
     <defs>
      <path id="CMSS17-62" d="M 954 4416 
L 480 4416 
L 480 -13 
L 966 -13 
L 966 274 
C 1210 38 1504 -64 1766 -64 
C 2381 -64 2880 549 2880 1352 
C 2880 2086 2496 2756 1926 2756 
C 1523 2756 1165 2591 954 2419 
L 954 4416 
z
M 966 2046 
C 1107 2222 1306 2368 1587 2368 
C 1965 2368 2394 2097 2394 1352 
C 2394 558 1882 325 1530 325 
C 1402 325 1267 356 1139 464 
C 966 615 966 709 966 797 
L 966 2046 
z
" transform="scale(0.015625)"/>
     </defs>
     <use xlink:href="#CMSS17-62" transform="scale(0.996264)"/>
     <use xlink:href="#CMSS17-2e" transform="translate(48.204943 0) scale(0.996264)"/>
    </g>
   </g>
   <g id="text_18">
    <!-- c. -->
    <g transform="translate(399.131304 30.785929) scale(0.1 -0.1)">
     <defs>
      <path id="CMSS17-63" d="M 2464 2541 
C 2464 2585 2170 2714 2093 2739 
C 1882 2816 1613 2816 1542 2816 
C 710 2816 211 2093 211 1363 
C 211 595 768 -64 1517 -64 
C 1946 -64 2253 76 2502 242 
L 2464 664 
C 2189 453 1869 337 1523 337 
C 1024 337 698 774 698 1369 
C 698 1831 909 2414 1549 2414 
C 1901 2414 2099 2343 2394 2145 
L 2464 2541 
z
" transform="scale(0.015625)"/>
     </defs>
     <use xlink:href="#CMSS17-63" transform="scale(0.996264)"/>
     <use xlink:href="#CMSS17-2e" transform="translate(41.638822 0) scale(0.996264)"/>
    </g>
   </g>
  </g>
  <g id="axes_2">
   <g id="patch_7">
    <path d="M 36.743975 320.488647 
L 281.909332 320.488647 
L 281.909332 231.582632 
L 36.743975 231.582632 
z
" style="fill: #ffffff"/>
   </g>
   <g id="matplotlib.axis_3">
    <g id="xtick_9">
     <g id="line2d_26">
      <g>
       <use xlink:href="#m3c13734502" x="36.743975" y="320.488647" style="stroke: #000000; stroke-width: 0.8"/>
      </g>
     </g>
     <g id="text_19">
      <!-- $\mathdefault{−2.0}$ -->
      <g transform="translate(26.504564 334.407145) scale(0.1 -0.1)">
       <use xlink:href="#CMSY10-0" transform="scale(0.996264)"/>
       <use xlink:href="#CMR17-32" transform="translate(77.487468 0) scale(0.996264)"/>
       <use xlink:href="#CMMI12-3a" transform="translate(123.177945 0) scale(0.996264)"/>
       <use xlink:href="#CMR17-30" transform="translate(150.275122 0) scale(0.996264)"/>
      </g>
     </g>
    </g>
    <g id="xtick_10">
     <g id="line2d_27">
      <g>
       <use xlink:href="#m3c13734502" x="67.389645" y="320.488647" style="stroke: #000000; stroke-width: 0.8"/>
      </g>
     </g>
     <g id="text_20">
      <!-- $\mathdefault{−1.5}$ -->
      <g transform="translate(57.150234 334.407145) scale(0.1 -0.1)">
       <use xlink:href="#CMSY10-0" transform="scale(0.996264)"/>
       <use xlink:href="#CMR17-31" transform="translate(77.487468 0) scale(0.996264)"/>
       <use xlink:href="#CMMI12-3a" transform="translate(123.177945 0) scale(0.996264)"/>
       <use xlink:href="#CMR17-35" transform="translate(150.275122 0) scale(0.996264)"/>
      </g>
     </g>
    </g>
    <g id="xtick_11">
     <g id="line2d_28">
      <g>
       <use xlink:href="#m3c13734502" x="98.035315" y="320.488647" style="stroke: #000000; stroke-width: 0.8"/>
      </g>
     </g>
     <g id="text_21">
      <!-- $\mathdefault{−1.0}$ -->
      <g transform="translate(87.795903 334.407145) scale(0.1 -0.1)">
       <use xlink:href="#CMSY10-0" transform="scale(0.996264)"/>
       <use xlink:href="#CMR17-31" transform="translate(77.487468 0) scale(0.996264)"/>
       <use xlink:href="#CMMI12-3a" transform="translate(123.177945 0) scale(0.996264)"/>
       <use xlink:href="#CMR17-30" transform="translate(150.275122 0) scale(0.996264)"/>
      </g>
     </g>
    </g>
    <g id="xtick_12">
     <g id="line2d_29">
      <g>
       <use xlink:href="#m3c13734502" x="128.680984" y="320.488647" style="stroke: #000000; stroke-width: 0.8"/>
      </g>
     </g>
     <g id="text_22">
      <!-- $\mathdefault{−0.5}$ -->
      <g transform="translate(118.441573 334.407145) scale(0.1 -0.1)">
       <use xlink:href="#CMSY10-0" transform="scale(0.996264)"/>
       <use xlink:href="#CMR17-30" transform="translate(77.487468 0) scale(0.996264)"/>
       <use xlink:href="#CMMI12-3a" transform="translate(123.177945 0) scale(0.996264)"/>
       <use xlink:href="#CMR17-35" transform="translate(150.275122 0) scale(0.996264)"/>
      </g>
     </g>
    </g>
    <g id="xtick_13">
     <g id="line2d_30">
      <g>
       <use xlink:href="#m3c13734502" x="159.326654" y="320.488647" style="stroke: #000000; stroke-width: 0.8"/>
      </g>
     </g>
     <g id="text_23">
      <!-- $\mathdefault{0.0}$ -->
      <g transform="translate(152.961614 334.407145) scale(0.1 -0.1)">
       <use xlink:href="#CMR17-30" transform="scale(0.996264)"/>
       <use xlink:href="#CMMI12-3a" transform="translate(45.690477 0) scale(0.996264)"/>
       <use xlink:href="#CMR17-30" transform="translate(72.787654 0) scale(0.996264)"/>
      </g>
     </g>
    </g>
    <g id="xtick_14">
     <g id="line2d_31">
      <g>
       <use xlink:href="#m3c13734502" x="189.972323" y="320.488647" style="stroke: #000000; stroke-width: 0.8"/>
      </g>
     </g>
     <g id="text_24">
      <!-- $\mathdefault{0.5}$ -->
      <g transform="translate(183.607284 334.407145) scale(0.1 -0.1)">
       <use xlink:href="#CMR17-30" transform="scale(0.996264)"/>
       <use xlink:href="#CMMI12-3a" transform="translate(45.690477 0) scale(0.996264)"/>
       <use xlink:href="#CMR17-35" transform="translate(72.787654 0) scale(0.996264)"/>
      </g>
     </g>
    </g>
    <g id="xtick_15">
     <g id="line2d_32">
      <g>
       <use xlink:href="#m3c13734502" x="220.617993" y="320.488647" style="stroke: #000000; stroke-width: 0.8"/>
      </g>
     </g>
     <g id="text_25">
      <!-- $\mathdefault{1.0}$ -->
      <g transform="translate(214.252954 334.407145) scale(0.1 -0.1)">
       <use xlink:href="#CMR17-31" transform="scale(0.996264)"/>
       <use xlink:href="#CMMI12-3a" transform="translate(45.690477 0) scale(0.996264)"/>
       <use xlink:href="#CMR17-30" transform="translate(72.787654 0) scale(0.996264)"/>
      </g>
     </g>
    </g>
    <g id="xtick_16">
     <g id="line2d_33">
      <g>
       <use xlink:href="#m3c13734502" x="251.263663" y="320.488647" style="stroke: #000000; stroke-width: 0.8"/>
      </g>
     </g>
     <g id="text_26">
      <!-- $\mathdefault{1.5}$ -->
      <g transform="translate(244.898623 334.407145) scale(0.1 -0.1)">
       <use xlink:href="#CMR17-31" transform="scale(0.996264)"/>
       <use xlink:href="#CMMI12-3a" transform="translate(45.690477 0) scale(0.996264)"/>
       <use xlink:href="#CMR17-35" transform="translate(72.787654 0) scale(0.996264)"/>
      </g>
     </g>
    </g>
    <g id="xtick_17">
     <g id="line2d_34">
      <g>
       <use xlink:href="#m3c13734502" x="281.909332" y="320.488647" style="stroke: #000000; stroke-width: 0.8"/>
      </g>
     </g>
     <g id="text_27">
      <!-- $\mathdefault{2.0}$ -->
      <g transform="translate(275.544293 334.407145) scale(0.1 -0.1)">
       <use xlink:href="#CMR17-32" transform="scale(0.996264)"/>
       <use xlink:href="#CMMI12-3a" transform="translate(45.690477 0) scale(0.996264)"/>
       <use xlink:href="#CMR17-30" transform="translate(72.787654 0) scale(0.996264)"/>
      </g>
     </g>
    </g>
    <g id="text_28">
     <!-- $x$ -->
     <g transform="translate(156.479694 347.262822) scale(0.1 -0.1)">
      <use xlink:href="#CMMI12-78" transform="scale(0.996264)"/>
     </g>
    </g>
   </g>
   <g id="matplotlib.axis_4">
    <g id="ytick_6">
     <g id="line2d_35">
      <g>
       <use xlink:href="#m685b531e18" x="36.743975" y="320.488647" style="stroke: #000000; stroke-width: 0.8"/>
      </g>
     </g>
     <g id="text_29">
      <!-- $\mathdefault{0}$ -->
      <g transform="translate(24.76264 323.947896) scale(0.1 -0.1)">
       <use xlink:href="#CMR17-30" transform="scale(0.996264)"/>
      </g>
     </g>
    </g>
    <g id="ytick_7">
     <g id="line2d_36">
      <g>
       <use xlink:href="#m685b531e18" x="36.743975" y="290.853308" style="stroke: #000000; stroke-width: 0.8"/>
      </g>
     </g>
     <g id="text_30">
      <!-- $\mathdefault{1}$ -->
      <g transform="translate(24.76264 294.312558) scale(0.1 -0.1)">
       <use xlink:href="#CMR17-31" transform="scale(0.996264)"/>
      </g>
     </g>
    </g>
    <g id="ytick_8">
     <g id="line2d_37">
      <g>
       <use xlink:href="#m685b531e18" x="36.743975" y="261.21797" style="stroke: #000000; stroke-width: 0.8"/>
      </g>
     </g>
     <g id="text_31">
      <!-- $\mathdefault{2}$ -->
      <g transform="translate(24.76264 264.677219) scale(0.1 -0.1)">
       <use xlink:href="#CMR17-32" transform="scale(0.996264)"/>
      </g>
     </g>
    </g>
    <g id="ytick_9">
     <g id="line2d_38">
      <g>
       <use xlink:href="#m685b531e18" x="36.743975" y="231.582632" style="stroke: #000000; stroke-width: 0.8"/>
      </g>
     </g>
     <g id="text_32">
      <!-- $\mathdefault{3}$ -->
      <g transform="translate(24.76264 235.041881) scale(0.1 -0.1)">
       <use xlink:href="#CMR17-33" transform="scale(0.996264)"/>
      </g>
     </g>
    </g>
    <g id="text_33">
     <!-- $f\left(x\right)$ -->
     <g transform="translate(18.27198 286.562144) rotate(-90) scale(0.1 -0.1)">
      <defs>
       <path id="CMMI12-66" d="M 2854 2566 
C 2982 2566 3034 2566 3034 2688 
C 3034 2752 2982 2752 2867 2752 
L 2349 2752 
C 2470 3429 2560 3897 2611 4107 
C 2650 4265 2784 4416 2950 4416 
C 3085 4416 3219 4358 3283 4298 
C 3034 4272 2957 4082 2957 3969 
C 2957 3837 3053 3759 3174 3759 
C 3302 3759 3494 3870 3494 4119 
C 3494 4393 3226 4544 2944 4544 
C 2669 4544 2400 4334 2272 4078 
C 2157 3848 2093 3611 1946 2752 
L 1517 2752 
C 1395 2752 1331 2752 1331 2637 
C 1331 2566 1370 2566 1498 2566 
L 1907 2566 
C 1792 1976 1530 542 1382 -137 
C 1274 -689 1178 -1152 858 -1152 
C 838 -1152 653 -1152 538 -1031 
C 864 -1005 864 -726 864 -720 
C 864 -593 768 -517 646 -517 
C 518 -517 326 -625 326 -867 
C 326 -1140 608 -1280 858 -1280 
C 1510 -1280 1779 -118 1850 199 
C 1965 688 2278 2376 2310 2566 
L 2854 2566 
z
" transform="scale(0.015625)"/>
       <path id="CMR17-28" d="M 1958 -1561 
C 1958 -1555 1958 -1542 1939 -1523 
C 1645 -1224 858 -407 858 1581 
C 858 3569 1632 4379 1946 4697 
C 1946 4704 1958 4717 1958 4736 
C 1958 4755 1939 4768 1914 4768 
C 1843 4768 1299 4296 986 3594 
C 666 2887 576 2199 576 1588 
C 576 1128 621 351 1005 -471 
C 1312 -1135 1837 -1600 1914 -1600 
C 1946 -1600 1958 -1587 1958 -1561 
z
" transform="scale(0.015625)"/>
       <path id="CMR17-29" d="M 1683 1581 
C 1683 2040 1638 2817 1254 3639 
C 947 4303 422 4768 346 4768 
C 326 4768 301 4761 301 4729 
C 301 4717 307 4710 314 4697 
C 621 4378 1402 3568 1402 1584 
C 1402 -407 627 -1217 314 -1537 
C 307 -1549 301 -1556 301 -1568 
C 301 -1600 326 -1600 346 -1600 
C 416 -1600 960 -1128 1274 -426 
C 1594 281 1683 969 1683 1581 
z
" transform="scale(0.015625)"/>
      </defs>
      <use xlink:href="#CMMI12-66" transform="scale(0.996264)"/>
      <use xlink:href="#CMR17-28" transform="translate(75.32471 0.003177) scale(0.996264)"/>
      <use xlink:href="#CMMI12-78" transform="translate(110.605478 0) scale(0.996264)"/>
      <use xlink:href="#CMR17-29" transform="translate(166.039537 0.003177) scale(0.996264)"/>
     </g>
    </g>
   </g>
   <g id="line2d_39">
    <path d="M 85.472122 320.488155 
L 86.0881 320.470217 
L 86.704078 320.204826 
L 87.320056 319.697142 
L 87.936034 320.158628 
L 88.552012 320.464565 
L 91.631902 320.471937 
L 92.24788 319.802561 
L 92.863858 313.182528 
L 93.479836 304.394397 
L 94.095814 313.738129 
L 94.711792 319.77676 
L 95.32777 320.464073 
L 97.175704 320.484961 
L 97.791682 320.411487 
L 98.407659 318.994839 
L 99.639615 301.456911 
L 100.255593 312.055108 
L 100.871571 319.355328 
L 101.487549 320.402886 
L 102.719505 320.482503 
L 103.335483 320.45621 
L 103.951461 320.112922 
L 104.567439 316.514906 
L 105.183417 300.984367 
L 105.799395 290.645173 
L 106.415373 306.428079 
L 107.031351 317.821466 
L 107.647329 320.160594 
L 108.263307 320.41591 
L 108.879285 320.437043 
L 109.495263 320.320566 
L 110.111241 319.317977 
L 110.727219 312.770926 
L 111.343197 293.565949 
L 111.959175 284.267923 
L 112.575153 301.757688 
L 113.191131 315.810146 
L 113.807108 319.52857 
L 114.423086 320.18271 
L 115.039064 320.234313 
L 115.655042 319.852691 
L 116.27102 317.667146 
L 116.886998 308.461516 
L 117.502976 289.943115 
L 118.118954 283.65777 
L 119.35091 313.26706 
L 119.966888 318.325218 
L 120.582866 319.45829 
L 121.198844 319.512351 
L 121.814822 318.594049 
L 122.4308 314.862356 
L 123.046778 304.37523 
L 123.662756 289.052089 
L 124.278734 285.700052 
L 125.51069 310.254134 
L 126.126668 316.084629 
L 126.742646 317.940646 
L 127.358624 317.881425 
L 127.974602 316.199877 
L 128.59058 311.112232 
L 129.822535 290.143879 
L 130.438513 288.737552 
L 131.670469 307.310013 
L 132.286447 312.817615 
L 132.902425 314.900444 
L 133.518403 314.774629 
L 134.134381 312.33598 
L 134.750359 307.280771 
L 135.982315 292.774691 
L 136.598293 292.322297 
L 138.446227 308.812913 
L 139.062205 310.59816 
L 139.678183 310.15879 
L 140.294161 307.737342 
L 142.142095 294.910106 
L 142.758073 295.15117 
L 143.374051 297.914431 
L 143.990028 301.563559 
L 144.606006 304.216487 
L 145.221984 305.404112 
L 145.837962 304.963022 
L 146.45394 302.902555 
L 147.685896 298.025503 
L 148.301874 296.774724 
L 148.917852 296.825591 
L 149.53383 297.975127 
L 150.149808 299.394478 
L 150.765786 300.432944 
L 151.381764 300.698335 
L 152.61372 299.469918 
L 153.229698 298.693403 
L 153.845676 298.130922 
L 154.461654 297.997243 
L 155.69361 298.182771 
L 156.309588 298.425801 
L 157.541544 298.420886 
L 159.389477 298.189406 
L 160.621433 298.306866 
L 161.237411 298.17073 
L 162.469367 298.41204 
L 163.085345 298.662933 
L 163.701323 299.039886 
L 164.933279 299.120732 
L 165.549257 298.687014 
L 166.165235 297.825476 
L 166.781213 297.407977 
L 167.397191 297.346544 
L 168.013169 298.136574 
L 169.245125 301.270892 
L 169.861103 302.355555 
L 170.477081 302.634215 
L 171.093059 301.818629 
L 172.325015 297.359322 
L 172.940993 295.708737 
L 173.556971 295.940708 
L 174.172949 298.612803 
L 175.404904 305.651565 
L 176.020882 307.601943 
L 176.63686 307.765601 
L 177.252838 305.643947 
L 177.868816 301.605825 
L 178.484794 296.336583 
L 179.100772 292.714978 
L 179.71675 293.907272 
L 181.564684 310.655907 
L 182.180662 312.615623 
L 182.79664 312.453686 
L 183.412618 309.820171 
L 184.028596 303.865335 
L 184.644574 295.229313 
L 185.260552 289.111311 
L 185.87653 291.890299 
L 187.108486 310.235458 
L 187.724464 314.953031 
L 188.340442 316.55791 
L 188.95642 316.272123 
L 189.572398 313.483305 
L 190.188375 306.50868 
L 190.804353 294.048568 
L 191.420331 284.918132 
L 192.036309 290.521815 
L 192.652287 304.573045 
L 193.268265 314.197895 
L 193.884243 317.885111 
L 194.500221 318.861897 
L 195.116199 318.656219 
L 195.732177 316.477555 
L 196.348155 309.561414 
L 196.964133 294.354996 
L 197.580111 282.268152 
L 198.196089 291.727379 
L 198.812067 308.838224 
L 199.428045 317.323121 
L 200.044023 319.557812 
L 200.660001 319.985878 
L 201.275979 319.860554 
L 201.891957 318.582008 
L 202.507935 312.7638 
L 203.739891 283.29556 
L 204.355869 296.045882 
L 204.971846 313.314978 
L 205.587824 319.180367 
L 206.203802 320.233822 
L 206.81978 320.372415 
L 207.435758 320.283951 
L 208.051736 319.648487 
L 208.667714 315.307377 
L 209.89967 285.977484 
L 211.131626 316.515398 
L 211.747604 320.051488 
L 212.363582 320.428196 
L 213.595538 320.439009 
L 214.211516 320.18099 
L 214.827494 317.386028 
L 216.05945 292.558938 
L 216.675428 307.562135 
L 217.291406 318.724779 
L 217.907384 320.386422 
L 219.13934 320.486435 
L 220.371295 320.393794 
L 220.987273 318.944464 
L 222.219229 302.675744 
L 222.835207 313.872299 
L 223.451185 319.913633 
L 224.067163 320.469725 
L 226.531075 320.47292 
L 227.147053 320.133072 
L 227.763031 317.468594 
L 228.379009 315.335391 
L 228.994987 319.018675 
L 229.610965 320.411732 
L 230.226943 320.487664 
L 230.226943 320.487664 
" clip-path="url(#p5b90fcd6c8)" style="fill: none; stroke: #1f77b4; stroke-width: 1.5; stroke-linecap: square"/>
   </g>
   <g id="line2d_40">
    <path d="M 85.194779 320.346461 
L 91.385204 317.394737 
L 97.57563 316.465625 
L 103.766055 313.551288 
L 109.95648 311.034069 
L 116.146905 309.405935 
L 122.337331 308.030263 
L 128.527756 306.604613 
L 134.718181 305.074261 
L 140.908606 303.032552 
L 147.099032 300.808166 
L 153.289457 299.076772 
L 159.479882 298.324226 
L 165.670307 298.445188 
L 171.860733 299.683612 
L 178.051158 301.621573 
L 184.241583 303.71348 
L 190.432009 305.612514 
L 196.622434 307.63268 
L 202.812859 309.965705 
L 209.003284 311.961836 
L 215.19371 314.234465 
L 221.384135 316.804011 
L 227.57456 319.484297 
" clip-path="url(#p5b90fcd6c8)" style="fill: none; stroke: #ff7f0e; stroke-width: 1.5; stroke-linecap: square"/>
   </g>
   <g id="line2d_41">
    <path d="M 36.437519 320.488647 
L 78.115629 320.379324 
L 82.71248 320.133042 
L 86.38996 319.716539 
L 89.454527 319.1577 
L 92.519094 318.376604 
L 95.890118 317.265697 
L 99.874055 315.68586 
L 111.825866 310.738008 
L 115.809803 309.422022 
L 120.406653 308.138599 
L 135.116575 304.228218 
L 142.777992 301.754662 
L 148.294213 300.082057 
L 151.971693 299.209891 
L 155.03626 298.713439 
L 157.79437 298.481418 
L 160.552481 298.469054 
L 163.310591 298.677166 
L 166.375158 299.149887 
L 169.746182 299.919191 
L 173.730119 301.070341 
L 190.27878 306.133092 
L 204.069332 309.803913 
L 208.053269 311.187395 
L 212.650119 313.038357 
L 223.069647 317.376576 
L 226.44067 318.464892 
L 229.505237 319.223348 
L 232.569804 319.761028 
L 235.940828 320.133042 
L 240.231222 320.369447 
L 246.666812 320.47371 
L 270.570435 320.488647 
L 282.215789 320.488647 
L 282.215789 320.488647 
" clip-path="url(#p5b90fcd6c8)" style="fill: none; stroke-dasharray: 1.2,1.2; stroke-dashoffset: 0; stroke: #008000; stroke-width: 1.5"/>
   </g>
   <g id="patch_8">
    <path d="M 36.743975 320.488647 
L 36.743975 231.582632 
" style="fill: none; stroke: #000000; stroke-width: 0.8; stroke-linejoin: miter; stroke-linecap: square"/>
   </g>
   <g id="patch_9">
    <path d="M 281.909332 320.488647 
L 281.909332 231.582632 
" style="fill: none; stroke: #000000; stroke-width: 0.8; stroke-linejoin: miter; stroke-linecap: square"/>
   </g>
   <g id="patch_10">
    <path d="M 36.743975 320.488647 
L 281.909332 320.488647 
" style="fill: none; stroke: #000000; stroke-width: 0.8; stroke-linejoin: miter; stroke-linecap: square"/>
   </g>
   <g id="patch_11">
    <path d="M 36.743975 231.582632 
L 281.909332 231.582632 
" style="fill: none; stroke: #000000; stroke-width: 0.8; stroke-linejoin: miter; stroke-linecap: square"/>
   </g>
   <g id="text_34">
    <!-- a) $\lambda = -0.5$ -->
    <g transform="translate(189.972323 255.290902) scale(0.1 -0.1)">
     <defs>
      <path id="CMSS17-29" d="M 723 -1600 
C 1069 -1249 1862 -433 1862 1581 
C 1862 3601 1069 4411 723 4768 
L 333 4768 
C 1120 3952 1376 2811 1376 1588 
C 1376 370 1133 -778 333 -1600 
L 723 -1600 
z
" transform="scale(0.015625)"/>
      <path id="CMR17-3d" d="M 4115 2017 
C 4211 2017 4307 2017 4307 2125 
C 4307 2240 4198 2240 4090 2240 
L 512 2240 
C 403 2240 294 2240 294 2125 
C 294 2017 390 2017 486 2017 
L 4115 2017 
z
M 4090 896 
C 4198 896 4307 896 4307 1011 
C 4307 1119 4211 1119 4115 1119 
L 486 1119 
C 390 1119 294 1119 294 1011 
C 294 896 403 896 512 896 
L 4090 896 
z
" transform="scale(0.015625)"/>
     </defs>
     <use xlink:href="#CMSS17-61" transform="scale(0.996264)"/>
     <use xlink:href="#CMSS17-29" transform="translate(44.921921 0) scale(0.996264)"/>
     <use xlink:href="#CMMI12-15" transform="translate(112.584948 0) scale(0.996264)"/>
     <use xlink:href="#CMR17-3d" transform="translate(197.163028 0) scale(0.996264)"/>
     <use xlink:href="#CMSY10-0" transform="translate(296.551825 0) scale(0.996264)"/>
     <use xlink:href="#CMR17-30" transform="translate(374.039293 0) scale(0.996264)"/>
     <use xlink:href="#CMMI12-3a" transform="translate(419.72977 0) scale(0.996264)"/>
     <use xlink:href="#CMR17-35" transform="translate(446.826947 0) scale(0.996264)"/>
    </g>
   </g>
  </g>
  <g id="axes_3">
   <g id="patch_12">
    <path d="M 321.143975 320.488647 
L 566.309332 320.488647 
L 566.309332 231.582632 
L 321.143975 231.582632 
z
" style="fill: #ffffff"/>
   </g>
   <g id="matplotlib.axis_5">
    <g id="xtick_18">
     <g id="line2d_42">
      <g>
       <use xlink:href="#m3c13734502" x="321.143975" y="320.488647" style="stroke: #000000; stroke-width: 0.8"/>
      </g>
     </g>
     <g id="text_35">
      <!-- $\mathdefault{−2.0}$ -->
      <g transform="translate(310.904564 334.407145) scale(0.1 -0.1)">
       <use xlink:href="#CMSY10-0" transform="scale(0.996264)"/>
       <use xlink:href="#CMR17-32" transform="translate(77.487468 0) scale(0.996264)"/>
       <use xlink:href="#CMMI12-3a" transform="translate(123.177945 0) scale(0.996264)"/>
       <use xlink:href="#CMR17-30" transform="translate(150.275122 0) scale(0.996264)"/>
      </g>
     </g>
    </g>
    <g id="xtick_19">
     <g id="line2d_43">
      <g>
       <use xlink:href="#m3c13734502" x="351.789645" y="320.488647" style="stroke: #000000; stroke-width: 0.8"/>
      </g>
     </g>
     <g id="text_36">
      <!-- $\mathdefault{−1.5}$ -->
      <g transform="translate(341.550234 334.407145) scale(0.1 -0.1)">
       <use xlink:href="#CMSY10-0" transform="scale(0.996264)"/>
       <use xlink:href="#CMR17-31" transform="translate(77.487468 0) scale(0.996264)"/>
       <use xlink:href="#CMMI12-3a" transform="translate(123.177945 0) scale(0.996264)"/>
       <use xlink:href="#CMR17-35" transform="translate(150.275122 0) scale(0.996264)"/>
      </g>
     </g>
    </g>
    <g id="xtick_20">
     <g id="line2d_44">
      <g>
       <use xlink:href="#m3c13734502" x="382.435315" y="320.488647" style="stroke: #000000; stroke-width: 0.8"/>
      </g>
     </g>
     <g id="text_37">
      <!-- $\mathdefault{−1.0}$ -->
      <g transform="translate(372.195903 334.407145) scale(0.1 -0.1)">
       <use xlink:href="#CMSY10-0" transform="scale(0.996264)"/>
       <use xlink:href="#CMR17-31" transform="translate(77.487468 0) scale(0.996264)"/>
       <use xlink:href="#CMMI12-3a" transform="translate(123.177945 0) scale(0.996264)"/>
       <use xlink:href="#CMR17-30" transform="translate(150.275122 0) scale(0.996264)"/>
      </g>
     </g>
    </g>
    <g id="xtick_21">
     <g id="line2d_45">
      <g>
       <use xlink:href="#m3c13734502" x="413.080984" y="320.488647" style="stroke: #000000; stroke-width: 0.8"/>
      </g>
     </g>
     <g id="text_38">
      <!-- $\mathdefault{−0.5}$ -->
      <g transform="translate(402.841573 334.407145) scale(0.1 -0.1)">
       <use xlink:href="#CMSY10-0" transform="scale(0.996264)"/>
       <use xlink:href="#CMR17-30" transform="translate(77.487468 0) scale(0.996264)"/>
       <use xlink:href="#CMMI12-3a" transform="translate(123.177945 0) scale(0.996264)"/>
       <use xlink:href="#CMR17-35" transform="translate(150.275122 0) scale(0.996264)"/>
      </g>
     </g>
    </g>
    <g id="xtick_22">
     <g id="line2d_46">
      <g>
       <use xlink:href="#m3c13734502" x="443.726654" y="320.488647" style="stroke: #000000; stroke-width: 0.8"/>
      </g>
     </g>
     <g id="text_39">
      <!-- $\mathdefault{0.0}$ -->
      <g transform="translate(437.361614 334.407145) scale(0.1 -0.1)">
       <use xlink:href="#CMR17-30" transform="scale(0.996264)"/>
       <use xlink:href="#CMMI12-3a" transform="translate(45.690477 0) scale(0.996264)"/>
       <use xlink:href="#CMR17-30" transform="translate(72.787654 0) scale(0.996264)"/>
      </g>
     </g>
    </g>
    <g id="xtick_23">
     <g id="line2d_47">
      <g>
       <use xlink:href="#m3c13734502" x="474.372323" y="320.488647" style="stroke: #000000; stroke-width: 0.8"/>
      </g>
     </g>
     <g id="text_40">
      <!-- $\mathdefault{0.5}$ -->
      <g transform="translate(468.007284 334.407145) scale(0.1 -0.1)">
       <use xlink:href="#CMR17-30" transform="scale(0.996264)"/>
       <use xlink:href="#CMMI12-3a" transform="translate(45.690477 0) scale(0.996264)"/>
       <use xlink:href="#CMR17-35" transform="translate(72.787654 0) scale(0.996264)"/>
      </g>
     </g>
    </g>
    <g id="xtick_24">
     <g id="line2d_48">
      <g>
       <use xlink:href="#m3c13734502" x="505.017993" y="320.488647" style="stroke: #000000; stroke-width: 0.8"/>
      </g>
     </g>
     <g id="text_41">
      <!-- $\mathdefault{1.0}$ -->
      <g transform="translate(498.652954 334.407145) scale(0.1 -0.1)">
       <use xlink:href="#CMR17-31" transform="scale(0.996264)"/>
       <use xlink:href="#CMMI12-3a" transform="translate(45.690477 0) scale(0.996264)"/>
       <use xlink:href="#CMR17-30" transform="translate(72.787654 0) scale(0.996264)"/>
      </g>
     </g>
    </g>
    <g id="xtick_25">
     <g id="line2d_49">
      <g>
       <use xlink:href="#m3c13734502" x="535.663663" y="320.488647" style="stroke: #000000; stroke-width: 0.8"/>
      </g>
     </g>
     <g id="text_42">
      <!-- $\mathdefault{1.5}$ -->
      <g transform="translate(529.298623 334.407145) scale(0.1 -0.1)">
       <use xlink:href="#CMR17-31" transform="scale(0.996264)"/>
       <use xlink:href="#CMMI12-3a" transform="translate(45.690477 0) scale(0.996264)"/>
       <use xlink:href="#CMR17-35" transform="translate(72.787654 0) scale(0.996264)"/>
      </g>
     </g>
    </g>
    <g id="xtick_26">
     <g id="line2d_50">
      <g>
       <use xlink:href="#m3c13734502" x="566.309332" y="320.488647" style="stroke: #000000; stroke-width: 0.8"/>
      </g>
     </g>
     <g id="text_43">
      <!-- $\mathdefault{2.0}$ -->
      <g transform="translate(559.944293 334.407145) scale(0.1 -0.1)">
       <use xlink:href="#CMR17-32" transform="scale(0.996264)"/>
       <use xlink:href="#CMMI12-3a" transform="translate(45.690477 0) scale(0.996264)"/>
       <use xlink:href="#CMR17-30" transform="translate(72.787654 0) scale(0.996264)"/>
      </g>
     </g>
    </g>
    <g id="text_44">
     <!-- $x$ -->
     <g transform="translate(440.879694 347.262822) scale(0.1 -0.1)">
      <use xlink:href="#CMMI12-78" transform="scale(0.996264)"/>
     </g>
    </g>
   </g>
   <g id="matplotlib.axis_6">
    <g id="ytick_10">
     <g id="line2d_51">
      <g>
       <use xlink:href="#m685b531e18" x="321.143975" y="320.488647" style="stroke: #000000; stroke-width: 0.8"/>
      </g>
     </g>
     <g id="text_45">
      <!-- $\mathdefault{0}$ -->
      <g transform="translate(309.16264 323.947896) scale(0.1 -0.1)">
       <use xlink:href="#CMR17-30" transform="scale(0.996264)"/>
      </g>
     </g>
    </g>
    <g id="ytick_11">
     <g id="line2d_52">
      <g>
       <use xlink:href="#m685b531e18" x="321.143975" y="290.853308" style="stroke: #000000; stroke-width: 0.8"/>
      </g>
     </g>
     <g id="text_46">
      <!-- $\mathdefault{1}$ -->
      <g transform="translate(309.16264 294.312558) scale(0.1 -0.1)">
       <use xlink:href="#CMR17-31" transform="scale(0.996264)"/>
      </g>
     </g>
    </g>
    <g id="ytick_12">
     <g id="line2d_53">
      <g>
       <use xlink:href="#m685b531e18" x="321.143975" y="261.21797" style="stroke: #000000; stroke-width: 0.8"/>
      </g>
     </g>
     <g id="text_47">
      <!-- $\mathdefault{2}$ -->
      <g transform="translate(309.16264 264.677219) scale(0.1 -0.1)">
       <use xlink:href="#CMR17-32" transform="scale(0.996264)"/>
      </g>
     </g>
    </g>
    <g id="ytick_13">
     <g id="line2d_54">
      <g>
       <use xlink:href="#m685b531e18" x="321.143975" y="231.582632" style="stroke: #000000; stroke-width: 0.8"/>
      </g>
     </g>
     <g id="text_48">
      <!-- $\mathdefault{3}$ -->
      <g transform="translate(309.16264 235.041881) scale(0.1 -0.1)">
       <use xlink:href="#CMR17-33" transform="scale(0.996264)"/>
      </g>
     </g>
    </g>
    <g id="text_49">
     <!-- $f\left(x\right)$ -->
     <g transform="translate(302.67198 286.562144) rotate(-90) scale(0.1 -0.1)">
      <use xlink:href="#CMMI12-66" transform="scale(0.996264)"/>
      <use xlink:href="#CMR17-28" transform="translate(75.32471 0.003177) scale(0.996264)"/>
      <use xlink:href="#CMMI12-78" transform="translate(110.605478 0) scale(0.996264)"/>
      <use xlink:href="#CMR17-29" transform="translate(166.039537 0.003177) scale(0.996264)"/>
     </g>
    </g>
   </g>
   <g id="line2d_55">
    <path d="M 369.56444 320.48766 
L 370.177966 320.379599 
L 370.791492 316.636694 
L 371.405019 294.063803 
L 372.018545 292.612382 
L 372.632071 315.611596 
L 373.245598 320.295469 
L 373.859124 320.483959 
L 375.699703 320.482479 
L 376.313229 320.202705 
L 376.926755 314.065189 
L 377.540282 286.95374 
L 378.153808 286.292792 
L 378.767334 313.269042 
L 379.380861 320.048508 
L 379.994387 320.466936 
L 381.834966 320.455093 
L 382.448492 319.805741 
L 383.062019 311.022214 
L 383.675545 282.093466 
L 384.289071 282.242234 
L 384.902597 310.55469 
L 385.516124 319.530161 
L 386.12965 320.410438 
L 387.356703 320.467923 
L 387.970229 320.340618 
L 388.583755 318.760659 
L 389.197282 305.87575 
L 389.810808 274.50749 
L 390.424334 275.629301 
L 391.037861 306.232993 
L 391.651387 318.382939 
L 392.264913 320.199004 
L 392.878439 320.40353 
L 393.491966 320.381326 
L 394.105492 320.027537 
L 394.719018 317.107425 
L 395.332545 301.75932 
L 395.946071 273.861838 
L 396.559597 275.844436 
L 397.173124 303.029653 
L 397.78665 316.665066 
L 398.400176 319.653025 
L 399.013703 320.147441 
L 399.627229 320.076387 
L 400.240755 319.241999 
L 400.854281 314.925976 
L 401.467808 299.882563 
L 402.081334 278.87779 
L 402.69486 280.63563 
L 403.308387 301.710224 
L 403.921913 314.634113 
L 404.535439 318.608929 
L 405.148966 319.49044 
L 405.762492 319.354254 
L 406.376018 317.913935 
L 406.989544 312.550363 
L 408.216597 285.842291 
L 408.830123 287.295933 
L 409.44365 301.479793 
L 410.057176 312.385064 
L 410.670702 316.867372 
L 411.284229 318.122655 
L 411.897755 317.872487 
L 412.511281 315.70584 
L 413.124808 310.281824 
L 414.35186 291.879887 
L 414.965386 293.079166 
L 416.192439 310.237415 
L 416.805965 314.312397 
L 417.419492 315.896057 
L 418.033018 315.493913 
L 418.646544 313.17233 
L 419.260071 308.424311 
L 419.873597 302.252009 
L 420.487123 297.713943 
L 421.10065 298.50491 
L 422.327702 308.508687 
L 422.941228 311.677734 
L 423.554755 312.919941 
L 424.168281 312.384571 
L 424.781807 310.506334 
L 426.00886 303.594875 
L 426.622386 301.549613 
L 427.235913 302.003074 
L 429.076491 308.975471 
L 429.690018 309.701305 
L 430.303544 309.243896 
L 430.91707 307.97233 
L 432.144123 304.63231 
L 432.757649 303.863794 
L 433.371176 304.217336 
L 435.211755 306.76713 
L 435.825281 306.950685 
L 436.438807 306.728889 
L 437.052333 306.126659 
L 437.66586 305.819746 
L 438.279386 305.227385 
L 438.892912 305.225411 
L 440.733491 305.565877 
L 441.347018 305.640138 
L 441.960544 305.537258 
L 442.57407 305.616454 
L 443.801123 305.482488 
L 446.868754 305.509133 
L 447.482281 305.795815 
L 448.095807 305.799269 
L 448.709333 305.985292 
L 449.32286 305.918925 
L 449.936386 305.610286 
L 450.549912 304.947857 
L 451.163439 304.587654 
L 451.776965 304.597523 
L 452.390491 305.083057 
L 454.23107 307.813692 
L 454.844596 307.976524 
L 455.458123 307.235887 
L 456.071649 305.855767 
L 456.685175 304.06536 
L 457.298702 302.67241 
L 457.912228 302.701029 
L 458.525754 304.483541 
L 459.752807 309.621369 
L 460.366333 310.835451 
L 460.979859 310.923775 
L 461.593386 309.502699 
L 462.206912 306.569758 
L 462.820438 302.452094 
L 463.433965 299.394809 
L 464.047491 299.567756 
L 464.661017 303.58402 
L 465.274544 308.529164 
L 465.88807 312.302662 
L 466.501596 314.153513 
L 467.115122 314.096276 
L 467.728649 312.187939 
L 468.342175 307.618541 
L 469.569228 294.283379 
L 470.182754 295.40519 
L 471.409807 310.774512 
L 472.023333 315.146045 
L 472.636859 316.899445 
L 473.250386 316.795331 
L 473.863912 314.830498 
L 474.477438 309.124239 
L 475.704491 287.718555 
L 476.318017 289.901237 
L 477.54507 313.105964 
L 478.158596 317.4247 
L 478.772122 318.787304 
L 479.385649 318.706135 
L 479.999175 317.072392 
L 480.612701 311.157907 
L 481.839754 279.738576 
L 482.45328 283.815286 
L 483.066806 303.381467 
L 483.680333 315.41225 
L 484.293859 319.114694 
L 484.907385 319.868406 
L 485.520912 319.840034 
L 486.134438 318.789278 
L 486.747964 313.732618 
L 487.361491 296.490487 
L 487.975017 273.849996 
L 488.588543 280.772556 
L 489.202069 306.015638 
L 489.815596 317.566807 
L 490.429122 319.940447 
L 491.042648 320.3157 
L 491.656175 320.28486 
L 492.269701 319.773421 
L 492.883227 316.027803 
L 493.496754 298.613958 
L 494.11028 271.071005 
L 494.723806 281.141888 
L 495.337333 309.616681 
L 495.950859 319.053015 
L 496.564385 320.322608 
L 497.177911 320.452873 
L 497.791438 320.440784 
L 498.404964 320.237985 
L 499.01849 318.032111 
L 499.632017 302.782445 
L 500.245543 273.836427 
L 500.859069 285.676499 
L 501.472596 313.242644 
L 502.086122 319.927371 
L 502.699648 320.451639 
L 503.926701 320.478531 
L 504.540227 320.419073 
L 505.153753 319.335997 
L 505.76728 308.641666 
L 506.380806 283.944564 
L 506.994332 295.527807 
L 507.607859 316.66778 
L 508.221385 320.311752 
L 508.834911 320.480505 
L 510.67549 320.475077 
L 511.289016 320.058623 
L 511.902543 313.658357 
L 512.516069 296.353067 
L 513.129595 305.368506 
L 513.743122 318.836153 
L 514.356648 320.443004 
L 514.970174 320.487413 
L 514.970174 320.487413 
" clip-path="url(#p268d72d07f)" style="fill: none; stroke: #1f77b4; stroke-width: 1.5; stroke-linecap: square"/>
   </g>
   <g id="line2d_56">
    <path d="M 369.625425 314.331832 
L 375.877141 312.434977 
L 382.128858 310.90883 
L 388.380575 308.36835 
L 394.632291 307.204848 
L 400.884008 307.229932 
L 407.135724 307.679062 
L 413.387441 307.787991 
L 419.639158 307.81891 
L 425.890874 307.311477 
L 432.142591 306.501808 
L 438.394307 305.875592 
L 444.646024 305.559942 
L 450.897741 305.598124 
L 457.149457 306.082337 
L 463.401174 306.625192 
L 469.65289 307.036261 
L 475.904607 307.012098 
L 482.156324 306.701943 
L 488.40804 306.988273 
L 494.659757 307.87852 
L 500.911473 309.716782 
L 507.16319 312.77634 
L 513.414907 315.755563 
" clip-path="url(#p268d72d07f)" style="fill: none; stroke: #ff7f0e; stroke-width: 1.5; stroke-linecap: square"/>
   </g>
   <g id="line2d_57">
    <path d="M 320.837519 320.488647 
L 355.773582 320.384621 
L 360.063976 320.129732 
L 363.128543 319.736782 
L 365.886653 319.156843 
L 368.338307 318.421478 
L 370.78996 317.465217 
L 373.54807 316.143812 
L 376.919094 314.269212 
L 383.967598 310.260011 
L 386.725708 308.973443 
L 389.177362 308.059509 
L 391.629015 307.381377 
L 394.080669 306.933491 
L 396.838779 306.673659 
L 399.903346 306.623687 
L 403.887283 306.79488 
L 414.613268 307.364278 
L 419.210118 307.319835 
L 424.419882 307.027617 
L 441.887914 305.805378 
L 446.791221 305.834416 
L 452.000985 306.102095 
L 460.275315 306.802791 
L 466.710906 307.257345 
L 471.614213 307.374234 
L 476.211064 307.259055 
L 483.259568 306.814243 
L 487.856418 306.619706 
L 490.920985 306.691252 
L 493.679095 306.977575 
L 496.130749 307.453232 
L 498.582402 308.160985 
L 501.034056 309.103641 
L 503.792166 310.41754 
L 507.16319 312.287886 
L 514.518151 316.457485 
L 517.276261 317.724729 
L 519.727915 318.625943 
L 522.179568 319.307168 
L 524.937678 319.834238 
L 528.002245 320.183382 
L 531.986182 320.394349 
L 538.72823 320.481079 
L 566.615789 320.488647 
L 566.615789 320.488647 
" clip-path="url(#p268d72d07f)" style="fill: none; stroke-dasharray: 1.2,1.2; stroke-dashoffset: 0; stroke: #008000; stroke-width: 1.5"/>
   </g>
   <g id="patch_13">
    <path d="M 321.143975 320.488647 
L 321.143975 231.582632 
" style="fill: none; stroke: #000000; stroke-width: 0.8; stroke-linejoin: miter; stroke-linecap: square"/>
   </g>
   <g id="patch_14">
    <path d="M 566.309332 320.488647 
L 566.309332 231.582632 
" style="fill: none; stroke: #000000; stroke-width: 0.8; stroke-linejoin: miter; stroke-linecap: square"/>
   </g>
   <g id="patch_15">
    <path d="M 321.143975 320.488647 
L 566.309332 320.488647 
" style="fill: none; stroke: #000000; stroke-width: 0.8; stroke-linejoin: miter; stroke-linecap: square"/>
   </g>
   <g id="patch_16">
    <path d="M 321.143975 231.582632 
L 566.309332 231.582632 
" style="fill: none; stroke: #000000; stroke-width: 0.8; stroke-linejoin: miter; stroke-linecap: square"/>
   </g>
   <g id="text_50">
    <!-- b) $\lambda = -0.25$ -->
    <g transform="translate(474.372323 255.290902) scale(0.1 -0.1)">
     <use xlink:href="#CMSS17-62" transform="scale(0.996264)"/>
     <use xlink:href="#CMSS17-29" transform="translate(48.204943 0) scale(0.996264)"/>
     <use xlink:href="#CMMI12-15" transform="translate(115.86797 0) scale(0.996264)"/>
     <use xlink:href="#CMR17-3d" transform="translate(200.446051 0) scale(0.996264)"/>
     <use xlink:href="#CMSY10-0" transform="translate(299.834848 0) scale(0.996264)"/>
     <use xlink:href="#CMR17-30" transform="translate(377.322315 0) scale(0.996264)"/>
     <use xlink:href="#CMMI12-3a" transform="translate(423.012793 0) scale(0.996264)"/>
     <use xlink:href="#CMR17-32" transform="translate(450.10997 0) scale(0.996264)"/>
     <use xlink:href="#CMR17-35" transform="translate(495.800447 0) scale(0.996264)"/>
    </g>
   </g>
  </g>
  <g id="axes_4">
   <g id="patch_17">
    <path d="M 605.543975 320.488647 
L 850.709332 320.488647 
L 850.709332 231.582632 
L 605.543975 231.582632 
z
" style="fill: #ffffff"/>
   </g>
   <g id="matplotlib.axis_7">
    <g id="xtick_27">
     <g id="line2d_58">
      <g>
       <use xlink:href="#m3c13734502" x="605.543975" y="320.488647" style="stroke: #000000; stroke-width: 0.8"/>
      </g>
     </g>
     <g id="text_51">
      <!-- $\mathdefault{−2.0}$ -->
      <g transform="translate(595.304564 334.407145) scale(0.1 -0.1)">
       <use xlink:href="#CMSY10-0" transform="scale(0.996264)"/>
       <use xlink:href="#CMR17-32" transform="translate(77.487468 0) scale(0.996264)"/>
       <use xlink:href="#CMMI12-3a" transform="translate(123.177945 0) scale(0.996264)"/>
       <use xlink:href="#CMR17-30" transform="translate(150.275122 0) scale(0.996264)"/>
      </g>
     </g>
    </g>
    <g id="xtick_28">
     <g id="line2d_59">
      <g>
       <use xlink:href="#m3c13734502" x="636.189645" y="320.488647" style="stroke: #000000; stroke-width: 0.8"/>
      </g>
     </g>
     <g id="text_52">
      <!-- $\mathdefault{−1.5}$ -->
      <g transform="translate(625.950234 334.407145) scale(0.1 -0.1)">
       <use xlink:href="#CMSY10-0" transform="scale(0.996264)"/>
       <use xlink:href="#CMR17-31" transform="translate(77.487468 0) scale(0.996264)"/>
       <use xlink:href="#CMMI12-3a" transform="translate(123.177945 0) scale(0.996264)"/>
       <use xlink:href="#CMR17-35" transform="translate(150.275122 0) scale(0.996264)"/>
      </g>
     </g>
    </g>
    <g id="xtick_29">
     <g id="line2d_60">
      <g>
       <use xlink:href="#m3c13734502" x="666.835315" y="320.488647" style="stroke: #000000; stroke-width: 0.8"/>
      </g>
     </g>
     <g id="text_53">
      <!-- $\mathdefault{−1.0}$ -->
      <g transform="translate(656.595903 334.407145) scale(0.1 -0.1)">
       <use xlink:href="#CMSY10-0" transform="scale(0.996264)"/>
       <use xlink:href="#CMR17-31" transform="translate(77.487468 0) scale(0.996264)"/>
       <use xlink:href="#CMMI12-3a" transform="translate(123.177945 0) scale(0.996264)"/>
       <use xlink:href="#CMR17-30" transform="translate(150.275122 0) scale(0.996264)"/>
      </g>
     </g>
    </g>
    <g id="xtick_30">
     <g id="line2d_61">
      <g>
       <use xlink:href="#m3c13734502" x="697.480984" y="320.488647" style="stroke: #000000; stroke-width: 0.8"/>
      </g>
     </g>
     <g id="text_54">
      <!-- $\mathdefault{−0.5}$ -->
      <g transform="translate(687.241573 334.407145) scale(0.1 -0.1)">
       <use xlink:href="#CMSY10-0" transform="scale(0.996264)"/>
       <use xlink:href="#CMR17-30" transform="translate(77.487468 0) scale(0.996264)"/>
       <use xlink:href="#CMMI12-3a" transform="translate(123.177945 0) scale(0.996264)"/>
       <use xlink:href="#CMR17-35" transform="translate(150.275122 0) scale(0.996264)"/>
      </g>
     </g>
    </g>
    <g id="xtick_31">
     <g id="line2d_62">
      <g>
       <use xlink:href="#m3c13734502" x="728.126654" y="320.488647" style="stroke: #000000; stroke-width: 0.8"/>
      </g>
     </g>
     <g id="text_55">
      <!-- $\mathdefault{0.0}$ -->
      <g transform="translate(721.761614 334.407145) scale(0.1 -0.1)">
       <use xlink:href="#CMR17-30" transform="scale(0.996264)"/>
       <use xlink:href="#CMMI12-3a" transform="translate(45.690477 0) scale(0.996264)"/>
       <use xlink:href="#CMR17-30" transform="translate(72.787654 0) scale(0.996264)"/>
      </g>
     </g>
    </g>
    <g id="xtick_32">
     <g id="line2d_63">
      <g>
       <use xlink:href="#m3c13734502" x="758.772323" y="320.488647" style="stroke: #000000; stroke-width: 0.8"/>
      </g>
     </g>
     <g id="text_56">
      <!-- $\mathdefault{0.5}$ -->
      <g transform="translate(752.407284 334.407145) scale(0.1 -0.1)">
       <use xlink:href="#CMR17-30" transform="scale(0.996264)"/>
       <use xlink:href="#CMMI12-3a" transform="translate(45.690477 0) scale(0.996264)"/>
       <use xlink:href="#CMR17-35" transform="translate(72.787654 0) scale(0.996264)"/>
      </g>
     </g>
    </g>
    <g id="xtick_33">
     <g id="line2d_64">
      <g>
       <use xlink:href="#m3c13734502" x="789.417993" y="320.488647" style="stroke: #000000; stroke-width: 0.8"/>
      </g>
     </g>
     <g id="text_57">
      <!-- $\mathdefault{1.0}$ -->
      <g transform="translate(783.052954 334.407145) scale(0.1 -0.1)">
       <use xlink:href="#CMR17-31" transform="scale(0.996264)"/>
       <use xlink:href="#CMMI12-3a" transform="translate(45.690477 0) scale(0.996264)"/>
       <use xlink:href="#CMR17-30" transform="translate(72.787654 0) scale(0.996264)"/>
      </g>
     </g>
    </g>
    <g id="xtick_34">
     <g id="line2d_65">
      <g>
       <use xlink:href="#m3c13734502" x="820.063663" y="320.488647" style="stroke: #000000; stroke-width: 0.8"/>
      </g>
     </g>
     <g id="text_58">
      <!-- $\mathdefault{1.5}$ -->
      <g transform="translate(813.698623 334.407145) scale(0.1 -0.1)">
       <use xlink:href="#CMR17-31" transform="scale(0.996264)"/>
       <use xlink:href="#CMMI12-3a" transform="translate(45.690477 0) scale(0.996264)"/>
       <use xlink:href="#CMR17-35" transform="translate(72.787654 0) scale(0.996264)"/>
      </g>
     </g>
    </g>
    <g id="xtick_35">
     <g id="line2d_66">
      <g>
       <use xlink:href="#m3c13734502" x="850.709332" y="320.488647" style="stroke: #000000; stroke-width: 0.8"/>
      </g>
     </g>
     <g id="text_59">
      <!-- $\mathdefault{2.0}$ -->
      <g transform="translate(844.344293 334.407145) scale(0.1 -0.1)">
       <use xlink:href="#CMR17-32" transform="scale(0.996264)"/>
       <use xlink:href="#CMMI12-3a" transform="translate(45.690477 0) scale(0.996264)"/>
       <use xlink:href="#CMR17-30" transform="translate(72.787654 0) scale(0.996264)"/>
      </g>
     </g>
    </g>
    <g id="text_60">
     <!-- $x$ -->
     <g transform="translate(725.279694 347.262822) scale(0.1 -0.1)">
      <use xlink:href="#CMMI12-78" transform="scale(0.996264)"/>
     </g>
    </g>
   </g>
   <g id="matplotlib.axis_8">
    <g id="ytick_14">
     <g id="line2d_67">
      <g>
       <use xlink:href="#m685b531e18" x="605.543975" y="320.488647" style="stroke: #000000; stroke-width: 0.8"/>
      </g>
     </g>
     <g id="text_61">
      <!-- $\mathdefault{0}$ -->
      <g transform="translate(593.56264 323.947896) scale(0.1 -0.1)">
       <use xlink:href="#CMR17-30" transform="scale(0.996264)"/>
      </g>
     </g>
    </g>
    <g id="ytick_15">
     <g id="line2d_68">
      <g>
       <use xlink:href="#m685b531e18" x="605.543975" y="290.853308" style="stroke: #000000; stroke-width: 0.8"/>
      </g>
     </g>
     <g id="text_62">
      <!-- $\mathdefault{1}$ -->
      <g transform="translate(593.56264 294.312558) scale(0.1 -0.1)">
       <use xlink:href="#CMR17-31" transform="scale(0.996264)"/>
      </g>
     </g>
    </g>
    <g id="ytick_16">
     <g id="line2d_69">
      <g>
       <use xlink:href="#m685b531e18" x="605.543975" y="261.21797" style="stroke: #000000; stroke-width: 0.8"/>
      </g>
     </g>
     <g id="text_63">
      <!-- $\mathdefault{2}$ -->
      <g transform="translate(593.56264 264.677219) scale(0.1 -0.1)">
       <use xlink:href="#CMR17-32" transform="scale(0.996264)"/>
      </g>
     </g>
    </g>
    <g id="ytick_17">
     <g id="line2d_70">
      <g>
       <use xlink:href="#m685b531e18" x="605.543975" y="231.582632" style="stroke: #000000; stroke-width: 0.8"/>
      </g>
     </g>
     <g id="text_64">
      <!-- $\mathdefault{3}$ -->
      <g transform="translate(593.56264 235.041881) scale(0.1 -0.1)">
       <use xlink:href="#CMR17-33" transform="scale(0.996264)"/>
      </g>
     </g>
    </g>
    <g id="text_65">
     <!-- $f\left(x\right)$ -->
     <g transform="translate(587.07198 286.562144) rotate(-90) scale(0.1 -0.1)">
      <use xlink:href="#CMMI12-66" transform="scale(0.996264)"/>
      <use xlink:href="#CMR17-28" transform="translate(75.32471 0.003177) scale(0.996264)"/>
      <use xlink:href="#CMMI12-78" transform="translate(110.605478 0) scale(0.996264)"/>
      <use xlink:href="#CMR17-29" transform="translate(166.039537 0.003177) scale(0.996264)"/>
     </g>
    </g>
   </g>
   <g id="line2d_71">
    <path d="M 642.013548 320.488155 
L 642.628913 320.40649 
L 643.244278 317.894817 
L 643.859643 312.284076 
L 644.475008 317.798639 
L 645.090373 320.395175 
L 646.321103 320.488647 
L 648.167198 320.467247 
L 648.782564 317.902934 
L 649.397929 266.285839 
L 650.013294 178.690391 
L 650.628659 274.579208 
L 651.244024 318.366109 
L 651.859389 320.459375 
L 653.705484 320.487909 
L 654.320849 320.385336 
L 654.936214 314.327409 
L 655.551579 236.870651 
L 656.166944 140.33147 
L 656.782309 260.35951 
L 657.397674 316.752006 
L 658.013039 320.401571 
L 659.243769 320.487417 
L 659.859134 320.483235 
L 660.474499 320.292357 
L 661.089864 314.516811 
L 662.320595 223.081658 
L 662.93596 286.14309 
L 663.551325 317.559796 
L 664.16669 320.366396 
L 664.782055 320.481759 
L 666.012785 320.466509 
L 666.62815 320.043182 
L 667.243515 313.082764 
L 667.85888 275.250972 
L 668.474245 250.727533 
L 669.08961 293.840702 
L 669.704975 317.352437 
L 670.32034 320.264807 
L 670.935705 320.463803 
L 672.166435 320.416821 
L 672.7818 319.709637 
L 673.397165 312.851545 
L 674.01253 287.924457 
L 674.627895 276.582939 
L 675.243261 302.037402 
L 675.858626 317.391055 
L 676.473991 320.112055 
L 677.089356 320.412886 
L 677.704721 320.436007 
L 678.320086 320.303918 
L 678.935451 319.356905 
L 679.550816 313.704594 
L 680.166181 299.630022 
L 680.781546 295.24105 
L 681.396911 308.553831 
L 682.012276 317.753134 
L 682.627641 319.964223 
L 683.243006 320.318922 
L 683.858371 320.365904 
L 684.473736 320.178223 
L 685.089101 319.185951 
L 685.704466 315.429141 
L 686.319831 308.720357 
L 686.935196 307.446441 
L 687.550561 313.568569 
L 688.165926 318.254189 
L 688.781292 319.858207 
L 689.396657 320.210938 
L 690.012022 320.247343 
L 690.627387 320.025717 
L 691.242752 319.127409 
L 691.858117 316.821372 
L 692.473482 313.718123 
L 693.088847 313.414095 
L 694.319577 318.658822 
L 694.934942 319.740876 
L 695.550307 320.079832 
L 696.165672 320.103446 
L 696.781037 319.834347 
L 697.396402 319.144135 
L 698.627132 316.705025 
L 699.242497 316.669604 
L 700.473227 319.0637 
L 701.088592 319.690696 
L 701.703958 319.937166 
L 702.319323 319.935936 
L 702.934688 319.739646 
L 703.550053 319.325912 
L 704.165418 318.657346 
L 704.780783 318.236233 
L 705.396148 318.255911 
L 707.242243 319.67274 
L 707.857608 319.809749 
L 709.088338 319.707177 
L 710.934433 319.041071 
L 711.549798 319.09125 
L 714.011258 319.747763 
L 715.241989 319.668804 
L 716.472719 319.454066 
L 718.318814 319.529827 
L 720.780274 319.661179 
L 723.241734 319.551473 
L 726.933924 319.624283 
L 736.779765 319.494899 
L 739.241225 319.633384 
L 740.471955 319.458248 
L 741.702686 319.17316 
L 742.318051 319.146841 
L 743.548781 319.430944 
L 744.779511 319.705455 
L 745.394876 319.710867 
L 746.625606 319.308694 
L 747.856336 318.585029 
L 748.471701 318.558463 
L 750.317796 319.704963 
L 750.933161 319.82869 
L 751.548526 319.816883 
L 752.163891 319.586648 
L 752.779256 319.02459 
L 754.009986 317.433855 
L 754.625351 317.495841 
L 755.856082 319.286802 
L 756.471447 319.809995 
L 757.086812 319.995462 
L 757.702177 319.943561 
L 758.317542 319.572135 
L 758.932907 318.558217 
L 760.163637 314.710641 
L 760.779002 315.208499 
L 761.394367 317.410733 
L 762.009732 319.183245 
L 762.625097 319.912814 
L 763.240462 320.155347 
L 763.855827 320.076389 
L 764.471192 319.586648 
L 765.086557 317.780191 
L 766.317287 309.078746 
L 766.932652 310.756803 
L 767.548017 315.985295 
L 768.163382 319.13528 
L 768.778748 320.090901 
L 769.394113 320.268251 
L 770.009478 320.209462 
L 770.624843 319.642485 
L 771.240208 316.783245 
L 772.470938 297.470834 
L 773.086303 302.61594 
L 773.701668 314.340691 
L 774.317033 319.298609 
L 774.932398 320.23652 
L 775.547763 320.386074 
L 776.163128 320.335649 
L 776.778493 319.76326 
L 777.393858 315.643633 
L 778.009223 297.639329 
L 778.624588 274.789273 
L 779.239953 289.150162 
L 779.855318 312.789067 
L 780.470683 319.521956 
L 781.086048 320.36738 
L 782.316779 320.407474 
L 782.932144 319.886986 
L 783.547509 314.231969 
L 784.162874 280.451177 
L 784.778239 234.295269 
L 785.393604 269.432626 
L 786.008969 311.732841 
L 786.624334 319.833855 
L 787.239699 320.437237 
L 788.470429 320.460113 
L 789.085794 320.13075 
L 789.701159 313.689344 
L 790.316524 262.183431 
L 790.931889 187.453577 
L 792.162619 312.846134 
L 792.777984 320.170598 
L 793.393349 320.47684 
L 794.624079 320.481021 
L 795.239445 320.285715 
L 795.85481 313.704348 
L 796.470175 240.526364 
L 797.08554 131.391427 
L 797.700905 243.072967 
L 798.31627 314.695637 
L 798.931635 320.357295 
L 799.547 320.485695 
L 800.77773 320.485941 
L 801.393095 320.360492 
L 802.00846 313.546431 
L 802.623825 212.852941 
L 803.23919 62.644478 
L 803.854555 235.497114 
L 804.46992 316.487827 
L 805.085285 320.444125 
L 806.93138 320.488401 
L 807.546745 320.471428 
L 808.16211 319.048696 
L 808.777476 291.488422 
L 809.392841 251.951761 
L 810.008206 302.700802 
L 810.623571 319.988329 
L 811.238936 320.486679 
L 811.238936 320.486679 
" clip-path="url(#pe0c1207463)" style="fill: none; stroke: #1f77b4; stroke-width: 1.5; stroke-linecap: square"/>
   </g>
   <g id="line2d_72">
    <path d="M 642.962338 319.130189 
L 649.152763 295.968192 
L 655.343188 287.287556 
L 661.533614 301.093418 
L 667.724039 305.289435 
L 673.914464 309.857311 
L 680.10489 313.5719 
L 686.295315 316.350825 
L 692.48574 317.822615 
L 698.676165 318.700477 
L 704.866591 319.179288 
L 711.057016 319.455224 
L 717.247441 319.575037 
L 723.437866 319.599195 
L 729.628292 319.605308 
L 735.818717 319.546795 
L 742.009142 319.428939 
L 748.199567 319.244671 
L 754.389993 318.90719 
L 760.580418 318.137748 
L 766.770843 316.642166 
L 772.961269 313.922463 
L 779.151694 309.11342 
L 785.342119 301.234602 
L 791.532544 293.402779 
L 797.72297 284.762439 
L 803.913395 274.603876 
L 810.10382 308.829855 
" clip-path="url(#pe0c1207463)" style="fill: none; stroke: #ff7f0e; stroke-width: 1.5; stroke-linecap: square"/>
   </g>
   <g id="line2d_73">
    <path d="M 605.237519 320.488644 
L 623.012007 320.378619 
L 626.076574 320.131798 
L 628.221771 319.754044 
L 630.060511 319.207723 
L 631.592795 318.537129 
L 633.125078 317.623085 
L 634.657361 316.42725 
L 636.189645 314.924487 
L 637.721928 313.109556 
L 639.560669 310.549569 
L 641.705866 307.152265 
L 647.222086 298.130961 
L 648.75437 296.066701 
L 650.286653 294.383347 
L 651.51248 293.357222 
L 652.738307 292.639999 
L 653.964133 292.240727 
L 654.883503 292.148618 
L 655.802874 292.228675 
L 657.0287 292.588422 
L 658.254527 293.212331 
L 659.480354 294.067486 
L 661.012637 295.405211 
L 662.851378 297.30459 
L 665.915945 300.856528 
L 670.512795 306.174833 
L 672.964449 308.689744 
L 675.416102 310.880706 
L 677.561299 312.517765 
L 679.706496 313.902357 
L 682.158149 315.202488 
L 684.609803 316.240164 
L 687.367913 317.146942 
L 690.43248 317.897724 
L 693.803504 318.488774 
L 697.787441 318.96289 
L 702.997205 319.345209 
L 710.045709 319.618876 
L 720.465236 319.7804 
L 735.481615 319.782663 
L 747.433426 319.584603 
L 754.788386 319.253744 
L 759.99815 318.803852 
L 763.982087 318.245932 
L 767.353111 317.551898 
L 770.111221 316.774459 
L 772.562875 315.879073 
L 775.014528 314.74797 
L 777.159725 313.531468 
L 779.304922 312.076467 
L 781.450119 310.364929 
L 783.595316 308.392295 
L 786.046969 305.840275 
L 789.417993 301.952146 
L 794.014844 296.643085 
L 795.853584 294.838506 
L 797.385867 293.613241 
L 798.611694 292.869296 
L 799.837521 292.373686 
L 801.063348 292.156527 
L 801.982718 292.190501 
L 802.902088 292.40053 
L 803.821458 292.789641 
L 805.047285 293.585418 
L 806.273111 294.685908 
L 807.498938 296.066701 
L 809.031222 298.130961 
L 811.176419 301.482163 
L 817.305552 311.445303 
L 819.144293 313.872323 
L 820.676576 315.563276 
L 822.20886 316.941385 
L 823.741143 318.02059 
L 825.273427 318.83215 
L 826.80571 319.417732 
L 828.64445 319.886041 
L 830.789647 320.202656 
L 833.854214 320.403535 
L 839.370435 320.48267 
L 851.015789 320.488644 
L 851.015789 320.488644 
" clip-path="url(#pe0c1207463)" style="fill: none; stroke-dasharray: 1.2,1.2; stroke-dashoffset: 0; stroke: #008000; stroke-width: 1.5"/>
   </g>
   <g id="patch_18">
    <path d="M 605.543975 320.488647 
L 605.543975 231.582632 
" style="fill: none; stroke: #000000; stroke-width: 0.8; stroke-linejoin: miter; stroke-linecap: square"/>
   </g>
   <g id="patch_19">
    <path d="M 850.709332 320.488647 
L 850.709332 231.582632 
" style="fill: none; stroke: #000000; stroke-width: 0.8; stroke-linejoin: miter; stroke-linecap: square"/>
   </g>
   <g id="patch_20">
    <path d="M 605.543975 320.488647 
L 850.709332 320.488647 
" style="fill: none; stroke: #000000; stroke-width: 0.8; stroke-linejoin: miter; stroke-linecap: square"/>
   </g>
   <g id="patch_21">
    <path d="M 605.543975 231.582632 
L 850.709332 231.582632 
" style="fill: none; stroke: #000000; stroke-width: 0.8; stroke-linejoin: miter; stroke-linecap: square"/>
   </g>
   <g id="text_66">
    <!-- c) $\lambda = 0.5$ -->
    <g transform="translate(728.126654 255.290902) scale(0.1 -0.1)">
     <use xlink:href="#CMSS17-63" transform="scale(0.996264)"/>
     <use xlink:href="#CMSS17-29" transform="translate(41.638822 0) scale(0.996264)"/>
     <use xlink:href="#CMMI12-15" transform="translate(109.301849 0) scale(0.996264)"/>
     <use xlink:href="#CMR17-3d" transform="translate(193.87993 0) scale(0.996264)"/>
     <use xlink:href="#CMR17-30" transform="translate(293.268727 0) scale(0.996264)"/>
     <use xlink:href="#CMMI12-3a" transform="translate(338.959204 0) scale(0.996264)"/>
     <use xlink:href="#CMR17-35" transform="translate(366.056381 0) scale(0.996264)"/>
    </g>
   </g>
  </g>
  <g id="legend_1">
   <g id="patch_22">
    <path d="M 27.92 216 
L 138.25144 216 
Q 140.25144 216 140.25144 214 
L 140.25144 173.188465 
Q 140.25144 171.188465 138.25144 171.188465 
L 27.92 171.188465 
Q 25.92 171.188465 25.92 173.188465 
L 25.92 214 
Q 25.92 216 27.92 216 
z
" style="fill: #ffffff; opacity: 0.8; stroke: #cccccc; stroke-linejoin: miter"/>
   </g>
   <g id="line2d_74">
    <path d="M 29.92 178.688465 
L 39.92 178.688465 
L 49.92 178.688465 
" style="fill: none; stroke: #1f77b4; stroke-width: 1.5; stroke-linecap: square"/>
   </g>
   <g id="text_67">
    <!-- Simulated PDF -->
    <g transform="translate(57.92 182.188465) scale(0.1 -0.1)">
     <defs>
      <path id="CMSS17-53" d="M 2797 4169 
C 2515 4334 2208 4480 1690 4480 
C 864 4480 333 3879 333 3266 
C 333 3025 403 2753 653 2475 
C 902 2196 1184 2121 1542 2033 
C 1690 1994 1939 1924 1984 1906 
C 2342 1767 2515 1444 2515 1140 
C 2515 742 2202 318 1645 318 
C 1453 318 890 318 358 819 
L 269 318 
C 794 -64 1363 -128 1651 -128 
C 2438 -128 3002 488 3002 1186 
C 3002 1440 2925 1763 2656 2061 
C 2394 2347 2163 2410 1638 2549 
C 1338 2626 1146 2677 986 2873 
C 877 3013 819 3146 819 3317 
C 819 3673 1126 4060 1690 4060 
C 1971 4060 2336 4002 2707 3660 
L 2797 4169 
z
" transform="scale(0.015625)"/>
      <path id="CMSS17-69" d="M 979 4183 
L 442 4183 
L 442 3648 
L 979 3648 
L 979 4183 
z
M 947 2739 
L 474 2739 
L 474 0 
L 947 0 
L 947 2739 
z
" transform="scale(0.015625)"/>
      <path id="CMSS17-6d" d="M 4288 1877 
C 4288 2308 4179 2816 3462 2816 
C 2982 2816 2694 2516 2566 2331 
C 2451 2670 2182 2816 1798 2816 
C 1363 2816 1088 2568 941 2389 
L 941 2758 
L 474 2758 
L 474 0 
L 960 0 
L 960 1559 
C 960 1939 1101 2428 1555 2428 
C 2138 2428 2138 2016 2138 1829 
L 2138 0 
L 2624 0 
L 2624 1559 
C 2624 1939 2765 2428 3219 2428 
C 3802 2428 3802 2016 3802 1829 
L 3802 0 
L 4288 0 
L 4288 1877 
z
" transform="scale(0.015625)"/>
      <path id="CMSS17-75" d="M 2618 2739 
L 2131 2739 
L 2131 972 
C 2131 498 1786 306 1421 306 
C 998 306 960 447 960 709 
L 960 2739 
L 474 2739 
L 474 678 
C 474 179 646 -64 1088 -64 
C 1306 -64 1798 -13 2144 306 
L 2144 0 
L 2618 0 
L 2618 2739 
z
" transform="scale(0.015625)"/>
      <path id="CMSS17-6c" d="M 947 4416 
L 474 4416 
L 474 0 
L 947 0 
L 947 4416 
z
" transform="scale(0.015625)"/>
      <path id="CMSS17-74" d="M 1069 2368 
L 1901 2368 
L 1901 2737 
L 1069 2737 
L 1069 3520 
L 614 3520 
L 614 2737 
L 109 2737 
L 109 2368 
L 602 2368 
L 602 749 
C 602 384 685 -64 1107 -64 
C 1427 -64 1722 25 2003 172 
L 1901 548 
C 1747 414 1562 337 1363 337 
C 1082 337 1069 696 1069 856 
L 1069 2368 
z
" transform="scale(0.015625)"/>
      <path id="CMSS17-65" d="M 2502 1377 
C 2502 1590 2490 2003 2285 2345 
C 2061 2713 1696 2816 1421 2816 
C 755 2816 192 2188 192 1375 
C 192 582 774 -64 1510 -64 
C 1798 -64 2150 19 2470 248 
C 2470 274 2458 414 2451 420 
C 2451 433 2432 630 2432 656 
C 2125 407 1773 325 1517 325 
C 1107 325 666 667 646 1377 
L 2502 1377 
z
M 698 1728 
C 781 2084 1062 2421 1421 2421 
C 1517 2421 1965 2421 2080 1728 
L 698 1728 
z
" transform="scale(0.015625)"/>
      <path id="CMSS17-64" d="M 2611 4416 
L 2138 4416 
L 2138 2438 
C 1939 2603 1613 2756 1254 2756 
C 672 2756 211 2131 211 1347 
C 211 562 666 -64 1235 -64 
C 1677 -64 1971 172 2125 306 
L 2125 -13 
L 2611 -13 
L 2611 4416 
z
M 2125 836 
C 2125 747 2125 653 1926 482 
C 1798 375 1645 325 1498 325 
C 1152 325 698 576 698 1340 
C 698 2134 1210 2368 1562 2368 
C 1798 2368 1990 2254 2125 2065 
L 2125 836 
z
" transform="scale(0.015625)"/>
      <path id="CMSS17-50" d="M 2106 1856 
C 2874 1856 3501 2453 3501 3158 
C 3501 3850 2899 4453 2067 4453 
L 570 4453 
L 570 0 
L 1107 0 
L 1107 1856 
L 2106 1856 
z
M 1926 4096 
C 2669 4096 2995 3627 2995 3157 
C 2995 2720 2694 2226 1926 2226 
L 1094 2226 
L 1094 4096 
L 1926 4096 
z
" transform="scale(0.015625)"/>
      <path id="CMSS17-44" d="M 570 4416 
L 570 0 
L 2144 0 
C 3194 0 4000 980 4000 2170 
C 4000 3398 3194 4416 2144 4416 
L 570 4416 
z
M 1094 357 
L 1094 4059 
L 2003 4059 
C 2861 4059 3475 3277 3475 2170 
C 3475 1107 2867 357 2003 357 
L 1094 357 
z
" transform="scale(0.015625)"/>
      <path id="CMSS17-46" d="M 2918 1984 
L 2918 2373 
L 1101 2373 
L 1101 3968 
L 1882 3968 
C 1958 3968 2035 3968 2112 3968 
L 3168 3968 
L 3168 4375 
L 563 4375 
L 563 -32 
L 1101 -32 
L 1101 1984 
L 2918 1984 
z
" transform="scale(0.015625)"/>
     </defs>
     <use xlink:href="#CMSS17-53" transform="scale(0.996264)"/>
     <use xlink:href="#CMSS17-69" transform="translate(52.048516 0) scale(0.996264)"/>
     <use xlink:href="#CMSS17-6d" transform="translate(74.229239 0) scale(0.996264)"/>
     <use xlink:href="#CMSS17-75" transform="translate(148.458494 0) scale(0.996264)"/>
     <use xlink:href="#CMSS17-6c" transform="translate(196.663437 0) scale(0.996264)"/>
     <use xlink:href="#CMSS17-61" transform="translate(218.84416 0) scale(0.996264)"/>
     <use xlink:href="#CMSS17-74" transform="translate(263.76608 0) scale(0.996264)"/>
     <use xlink:href="#CMSS17-65" transform="translate(297.597647 0) scale(0.996264)"/>
     <use xlink:href="#CMSS17-64" transform="translate(339.236469 0) scale(0.996264)"/>
     <use xlink:href="#CMSS17-50" transform="translate(418.670525 0) scale(0.996264)"/>
     <use xlink:href="#CMSS17-44" transform="translate(478.406111 0) scale(0.996264)"/>
     <use xlink:href="#CMSS17-46" transform="translate(545.948953 0) scale(0.996264)"/>
    </g>
   </g>
   <g id="line2d_75">
    <path d="M 29.92 192.625643 
L 39.92 192.625643 
L 49.92 192.625643 
" style="fill: none; stroke: #ff7f0e; stroke-width: 1.5; stroke-linecap: square"/>
   </g>
   <g id="text_68">
    <!-- Simulated PDF -->
    <g transform="translate(57.92 196.125643) scale(0.1 -0.1)">
     <use xlink:href="#CMSS17-53" transform="scale(0.996264)"/>
     <use xlink:href="#CMSS17-69" transform="translate(52.048516 0) scale(0.996264)"/>
     <use xlink:href="#CMSS17-6d" transform="translate(74.229239 0) scale(0.996264)"/>
     <use xlink:href="#CMSS17-75" transform="translate(148.458494 0) scale(0.996264)"/>
     <use xlink:href="#CMSS17-6c" transform="translate(196.663437 0) scale(0.996264)"/>
     <use xlink:href="#CMSS17-61" transform="translate(218.84416 0) scale(0.996264)"/>
     <use xlink:href="#CMSS17-74" transform="translate(263.76608 0) scale(0.996264)"/>
     <use xlink:href="#CMSS17-65" transform="translate(297.597647 0) scale(0.996264)"/>
     <use xlink:href="#CMSS17-64" transform="translate(339.236469 0) scale(0.996264)"/>
     <use xlink:href="#CMSS17-50" transform="translate(418.670525 0) scale(0.996264)"/>
     <use xlink:href="#CMSS17-44" transform="translate(478.406111 0) scale(0.996264)"/>
     <use xlink:href="#CMSS17-46" transform="translate(545.948953 0) scale(0.996264)"/>
    </g>
   </g>
   <g id="line2d_76">
    <path d="M 29.92 206.562822 
L 39.92 206.562822 
L 49.92 206.562822 
" style="fill: none; stroke-dasharray: 1.2,1.2; stroke-dashoffset: 0; stroke: #008000; stroke-width: 1.5"/>
   </g>
   <g id="text_69">
    <!-- Homogenized PDF -->
    <g transform="translate(57.92 210.062822) scale(0.1 -0.1)">
     <defs>
      <path id="CMSS17-48" d="M 3674 4416 
L 3136 4416 
L 3136 2501 
L 1101 2501 
L 1101 4416 
L 563 4416 
L 563 0 
L 1101 0 
L 1101 2112 
L 3136 2112 
L 3136 0 
L 3674 0 
L 3674 4416 
z
" transform="scale(0.015625)"/>
      <path id="CMSS17-6f" d="M 2829 1356 
C 2829 2176 2221 2816 1504 2816 
C 768 2816 173 2157 173 1356 
C 173 544 787 -64 1498 -64 
C 2227 -64 2829 563 2829 1356 
z
M 1504 337 
C 1050 337 659 709 659 1408 
C 659 2151 1114 2427 1498 2427 
C 1914 2427 2342 2126 2342 1408 
C 2342 683 1926 337 1504 337 
z
" transform="scale(0.015625)"/>
      <path id="CMSS17-67" d="M 2848 2808 
C 2483 2808 2170 2738 1914 2617 
C 1702 2777 1485 2808 1338 2808 
C 781 2808 358 2349 358 1814 
C 358 1468 550 1207 563 1195 
C 448 1035 384 863 384 672 
C 384 448 474 289 544 200 
C 211 -3 166 -314 166 -435 
C 166 -898 749 -1280 1498 -1280 
C 2253 -1280 2835 -898 2835 -428 
C 2835 448 1856 448 1587 448 
L 1069 448 
C 973 448 717 448 717 791 
C 717 921 774 1004 781 1010 
C 877 940 1075 832 1338 832 
C 1869 832 2310 1278 2310 1827 
C 2310 2132 2170 2355 2112 2432 
L 2131 2432 
C 2150 2432 2419 2432 2515 2432 
C 2720 2432 2739 2429 2918 2419 
L 2848 2808 
z
M 1338 1182 
C 1120 1182 813 1315 813 1823 
C 813 2375 1165 2464 1331 2464 
C 1549 2464 1856 2331 1856 1823 
C 1856 1271 1504 1182 1338 1182 
z
M 1581 -10 
C 1734 -10 2381 -10 2381 -442 
C 2381 -714 1984 -929 1504 -929 
C 1018 -929 621 -720 621 -435 
C 621 -403 621 -10 1062 -10 
L 1581 -10 
z
" transform="scale(0.015625)"/>
      <path id="CMSS17-6e" d="M 2618 1877 
C 2618 2283 2522 2816 1798 2816 
C 1389 2816 1120 2606 941 2389 
L 941 2758 
L 474 2758 
L 474 0 
L 960 0 
L 960 1559 
C 960 1964 1114 2428 1549 2428 
C 2112 2428 2131 2048 2131 1829 
L 2131 0 
L 2618 0 
L 2618 1877 
z
" transform="scale(0.015625)"/>
      <path id="CMSS17-7a" d="M 2400 2502 
L 2400 2750 
L 250 2750 
L 250 2368 
L 1069 2368 
C 1146 2368 1222 2368 1299 2368 
L 1747 2368 
L 166 261 
L 166 0 
L 2419 0 
L 2419 395 
L 1549 395 
C 1472 395 1395 395 1318 395 
L 826 395 
L 2400 2502 
z
" transform="scale(0.015625)"/>
     </defs>
     <use xlink:href="#CMSS17-48" transform="scale(0.996264)"/>
     <use xlink:href="#CMSS17-6f" transform="translate(66.061519 0) scale(0.996264)"/>
     <use xlink:href="#CMSS17-6d" transform="translate(112.905143 0) scale(0.996264)"/>
     <use xlink:href="#CMSS17-6f" transform="translate(187.134397 0) scale(0.996264)"/>
     <use xlink:href="#CMSS17-67" transform="translate(233.978021 0) scale(0.996264)"/>
     <use xlink:href="#CMSS17-65" transform="translate(280.821644 0) scale(0.996264)"/>
     <use xlink:href="#CMSS17-6e" transform="translate(322.460466 0) scale(0.996264)"/>
     <use xlink:href="#CMSS17-69" transform="translate(370.665409 0) scale(0.996264)"/>
     <use xlink:href="#CMSS17-7a" transform="translate(392.846132 0) scale(0.996264)"/>
     <use xlink:href="#CMSS17-65" transform="translate(433.524004 0) scale(0.996264)"/>
     <use xlink:href="#CMSS17-64" transform="translate(475.162826 0) scale(0.996264)"/>
     <use xlink:href="#CMSS17-50" transform="translate(554.596882 0) scale(0.996264)"/>
     <use xlink:href="#CMSS17-44" transform="translate(614.332468 0) scale(0.996264)"/>
     <use xlink:href="#CMSS17-46" transform="translate(681.87531 0) scale(0.996264)"/>
    </g>
   </g>
  </g>
 </g>
 <defs>
  <clipPath id="p0181edf880">
   <rect x="278.723859" y="10.8" width="330.005589" height="177.812029"/>
  </clipPath>
  <clipPath id="p5b90fcd6c8">
   <rect x="36.743975" y="231.582632" width="245.165357" height="88.906015"/>
  </clipPath>
  <clipPath id="p268d72d07f">
   <rect x="321.143975" y="231.582632" width="245.165357" height="88.906015"/>
  </clipPath>
  <clipPath id="pe0c1207463">
   <rect x="605.543975" y="231.582632" width="245.165357" height="88.906015"/>
  </clipPath>
 </defs>
</svg>
