<?xml version="1.0" encoding="utf-8" standalone="no"?>
<!DOCTYPE svg PUBLIC "-//W3C//DTD SVG 1.1//EN"
  "http://www.w3.org/Graphics/SVG/1.1/DTD/svg11.dtd">
<svg xmlns:xlink="http://www.w3.org/1999/xlink" width="460.8pt" height="345.6pt" viewBox="0 0 460.8 345.6" xmlns="http://www.w3.org/2000/svg" version="1.1">
 <metadata>
  <rdf:RDF xmlns:dc="http://purl.org/dc/elements/1.1/" xmlns:cc="http://creativecommons.org/ns#" xmlns:rdf="http://www.w3.org/1999/02/22-rdf-syntax-ns#">
   <cc:Work>
    <dc:type rdf:resource="http://purl.org/dc/dcmitype/StillImage"/>
    <dc:date>2025-03-09T15:07:12.088843</dc:date>
    <dc:format>image/svg+xml</dc:format>
    <dc:creator>
     <cc:Agent>
      <dc:title>Matplotlib v3.10.1, https://matplotlib.org/</dc:title>
     </cc:Agent>
    </dc:creator>
   </cc:Work>
  </rdf:RDF>
 </metadata>
 <defs>
  <style type="text/css">*{stroke-linejoin: round; stroke-linecap: butt}</style>
 </defs>
 <g id="figure_1">
  <g id="patch_1">
   <path d="M 0 345.6 
L 460.8 345.6 
L 460.8 0 
L 0 0 
z
" style="fill: #ffffff"/>
  </g>
  <g id="axes_1">
   <g id="patch_2">
    <path d="M 57.6 307.584 
L 414.72 307.584 
L 414.72 41.472 
L 57.6 41.472 
z
" style="fill: #ffffff"/>
   </g>
   <g id="PathCollection_1">
    <defs>
     <path id="mc586372d6e" d="M 0 2.5 
C 0.663008 2.5 1.29895 2.236584 1.767767 1.767767 
C 2.236584 1.29895 2.5 0.663008 2.5 0 
C 2.5 -0.663008 2.236584 -1.29895 1.767767 -1.767767 
C 1.29895 -2.236584 0.663008 -2.5 0 -2.5 
C -0.663008 -2.5 -1.29895 -2.236584 -1.767767 -1.767767 
C -2.236584 -1.29895 -2.5 -0.663008 -2.5 0 
C -2.5 0.663008 -2.236584 1.29895 -1.767767 1.767767 
C -1.29895 2.236584 -0.663008 2.5 0 2.5 
z
" style="stroke: #1f77b4"/>
    </defs>
    <g clip-path="url(#pb2f4665c65)">
     <use xlink:href="#mc586372d6e" x="73.832727" y="293.917132" style="fill: #1f77b4; stroke: #1f77b4"/>
     <use xlink:href="#mc586372d6e" x="83.978182" y="286.742435" style="fill: #1f77b4; stroke: #1f77b4"/>
     <use xlink:href="#mc586372d6e" x="94.123636" y="279.566374" style="fill: #1f77b4; stroke: #1f77b4"/>
     <use xlink:href="#mc586372d6e" x="104.269091" y="272.388749" style="fill: #1f77b4; stroke: #1f77b4"/>
     <use xlink:href="#mc586372d6e" x="114.414545" y="265.209328" style="fill: #1f77b4; stroke: #1f77b4"/>
     <use xlink:href="#mc586372d6e" x="124.56" y="258.027849" style="fill: #1f77b4; stroke: #1f77b4"/>
     <use xlink:href="#mc586372d6e" x="134.705455" y="250.844007" style="fill: #1f77b4; stroke: #1f77b4"/>
     <use xlink:href="#mc586372d6e" x="144.850909" y="243.657447" style="fill: #1f77b4; stroke: #1f77b4"/>
     <use xlink:href="#mc586372d6e" x="154.996364" y="236.467761" style="fill: #1f77b4; stroke: #1f77b4"/>
     <use xlink:href="#mc586372d6e" x="165.141818" y="229.274474" style="fill: #1f77b4; stroke: #1f77b4"/>
     <use xlink:href="#mc586372d6e" x="175.287273" y="222.07703" style="fill: #1f77b4; stroke: #1f77b4"/>
     <use xlink:href="#mc586372d6e" x="185.432727" y="214.874782" style="fill: #1f77b4; stroke: #1f77b4"/>
     <use xlink:href="#mc586372d6e" x="195.578182" y="207.666971" style="fill: #1f77b4; stroke: #1f77b4"/>
     <use xlink:href="#mc586372d6e" x="205.723636" y="200.452704" style="fill: #1f77b4; stroke: #1f77b4"/>
     <use xlink:href="#mc586372d6e" x="215.869091" y="193.230924" style="fill: #1f77b4; stroke: #1f77b4"/>
     <use xlink:href="#mc586372d6e" x="226.014545" y="186.000375" style="fill: #1f77b4; stroke: #1f77b4"/>
     <use xlink:href="#mc586372d6e" x="236.16" y="178.759557" style="fill: #1f77b4; stroke: #1f77b4"/>
     <use xlink:href="#mc586372d6e" x="246.305455" y="171.50666" style="fill: #1f77b4; stroke: #1f77b4"/>
     <use xlink:href="#mc586372d6e" x="256.450909" y="164.239492" style="fill: #1f77b4; stroke: #1f77b4"/>
     <use xlink:href="#mc586372d6e" x="266.596364" y="156.955366" style="fill: #1f77b4; stroke: #1f77b4"/>
     <use xlink:href="#mc586372d6e" x="276.741818" y="149.650955" style="fill: #1f77b4; stroke: #1f77b4"/>
     <use xlink:href="#mc586372d6e" x="286.887273" y="142.322088" style="fill: #1f77b4; stroke: #1f77b4"/>
     <use xlink:href="#mc586372d6e" x="297.032727" y="134.963456" style="fill: #1f77b4; stroke: #1f77b4"/>
     <use xlink:href="#mc586372d6e" x="307.178182" y="127.568181" style="fill: #1f77b4; stroke: #1f77b4"/>
     <use xlink:href="#mc586372d6e" x="317.323636" y="120.12716" style="fill: #1f77b4; stroke: #1f77b4"/>
     <use xlink:href="#mc586372d6e" x="327.469091" y="112.628019" style="fill: #1f77b4; stroke: #1f77b4"/>
     <use xlink:href="#mc586372d6e" x="337.614545" y="105.053387" style="fill: #1f77b4; stroke: #1f77b4"/>
     <use xlink:href="#mc586372d6e" x="347.76" y="97.37782" style="fill: #1f77b4; stroke: #1f77b4"/>
     <use xlink:href="#mc586372d6e" x="357.905455" y="89.561915" style="fill: #1f77b4; stroke: #1f77b4"/>
     <use xlink:href="#mc586372d6e" x="368.050909" y="81.539697" style="fill: #1f77b4; stroke: #1f77b4"/>
     <use xlink:href="#mc586372d6e" x="378.196364" y="73.186919" style="fill: #1f77b4; stroke: #1f77b4"/>
     <use xlink:href="#mc586372d6e" x="388.341818" y="64.217129" style="fill: #1f77b4; stroke: #1f77b4"/>
     <use xlink:href="#mc586372d6e" x="398.487273" y="53.568" style="fill: #1f77b4; stroke: #1f77b4"/>
    </g>
   </g>
   <g id="matplotlib.axis_1">
    <g id="xtick_1">
     <g id="line2d_1">
      <defs>
       <path id="m64119e47aa" d="M 0 0 
L 0 3.5 
" style="stroke: #000000; stroke-width: 0.8"/>
      </defs>
      <g>
       <use xlink:href="#m64119e47aa" x="73.832727" y="307.584" style="stroke: #000000; stroke-width: 0.8"/>
      </g>
     </g>
     <g id="text_1">
      <!-- $\mathdefault{−4.0}$ -->
      <g transform="translate(63.593316 321.502498) scale(0.1 -0.1)">
       <defs>
        <path id="CMSY10-0" d="M 4218 1472 
C 4326 1472 4442 1472 4442 1600 
C 4442 1728 4326 1728 4218 1728 
L 755 1728 
C 646 1728 531 1728 531 1600 
C 531 1472 646 1472 755 1472 
L 4218 1472 
z
" transform="scale(0.015625)"/>
        <path id="CMR17-34" d="M 2150 4122 
C 2150 4256 2144 4256 2029 4256 
L 128 1254 
L 128 1088 
L 1779 1088 
L 1779 457 
C 1779 224 1766 160 1318 160 
L 1197 160 
L 1197 0 
C 1402 0 1747 0 1965 0 
C 2182 0 2528 0 2733 0 
L 2733 160 
L 2611 160 
C 2163 160 2150 224 2150 457 
L 2150 1088 
L 2803 1088 
L 2803 1254 
L 2150 1254 
L 2150 4122 
z
M 1798 3703 
L 1798 1254 
L 256 1254 
L 1798 3703 
z
" transform="scale(0.015625)"/>
        <path id="CMMI12-3a" d="M 1178 307 
C 1178 492 1024 619 870 619 
C 685 619 557 466 557 313 
C 557 128 710 0 864 0 
C 1050 0 1178 153 1178 307 
z
" transform="scale(0.015625)"/>
        <path id="CMR17-30" d="M 2688 2025 
C 2688 2416 2682 3080 2413 3591 
C 2176 4039 1798 4198 1466 4198 
C 1158 4198 768 4058 525 3597 
C 269 3118 243 2524 243 2025 
C 243 1661 250 1106 448 619 
C 723 -39 1216 -128 1466 -128 
C 1760 -128 2208 -7 2470 600 
C 2662 1042 2688 1559 2688 2025 
z
M 1466 -26 
C 1056 -26 813 325 723 812 
C 653 1188 653 1738 653 2096 
C 653 2588 653 2997 736 3387 
C 858 3929 1216 4096 1466 4096 
C 1728 4096 2067 3923 2189 3400 
C 2272 3036 2278 2607 2278 2096 
C 2278 1680 2278 1169 2202 792 
C 2067 95 1690 -26 1466 -26 
z
" transform="scale(0.015625)"/>
       </defs>
       <use xlink:href="#CMSY10-0" transform="scale(0.996264)"/>
       <use xlink:href="#CMR17-34" transform="translate(77.487468 0) scale(0.996264)"/>
       <use xlink:href="#CMMI12-3a" transform="translate(123.177945 0) scale(0.996264)"/>
       <use xlink:href="#CMR17-30" transform="translate(150.275122 0) scale(0.996264)"/>
      </g>
     </g>
    </g>
    <g id="xtick_2">
     <g id="line2d_2">
      <g>
       <use xlink:href="#m64119e47aa" x="124.56" y="307.584" style="stroke: #000000; stroke-width: 0.8"/>
      </g>
     </g>
     <g id="text_2">
      <!-- $\mathdefault{−3.5}$ -->
      <g transform="translate(114.320589 321.502498) scale(0.1 -0.1)">
       <defs>
        <path id="CMR17-33" d="M 1414 2157 
C 1984 2157 2234 1662 2234 1090 
C 2234 320 1824 25 1453 25 
C 1114 25 563 194 390 693 
C 422 680 454 680 486 680 
C 640 680 755 782 755 948 
C 755 1133 614 1216 486 1216 
C 378 1216 211 1165 211 926 
C 211 335 787 -128 1466 -128 
C 2176 -128 2720 430 2720 1085 
C 2720 1707 2208 2157 1600 2227 
C 2086 2328 2554 2756 2554 3329 
C 2554 3820 2048 4179 1472 4179 
C 890 4179 378 3829 378 3329 
C 378 3110 544 3072 627 3072 
C 762 3072 877 3155 877 3321 
C 877 3486 762 3569 627 3569 
C 602 3569 570 3569 544 3557 
C 730 3959 1235 4032 1459 4032 
C 1683 4032 2106 3925 2106 3320 
C 2106 3143 2080 2828 1862 2550 
C 1670 2304 1453 2304 1242 2284 
C 1210 2284 1062 2269 1037 2269 
C 992 2263 966 2257 966 2208 
C 966 2163 973 2157 1101 2157 
L 1414 2157 
z
" transform="scale(0.015625)"/>
        <path id="CMR17-35" d="M 730 3692 
C 794 3666 1056 3584 1325 3584 
C 1920 3584 2246 3911 2432 4100 
C 2432 4157 2432 4192 2394 4192 
C 2387 4192 2374 4192 2323 4163 
C 2099 4058 1837 3973 1517 3973 
C 1325 3973 1037 3999 723 4139 
C 653 4171 640 4171 634 4171 
C 602 4171 595 4164 595 4037 
L 595 2203 
C 595 2089 595 2057 659 2057 
C 691 2057 704 2070 736 2114 
C 941 2401 1222 2522 1542 2522 
C 1766 2522 2246 2382 2246 1289 
C 2246 1085 2246 715 2054 421 
C 1894 159 1645 25 1370 25 
C 947 25 518 320 403 814 
C 429 807 480 795 506 795 
C 589 795 749 840 749 1038 
C 749 1210 627 1280 506 1280 
C 358 1280 262 1190 262 1011 
C 262 454 704 -128 1382 -128 
C 2042 -128 2669 440 2669 1264 
C 2669 2030 2170 2624 1549 2624 
C 1222 2624 947 2503 730 2274 
L 730 3692 
z
" transform="scale(0.015625)"/>
       </defs>
       <use xlink:href="#CMSY10-0" transform="scale(0.996264)"/>
       <use xlink:href="#CMR17-33" transform="translate(77.487468 0) scale(0.996264)"/>
       <use xlink:href="#CMMI12-3a" transform="translate(123.177945 0) scale(0.996264)"/>
       <use xlink:href="#CMR17-35" transform="translate(150.275122 0) scale(0.996264)"/>
      </g>
     </g>
    </g>
    <g id="xtick_3">
     <g id="line2d_3">
      <g>
       <use xlink:href="#m64119e47aa" x="175.287273" y="307.584" style="stroke: #000000; stroke-width: 0.8"/>
      </g>
     </g>
     <g id="text_3">
      <!-- $\mathdefault{−3.0}$ -->
      <g transform="translate(165.047861 321.502498) scale(0.1 -0.1)">
       <use xlink:href="#CMSY10-0" transform="scale(0.996264)"/>
       <use xlink:href="#CMR17-33" transform="translate(77.487468 0) scale(0.996264)"/>
       <use xlink:href="#CMMI12-3a" transform="translate(123.177945 0) scale(0.996264)"/>
       <use xlink:href="#CMR17-30" transform="translate(150.275122 0) scale(0.996264)"/>
      </g>
     </g>
    </g>
    <g id="xtick_4">
     <g id="line2d_4">
      <g>
       <use xlink:href="#m64119e47aa" x="226.014545" y="307.584" style="stroke: #000000; stroke-width: 0.8"/>
      </g>
     </g>
     <g id="text_4">
      <!-- $\mathdefault{−2.5}$ -->
      <g transform="translate(215.775134 321.502498) scale(0.1 -0.1)">
       <defs>
        <path id="CMR17-32" d="M 2669 989 
L 2554 989 
C 2490 536 2438 459 2413 420 
C 2381 369 1920 369 1830 369 
L 602 369 
C 832 619 1280 1072 1824 1597 
C 2214 1967 2669 2402 2669 3035 
C 2669 3790 2067 4224 1395 4224 
C 691 4224 262 3604 262 3030 
C 262 2780 448 2748 525 2748 
C 589 2748 781 2787 781 3010 
C 781 3207 614 3264 525 3264 
C 486 3264 448 3258 422 3245 
C 544 3790 915 4058 1306 4058 
C 1862 4058 2227 3617 2227 3035 
C 2227 2479 1901 2000 1536 1584 
L 262 146 
L 262 0 
L 2515 0 
L 2669 989 
z
" transform="scale(0.015625)"/>
       </defs>
       <use xlink:href="#CMSY10-0" transform="scale(0.996264)"/>
       <use xlink:href="#CMR17-32" transform="translate(77.487468 0) scale(0.996264)"/>
       <use xlink:href="#CMMI12-3a" transform="translate(123.177945 0) scale(0.996264)"/>
       <use xlink:href="#CMR17-35" transform="translate(150.275122 0) scale(0.996264)"/>
      </g>
     </g>
    </g>
    <g id="xtick_5">
     <g id="line2d_5">
      <g>
       <use xlink:href="#m64119e47aa" x="276.741818" y="307.584" style="stroke: #000000; stroke-width: 0.8"/>
      </g>
     </g>
     <g id="text_5">
      <!-- $\mathdefault{−2.0}$ -->
      <g transform="translate(266.502407 321.502498) scale(0.1 -0.1)">
       <use xlink:href="#CMSY10-0" transform="scale(0.996264)"/>
       <use xlink:href="#CMR17-32" transform="translate(77.487468 0) scale(0.996264)"/>
       <use xlink:href="#CMMI12-3a" transform="translate(123.177945 0) scale(0.996264)"/>
       <use xlink:href="#CMR17-30" transform="translate(150.275122 0) scale(0.996264)"/>
      </g>
     </g>
    </g>
    <g id="xtick_6">
     <g id="line2d_6">
      <g>
       <use xlink:href="#m64119e47aa" x="327.469091" y="307.584" style="stroke: #000000; stroke-width: 0.8"/>
      </g>
     </g>
     <g id="text_6">
      <!-- $\mathdefault{−1.5}$ -->
      <g transform="translate(317.22968 321.502498) scale(0.1 -0.1)">
       <defs>
        <path id="CMR17-31" d="M 1702 4058 
C 1702 4192 1696 4192 1606 4192 
C 1357 3916 979 3827 621 3827 
C 602 3827 570 3827 563 3808 
C 557 3795 557 3782 557 3648 
C 755 3648 1088 3686 1344 3839 
L 1344 461 
C 1344 236 1331 160 781 160 
L 589 160 
L 589 0 
C 896 0 1216 0 1523 0 
C 1830 0 2150 0 2458 0 
L 2458 160 
L 2266 160 
C 1715 160 1702 230 1702 458 
L 1702 4058 
z
" transform="scale(0.015625)"/>
       </defs>
       <use xlink:href="#CMSY10-0" transform="scale(0.996264)"/>
       <use xlink:href="#CMR17-31" transform="translate(77.487468 0) scale(0.996264)"/>
       <use xlink:href="#CMMI12-3a" transform="translate(123.177945 0) scale(0.996264)"/>
       <use xlink:href="#CMR17-35" transform="translate(150.275122 0) scale(0.996264)"/>
      </g>
     </g>
    </g>
    <g id="xtick_7">
     <g id="line2d_7">
      <g>
       <use xlink:href="#m64119e47aa" x="378.196364" y="307.584" style="stroke: #000000; stroke-width: 0.8"/>
      </g>
     </g>
     <g id="text_7">
      <!-- $\mathdefault{−1.0}$ -->
      <g transform="translate(367.956952 321.502498) scale(0.1 -0.1)">
       <use xlink:href="#CMSY10-0" transform="scale(0.996264)"/>
       <use xlink:href="#CMR17-31" transform="translate(77.487468 0) scale(0.996264)"/>
       <use xlink:href="#CMMI12-3a" transform="translate(123.177945 0) scale(0.996264)"/>
       <use xlink:href="#CMR17-30" transform="translate(150.275122 0) scale(0.996264)"/>
      </g>
     </g>
    </g>
    <g id="text_8">
     <!-- $\log{\eta}$ -->
     <g transform="translate(226.422209 334.358175) scale(0.1 -0.1)">
      <defs>
       <path id="CMR17-6c" d="M 979 4396 
L 218 4326 
L 218 4160 
C 595 4160 653 4122 653 3817 
L 653 426 
C 653 184 627 153 218 153 
L 218 -13 
C 371 0 653 0 813 0 
C 979 0 1261 0 1414 -13 
L 1414 153 
C 1005 153 979 178 979 426 
L 979 4396 
z
" transform="scale(0.015625)"/>
       <path id="CMR17-6f" d="M 2758 1356 
C 2758 2176 2163 2816 1466 2816 
C 768 2816 173 2176 173 1356 
C 173 551 768 -64 1466 -64 
C 2163 -64 2758 551 2758 1356 
z
M 1466 51 
C 1165 51 909 230 762 480 
C 602 767 582 1126 582 1408 
C 582 1677 595 2010 762 2298 
C 890 2509 1139 2714 1466 2714 
C 1754 2714 1997 2554 2150 2330 
C 2349 2029 2349 1607 2349 1408 
C 2349 1158 2336 775 2163 467 
C 1984 173 1709 51 1466 51 
z
" transform="scale(0.015625)"/>
       <path id="CMR17-67" d="M 710 1164 
C 832 1068 1043 960 1299 960 
C 1805 960 2240 1357 2240 1888 
C 2240 2054 2189 2310 1997 2509 
C 2176 2692 2438 2752 2586 2752 
C 2611 2752 2650 2752 2682 2734 
C 2656 2728 2598 2703 2598 2605 
C 2598 2527 2656 2471 2739 2471 
C 2835 2471 2886 2533 2886 2614 
C 2886 2731 2790 2854 2586 2854 
C 2330 2854 2106 2738 1926 2580 
C 1734 2753 1504 2816 1299 2816 
C 794 2816 358 2419 358 1888 
C 358 1522 570 1292 634 1228 
C 442 1004 442 743 442 711 
C 442 545 506 302 723 168 
C 390 85 128 -169 128 -486 
C 128 -943 736 -1280 1466 -1280 
C 2170 -1280 2803 -956 2803 -479 
C 2803 384 1856 384 1363 384 
C 1216 384 954 384 922 391 
C 723 423 589 602 589 826 
C 589 883 589 1024 710 1164 
z
M 1299 1068 
C 736 1068 736 1760 736 1889 
C 736 2016 736 2708 1299 2708 
C 1862 2708 1862 2016 1862 1889 
C 1862 1760 1862 1068 1299 1068 
z
M 1466 -1171 
C 826 -1171 384 -835 384 -486 
C 384 -289 493 -105 634 -4 
C 794 104 858 104 1293 104 
C 1818 104 2547 104 2547 -486 
C 2547 -835 2106 -1171 1466 -1171 
z
" transform="scale(0.015625)"/>
       <path id="CMMI12-11" d="M 3040 1768 
C 3072 1895 3091 1973 3091 2145 
C 3091 2528 2867 2815 2381 2815 
C 1811 2815 1510 2413 1395 2254 
C 1376 2618 1114 2815 832 2815 
C 646 2815 499 2726 378 2483 
C 262 2254 173 1864 173 1839 
C 173 1813 198 1781 243 1781 
C 294 1781 301 1788 339 1934 
C 435 2311 557 2688 813 2688 
C 960 2688 1011 2586 1011 2394 
C 1011 2254 947 2005 902 1807 
L 723 1118 
C 698 996 627 709 595 593 
C 550 428 480 127 480 96 
C 480 6 550 -64 646 -64 
C 723 -64 813 -25 864 70 
C 877 102 934 326 966 453 
L 1107 1028 
L 1318 1871 
C 1331 1909 1491 2228 1728 2432 
C 1894 2586 2112 2688 2362 2688 
C 2618 2688 2707 2496 2707 2241 
C 2707 2055 2682 1953 2650 1831 
L 1907 -1107 
C 1901 -1139 1888 -1177 1888 -1216 
C 1888 -1312 1965 -1376 2061 -1376 
C 2118 -1376 2253 -1350 2304 -1158 
L 3040 1768 
z
" transform="scale(0.015625)"/>
      </defs>
      <use xlink:href="#CMR17-6c" transform="scale(0.996264)"/>
      <use xlink:href="#CMR17-6f" transform="translate(24.871058 0) scale(0.996264)"/>
      <use xlink:href="#CMR17-67" transform="translate(70.561536 0) scale(0.996264)"/>
      <use xlink:href="#CMMI12-11" transform="translate(134.157584 0) scale(0.996264)"/>
     </g>
    </g>
   </g>
   <g id="matplotlib.axis_2">
    <g id="ytick_1">
     <g id="line2d_8">
      <defs>
       <path id="md3d4c9fbb3" d="M 0 0 
L -3.5 0 
" style="stroke: #000000; stroke-width: 0.8"/>
      </defs>
      <g>
       <use xlink:href="#md3d4c9fbb3" x="57.6" y="301.791223" style="stroke: #000000; stroke-width: 0.8"/>
      </g>
     </g>
     <g id="text_9">
      <!-- $\mathdefault{−2.75}$ -->
      <g transform="translate(25.139842 305.250473) scale(0.1 -0.1)">
       <defs>
        <path id="CMR17-37" d="M 2886 3941 
L 2886 4081 
L 1382 4081 
C 634 4081 621 4165 595 4288 
L 480 4288 
L 294 3094 
L 410 3094 
C 429 3215 474 3540 550 3661 
C 589 3712 1062 3712 1171 3712 
L 2579 3712 
L 1869 2661 
C 1395 1954 1069 999 1069 165 
C 1069 89 1069 -128 1299 -128 
C 1530 -128 1530 89 1530 171 
L 1530 465 
C 1530 1508 1709 2196 2003 2636 
L 2886 3941 
z
" transform="scale(0.015625)"/>
       </defs>
       <use xlink:href="#CMSY10-0" transform="scale(0.996264)"/>
       <use xlink:href="#CMR17-32" transform="translate(77.487468 0) scale(0.996264)"/>
       <use xlink:href="#CMMI12-3a" transform="translate(123.177945 0) scale(0.996264)"/>
       <use xlink:href="#CMR17-37" transform="translate(150.275122 0) scale(0.996264)"/>
       <use xlink:href="#CMR17-35" transform="translate(195.965599 0) scale(0.996264)"/>
      </g>
     </g>
    </g>
    <g id="ytick_2">
     <g id="line2d_9">
      <g>
       <use xlink:href="#md3d4c9fbb3" x="57.6" y="270.44371" style="stroke: #000000; stroke-width: 0.8"/>
      </g>
     </g>
     <g id="text_10">
      <!-- $\mathdefault{−2.50}$ -->
      <g transform="translate(25.139842 273.902959) scale(0.1 -0.1)">
       <use xlink:href="#CMSY10-0" transform="scale(0.996264)"/>
       <use xlink:href="#CMR17-32" transform="translate(77.487468 0) scale(0.996264)"/>
       <use xlink:href="#CMMI12-3a" transform="translate(123.177945 0) scale(0.996264)"/>
       <use xlink:href="#CMR17-35" transform="translate(150.275122 0) scale(0.996264)"/>
       <use xlink:href="#CMR17-30" transform="translate(195.965599 0) scale(0.996264)"/>
      </g>
     </g>
    </g>
    <g id="ytick_3">
     <g id="line2d_10">
      <g>
       <use xlink:href="#md3d4c9fbb3" x="57.6" y="239.096196" style="stroke: #000000; stroke-width: 0.8"/>
      </g>
     </g>
     <g id="text_11">
      <!-- $\mathdefault{−2.25}$ -->
      <g transform="translate(25.139842 242.555445) scale(0.1 -0.1)">
       <use xlink:href="#CMSY10-0" transform="scale(0.996264)"/>
       <use xlink:href="#CMR17-32" transform="translate(77.487468 0) scale(0.996264)"/>
       <use xlink:href="#CMMI12-3a" transform="translate(123.177945 0) scale(0.996264)"/>
       <use xlink:href="#CMR17-32" transform="translate(150.275122 0) scale(0.996264)"/>
       <use xlink:href="#CMR17-35" transform="translate(195.965599 0) scale(0.996264)"/>
      </g>
     </g>
    </g>
    <g id="ytick_4">
     <g id="line2d_11">
      <g>
       <use xlink:href="#md3d4c9fbb3" x="57.6" y="207.748682" style="stroke: #000000; stroke-width: 0.8"/>
      </g>
     </g>
     <g id="text_12">
      <!-- $\mathdefault{−2.00}$ -->
      <g transform="translate(25.139842 211.207931) scale(0.1 -0.1)">
       <use xlink:href="#CMSY10-0" transform="scale(0.996264)"/>
       <use xlink:href="#CMR17-32" transform="translate(77.487468 0) scale(0.996264)"/>
       <use xlink:href="#CMMI12-3a" transform="translate(123.177945 0) scale(0.996264)"/>
       <use xlink:href="#CMR17-30" transform="translate(150.275122 0) scale(0.996264)"/>
       <use xlink:href="#CMR17-30" transform="translate(195.965599 0) scale(0.996264)"/>
      </g>
     </g>
    </g>
    <g id="ytick_5">
     <g id="line2d_12">
      <g>
       <use xlink:href="#md3d4c9fbb3" x="57.6" y="176.401168" style="stroke: #000000; stroke-width: 0.8"/>
      </g>
     </g>
     <g id="text_13">
      <!-- $\mathdefault{−1.75}$ -->
      <g transform="translate(25.139842 179.860417) scale(0.1 -0.1)">
       <use xlink:href="#CMSY10-0" transform="scale(0.996264)"/>
       <use xlink:href="#CMR17-31" transform="translate(77.487468 0) scale(0.996264)"/>
       <use xlink:href="#CMMI12-3a" transform="translate(123.177945 0) scale(0.996264)"/>
       <use xlink:href="#CMR17-37" transform="translate(150.275122 0) scale(0.996264)"/>
       <use xlink:href="#CMR17-35" transform="translate(195.965599 0) scale(0.996264)"/>
      </g>
     </g>
    </g>
    <g id="ytick_6">
     <g id="line2d_13">
      <g>
       <use xlink:href="#md3d4c9fbb3" x="57.6" y="145.053654" style="stroke: #000000; stroke-width: 0.8"/>
      </g>
     </g>
     <g id="text_14">
      <!-- $\mathdefault{−1.50}$ -->
      <g transform="translate(25.139842 148.512903) scale(0.1 -0.1)">
       <use xlink:href="#CMSY10-0" transform="scale(0.996264)"/>
       <use xlink:href="#CMR17-31" transform="translate(77.487468 0) scale(0.996264)"/>
       <use xlink:href="#CMMI12-3a" transform="translate(123.177945 0) scale(0.996264)"/>
       <use xlink:href="#CMR17-35" transform="translate(150.275122 0) scale(0.996264)"/>
       <use xlink:href="#CMR17-30" transform="translate(195.965599 0) scale(0.996264)"/>
      </g>
     </g>
    </g>
    <g id="ytick_7">
     <g id="line2d_14">
      <g>
       <use xlink:href="#md3d4c9fbb3" x="57.6" y="113.70614" style="stroke: #000000; stroke-width: 0.8"/>
      </g>
     </g>
     <g id="text_15">
      <!-- $\mathdefault{−1.25}$ -->
      <g transform="translate(25.139842 117.165389) scale(0.1 -0.1)">
       <use xlink:href="#CMSY10-0" transform="scale(0.996264)"/>
       <use xlink:href="#CMR17-31" transform="translate(77.487468 0) scale(0.996264)"/>
       <use xlink:href="#CMMI12-3a" transform="translate(123.177945 0) scale(0.996264)"/>
       <use xlink:href="#CMR17-32" transform="translate(150.275122 0) scale(0.996264)"/>
       <use xlink:href="#CMR17-35" transform="translate(195.965599 0) scale(0.996264)"/>
      </g>
     </g>
    </g>
    <g id="ytick_8">
     <g id="line2d_15">
      <g>
       <use xlink:href="#md3d4c9fbb3" x="57.6" y="82.358626" style="stroke: #000000; stroke-width: 0.8"/>
      </g>
     </g>
     <g id="text_16">
      <!-- $\mathdefault{−1.00}$ -->
      <g transform="translate(25.139842 85.817875) scale(0.1 -0.1)">
       <use xlink:href="#CMSY10-0" transform="scale(0.996264)"/>
       <use xlink:href="#CMR17-31" transform="translate(77.487468 0) scale(0.996264)"/>
       <use xlink:href="#CMMI12-3a" transform="translate(123.177945 0) scale(0.996264)"/>
       <use xlink:href="#CMR17-30" transform="translate(150.275122 0) scale(0.996264)"/>
       <use xlink:href="#CMR17-30" transform="translate(195.965599 0) scale(0.996264)"/>
      </g>
     </g>
    </g>
    <g id="ytick_9">
     <g id="line2d_16">
      <g>
       <use xlink:href="#md3d4c9fbb3" x="57.6" y="51.011112" style="stroke: #000000; stroke-width: 0.8"/>
      </g>
     </g>
     <g id="text_17">
      <!-- $\mathdefault{−0.75}$ -->
      <g transform="translate(25.139842 54.470361) scale(0.1 -0.1)">
       <use xlink:href="#CMSY10-0" transform="scale(0.996264)"/>
       <use xlink:href="#CMR17-30" transform="translate(77.487468 0) scale(0.996264)"/>
       <use xlink:href="#CMMI12-3a" transform="translate(123.177945 0) scale(0.996264)"/>
       <use xlink:href="#CMR17-37" transform="translate(150.275122 0) scale(0.996264)"/>
       <use xlink:href="#CMR17-35" transform="translate(195.965599 0) scale(0.996264)"/>
      </g>
     </g>
    </g>
    <g id="text_18">
     <!-- $\log{\sigma_{c_{symm}} - \sigma_{c}}$ -->
     <g transform="translate(17.680616 207.327198) rotate(-90) scale(0.1 -0.1)">
      <defs>
       <path id="CMMI12-1b" d="M 3251 2408 
C 3334 2408 3546 2408 3546 2612 
C 3546 2752 3424 2752 3309 2752 
L 1894 2752 
C 934 2752 243 1686 243 932 
C 243 390 595 -64 1171 -64 
C 1926 -64 2752 747 2752 1705 
C 2752 1954 2694 2196 2541 2408 
L 3251 2408 
z
M 1178 64 
C 851 64 614 313 614 754 
C 614 1137 845 2408 1786 2408 
C 2061 2408 2368 2274 2368 1781 
C 2368 1558 2266 1021 2042 652 
C 1811 275 1466 64 1178 64 
z
" transform="scale(0.015625)"/>
       <path id="CMMI12-63" d="M 2502 2431 
C 2381 2431 2323 2431 2234 2355 
C 2195 2323 2125 2227 2125 2125 
C 2125 1997 2221 1920 2342 1920 
C 2496 1920 2669 2044 2669 2292 
C 2669 2588 2374 2816 1933 2816 
C 1094 2816 256 1903 256 996 
C 256 441 602 -64 1254 -64 
C 2125 -64 2675 622 2675 706 
C 2675 744 2637 776 2611 776 
C 2592 776 2586 770 2528 713 
C 2118 162 1510 64 1267 64 
C 826 64 685 446 685 764 
C 685 988 794 1605 1024 2039 
C 1190 2338 1536 2682 1939 2682 
C 2022 2682 2374 2682 2502 2431 
z
" transform="scale(0.015625)"/>
       <path id="CMMI12-73" d="M 1459 1280 
C 1568 1261 1741 1223 1779 1216 
C 1862 1192 2150 1090 2150 783 
C 2150 586 1971 70 1229 70 
C 1094 70 614 70 486 436 
C 742 404 870 603 870 745 
C 870 880 781 950 653 950 
C 512 950 326 841 326 552 
C 326 173 710 -64 1222 -64 
C 2195 -64 2483 651 2483 984 
C 2483 1079 2483 1258 2278 1462 
C 2118 1616 1965 1648 1619 1718 
C 1446 1756 1171 1814 1171 2101 
C 1171 2229 1286 2689 1894 2689 
C 2163 2689 2426 2589 2490 2368 
C 2208 2368 2195 2125 2195 2119 
C 2195 1984 2317 1946 2374 1946 
C 2464 1946 2643 2015 2643 2281 
C 2643 2545 2400 2816 1901 2816 
C 1062 2816 838 2160 838 1899 
C 838 1414 1312 1312 1459 1280 
z
" transform="scale(0.015625)"/>
       <path id="CMMI12-79" d="M 1683 -700 
C 1510 -939 1261 -1152 947 -1152 
C 870 -1152 563 -1152 467 -889 
C 486 -895 518 -895 531 -895 
C 723 -895 851 -729 851 -582 
C 851 -435 730 -384 634 -384 
C 531 -384 307 -458 307 -759 
C 307 -1071 582 -1286 947 -1286 
C 1587 -1286 2234 -700 2413 6 
L 3040 2485 
C 3046 2517 3059 2556 3059 2594 
C 3059 2689 2982 2753 2886 2753 
C 2829 2753 2694 2727 2643 2535 
L 2170 658 
C 2138 543 2138 530 2086 460 
C 1958 281 1747 64 1440 64 
C 1082 64 1050 415 1050 588 
C 1050 952 1222 1443 1395 1903 
C 1466 2088 1504 2178 1504 2305 
C 1504 2574 1312 2816 998 2816 
C 410 2816 173 1890 173 1839 
C 173 1814 198 1782 243 1782 
C 301 1782 307 1807 333 1897 
C 486 2433 730 2689 979 2689 
C 1037 2689 1146 2689 1146 2478 
C 1146 2312 1075 2127 979 1884 
C 666 1047 666 837 666 683 
C 666 77 1101 -64 1421 -64 
C 1606 -64 1837 -6 2061 230 
L 2067 224 
C 1971 -147 1907 -392 1683 -700 
z
" transform="scale(0.015625)"/>
       <path id="CMMI12-6d" d="M 1318 1871 
C 1331 1910 1491 2229 1728 2433 
C 1894 2586 2112 2689 2362 2689 
C 2618 2689 2707 2497 2707 2242 
C 2707 2203 2707 2076 2630 1775 
L 2470 1118 
C 2419 926 2298 453 2285 383 
C 2259 287 2221 121 2221 96 
C 2221 6 2291 -64 2387 -64 
C 2579 -64 2611 83 2669 313 
L 3053 1839 
C 3066 1890 3398 2689 4102 2689 
C 4358 2689 4448 2497 4448 2242 
C 4448 1884 4198 1188 4058 805 
C 4000 651 3968 568 3968 453 
C 3968 166 4166 -64 4474 -64 
C 5069 -64 5293 875 5293 913 
C 5293 945 5267 971 5229 971 
C 5171 971 5165 952 5133 843 
C 4986 332 4749 64 4493 64 
C 4429 64 4326 64 4326 269 
C 4326 436 4403 640 4429 710 
C 4544 1018 4832 1773 4832 2145 
C 4832 2528 4608 2816 4122 2816 
C 3693 2816 3347 2574 3091 2197 
C 3072 2542 2861 2816 2381 2816 
C 1811 2816 1510 2415 1395 2255 
C 1376 2618 1114 2816 832 2816 
C 646 2816 499 2727 378 2484 
C 262 2254 173 1865 173 1839 
C 173 1814 198 1782 243 1782 
C 294 1782 301 1788 339 1935 
C 435 2312 557 2689 813 2689 
C 960 2689 1011 2586 1011 2395 
C 1011 2254 947 2005 902 1807 
L 723 1118 
C 698 996 627 709 595 594 
C 550 428 480 128 480 96 
C 480 6 550 -64 646 -64 
C 723 -64 813 -26 864 70 
C 877 102 934 326 966 453 
L 1107 1028 
L 1318 1871 
z
" transform="scale(0.015625)"/>
      </defs>
      <use xlink:href="#CMR17-6c" transform="scale(0.996264)"/>
      <use xlink:href="#CMR17-6f" transform="translate(24.871058 0) scale(0.996264)"/>
      <use xlink:href="#CMR17-67" transform="translate(70.561536 0) scale(0.996264)"/>
      <use xlink:href="#CMMI12-1b" transform="translate(134.157584 0) scale(0.996264)"/>
      <use xlink:href="#CMMI12-63" transform="translate(189.603045 -14.943915) scale(0.697382)"/>
      <use xlink:href="#CMMI12-73" transform="translate(218.991176 -25.404611) scale(0.498132)"/>
      <use xlink:href="#CMMI12-79" transform="translate(241.966192 -25.404611) scale(0.498132)"/>
      <use xlink:href="#CMMI12-6d" transform="translate(267.535575 -25.404611) scale(0.498132)"/>
      <use xlink:href="#CMMI12-6d" transform="translate(310.19918 -25.404611) scale(0.498132)"/>
      <use xlink:href="#CMSY10-0" transform="translate(375.998255 0) scale(0.996264)"/>
      <use xlink:href="#CMMI12-1b" transform="translate(475.62493 0) scale(0.996264)"/>
      <use xlink:href="#CMMI12-63" transform="translate(531.070391 -14.943915) scale(0.697382)"/>
     </g>
    </g>
   </g>
   <g id="line2d_17">
    <path d="M 73.832727 295.488 
L 77.112066 293.108153 
L 80.391405 290.728306 
L 83.670744 288.348459 
L 86.950083 285.968613 
L 90.229421 283.588766 
L 93.50876 281.208919 
L 96.788099 278.829072 
L 100.067438 276.449225 
L 103.346777 274.069378 
L 106.626116 271.689531 
L 109.905455 269.309684 
L 113.184793 266.929838 
L 116.464132 264.549991 
L 119.743471 262.170144 
L 123.02281 259.790297 
L 126.302149 257.41045 
L 129.581488 255.030603 
L 132.860826 252.650756 
L 136.140165 250.27091 
L 139.419504 247.891063 
L 142.698843 245.511216 
L 145.978182 243.131369 
L 149.257521 240.751522 
L 152.53686 238.371675 
L 155.816198 235.991828 
L 159.095537 233.611982 
L 162.374876 231.232135 
L 165.654215 228.852288 
L 168.933554 226.472441 
L 172.212893 224.092594 
L 175.492231 221.712747 
L 178.77157 219.3329 
L 182.050909 216.953053 
L 185.330248 214.573207 
L 188.609587 212.19336 
L 191.888926 209.813513 
L 195.168264 207.433666 
L 198.447603 205.053819 
L 201.726942 202.673972 
L 205.006281 200.294125 
L 208.28562 197.914279 
L 211.564959 195.534432 
L 214.844298 193.154585 
L 218.123636 190.774738 
L 221.402975 188.394891 
L 224.682314 186.015044 
L 227.961653 183.635197 
L 231.240992 181.25535 
L 234.520331 178.875504 
L 237.799669 176.495657 
L 241.079008 174.11581 
L 244.358347 171.735963 
L 247.637686 169.356116 
L 250.917025 166.976269 
L 254.196364 164.596422 
L 257.475702 162.216576 
L 260.755041 159.836729 
L 264.03438 157.456882 
L 267.313719 155.077035 
L 270.593058 152.697188 
L 273.872397 150.317341 
L 277.151736 147.937494 
L 280.431074 145.557648 
L 283.710413 143.177801 
L 286.989752 140.797954 
L 290.269091 138.418107 
L 293.54843 136.03826 
L 296.827769 133.658413 
L 300.107107 131.278566 
L 303.386446 128.898719 
L 306.665785 126.518873 
L 309.945124 124.139026 
L 313.224463 121.759179 
L 316.503802 119.379332 
L 319.78314 116.999485 
L 323.062479 114.619638 
L 326.341818 112.239791 
L 329.621157 109.859945 
L 332.900496 107.480098 
L 336.179835 105.100251 
L 339.459174 102.720404 
L 342.738512 100.340557 
L 346.017851 97.96071 
L 349.29719 95.580863 
L 352.576529 93.201017 
L 355.855868 90.82117 
L 359.135207 88.441323 
L 362.414545 86.061476 
L 365.693884 83.681629 
L 368.973223 81.301782 
L 372.252562 78.921935 
L 375.531901 76.542088 
L 378.81124 74.162242 
L 382.090579 71.782395 
L 385.369917 69.402548 
L 388.649256 67.022701 
L 391.928595 64.642854 
L 395.207934 62.263007 
L 398.487273 59.88316 
" clip-path="url(#pb2f4665c65)" style="fill: none; stroke: #000000; stroke-width: 1.5; stroke-linecap: square"/>
   </g>
   <g id="patch_3">
    <path d="M 57.6 307.584 
L 57.6 41.472 
" style="fill: none; stroke: #000000; stroke-width: 0.8; stroke-linejoin: miter; stroke-linecap: square"/>
   </g>
   <g id="patch_4">
    <path d="M 414.72 307.584 
L 414.72 41.472 
" style="fill: none; stroke: #000000; stroke-width: 0.8; stroke-linejoin: miter; stroke-linecap: square"/>
   </g>
   <g id="patch_5">
    <path d="M 57.6 307.584 
L 414.72 307.584 
" style="fill: none; stroke: #000000; stroke-width: 0.8; stroke-linejoin: miter; stroke-linecap: square"/>
   </g>
   <g id="patch_6">
    <path d="M 57.6 41.472 
L 414.72 41.472 
" style="fill: none; stroke: #000000; stroke-width: 0.8; stroke-linejoin: miter; stroke-linecap: square"/>
   </g>
   <g id="text_19">
    <!-- $\log{y} \propto 0.5872\log{x}$ -->
    <g transform="translate(124.56 82.358626) scale(0.1 -0.1)">
     <defs>
      <path id="CMSY10-2f" d="M 4621 205 
C 4595 205 4493 192 4474 192 
C 3968 192 3629 691 3411 1024 
C 3347 1133 3174 1395 3104 1504 
C 3258 1850 3686 2643 4448 2643 
C 4493 2643 4550 2643 4621 2624 
C 4621 2790 4614 2797 4602 2810 
C 4557 2822 4461 2829 4403 2829 
C 3590 2829 3117 2048 2963 1728 
C 2707 2118 2618 2259 2381 2458 
C 1990 2797 1638 2829 1478 2829 
C 768 2829 358 2112 358 1376 
C 358 659 755 -70 1459 -70 
C 2272 -70 2746 710 2899 1030 
C 3155 640 3245 499 3482 301 
C 3872 -38 4224 -70 4384 -70 
C 4461 -70 4563 -58 4621 -44 
L 4621 205 
z
M 2758 1254 
C 2605 909 2176 115 1414 115 
C 794 115 499 794 499 1376 
C 499 2010 858 2566 1389 2566 
C 1894 2566 2234 2067 2451 1734 
C 2515 1626 2688 1363 2758 1254 
z
" transform="scale(0.015625)"/>
      <path id="CMR17-38" d="M 1741 2264 
C 2144 2467 2554 2773 2554 3263 
C 2554 3841 1990 4179 1472 4179 
C 890 4179 378 3759 378 3180 
C 378 3021 416 2747 666 2505 
C 730 2442 998 2251 1171 2130 
C 883 1983 211 1634 211 934 
C 211 279 838 -128 1459 -128 
C 2144 -128 2720 362 2720 1010 
C 2720 1590 2330 1857 2074 2029 
L 1741 2264 
z
M 902 2822 
C 851 2854 595 3051 595 3351 
C 595 3739 998 4032 1459 4032 
C 1965 4032 2336 3676 2336 3262 
C 2336 2669 1670 2331 1638 2331 
C 1632 2331 1626 2331 1574 2370 
L 902 2822 
z
M 2080 1519 
C 2176 1449 2483 1240 2483 851 
C 2483 381 2010 25 1472 25 
C 890 25 448 438 448 940 
C 448 1443 838 1862 1280 2060 
L 2080 1519 
z
" transform="scale(0.015625)"/>
      <path id="CMMI12-78" d="M 3034 2606 
C 2829 2567 2752 2414 2752 2293 
C 2752 2139 2874 2088 2963 2088 
C 3155 2088 3290 2254 3290 2427 
C 3290 2695 2982 2816 2714 2816 
C 2323 2816 2106 2433 2048 2312 
C 1901 2816 1504 2816 1389 2816 
C 736 2816 390 1980 390 1839 
C 390 1814 416 1782 461 1782 
C 512 1782 525 1820 538 1846 
C 755 2555 1184 2689 1370 2689 
C 1658 2689 1715 2420 1715 2267 
C 1715 2127 1677 1980 1600 1673 
L 1382 798 
C 1286 415 1101 64 762 64 
C 730 64 570 64 435 147 
C 666 192 717 383 717 460 
C 717 588 621 664 499 664 
C 346 664 179 530 179 326 
C 179 57 480 -64 755 -64 
C 1062 -64 1280 179 1414 441 
C 1517 64 1837 -64 2074 -64 
C 2726 -64 3072 773 3072 913 
C 3072 945 3046 971 3008 971 
C 2950 971 2944 939 2925 888 
C 2752 326 2381 64 2093 64 
C 1869 64 1747 230 1747 492 
C 1747 632 1773 734 1875 1156 
L 2099 2024 
C 2195 2408 2413 2689 2707 2689 
C 2720 2689 2899 2689 3034 2606 
z
" transform="scale(0.015625)"/>
     </defs>
     <use xlink:href="#CMR17-6c" transform="scale(0.996264)"/>
     <use xlink:href="#CMR17-6f" transform="translate(24.871058 0) scale(0.996264)"/>
     <use xlink:href="#CMR17-67" transform="translate(70.561536 0) scale(0.996264)"/>
     <use xlink:href="#CMMI12-79" transform="translate(134.157584 0) scale(0.996264)"/>
     <use xlink:href="#CMSY10-2f" transform="translate(212.970374 0) scale(0.996264)"/>
     <use xlink:href="#CMR17-30" transform="translate(318.13185 0) scale(0.996264)"/>
     <use xlink:href="#CMMI12-3a" transform="translate(363.822327 0) scale(0.996264)"/>
     <use xlink:href="#CMR17-35" transform="translate(390.919504 0) scale(0.996264)"/>
     <use xlink:href="#CMR17-38" transform="translate(436.609981 0) scale(0.996264)"/>
     <use xlink:href="#CMR17-37" transform="translate(482.300458 0) scale(0.996264)"/>
     <use xlink:href="#CMR17-32" transform="translate(527.990935 0) scale(0.996264)"/>
     <use xlink:href="#CMR17-6c" transform="translate(590.285818 0) scale(0.996264)"/>
     <use xlink:href="#CMR17-6f" transform="translate(615.156876 0) scale(0.996264)"/>
     <use xlink:href="#CMR17-67" transform="translate(660.847353 0) scale(0.996264)"/>
     <use xlink:href="#CMMI12-78" transform="translate(724.443402 0) scale(0.996264)"/>
    </g>
   </g>
   <g id="text_20">
    <!-- $y \approx 0.446x^{0.587}$ -->
    <g transform="translate(124.56 107.436637) scale(0.1 -0.1)">
     <defs>
      <path id="CMSY10-19" d="M 4622 2890 
C 4622 3023 4577 3081 4533 3081 
C 4507 3081 4449 3055 4443 2909 
C 4417 2469 3969 2208 3553 2208 
C 3182 2208 2862 2405 2529 2628 
C 2183 2858 1837 3087 1421 3087 
C 826 3087 352 2634 352 2047 
C 352 1907 403 1856 442 1856 
C 506 1856 531 1977 531 2002 
C 563 2538 1088 2729 1421 2729 
C 1792 2729 2113 2531 2445 2308 
C 2791 2079 3137 1850 3553 1850 
C 4149 1850 4622 2303 4622 2890 
z
M 4622 1391 
C 4622 1577 4545 1590 4533 1590 
C 4507 1590 4449 1558 4443 1417 
C 4417 975 3969 713 3553 713 
C 3182 713 2862 912 2529 1137 
C 2183 1369 1837 1600 1421 1600 
C 826 1600 352 1145 352 554 
C 352 412 403 361 442 361 
C 506 361 531 483 531 509 
C 563 1049 1088 1242 1421 1242 
C 1792 1242 2113 1042 2445 817 
C 2791 586 3137 354 3553 354 
C 4161 354 4622 828 4622 1391 
z
" transform="scale(0.015625)"/>
      <path id="CMR17-36" d="M 678 2176 
C 678 3690 1395 4032 1811 4032 
C 1946 4032 2272 4009 2400 3776 
C 2298 3776 2106 3776 2106 3553 
C 2106 3381 2246 3323 2336 3323 
C 2394 3323 2566 3348 2566 3560 
C 2566 3954 2246 4179 1805 4179 
C 1043 4179 243 3390 243 1984 
C 243 253 966 -128 1478 -128 
C 2099 -128 2688 427 2688 1283 
C 2688 2081 2170 2662 1517 2662 
C 1126 2662 838 2407 678 1960 
L 678 2176 
z
M 1478 25 
C 691 25 691 1200 691 1436 
C 691 1896 909 2560 1504 2560 
C 1613 2560 1926 2560 2138 2120 
C 2253 1870 2253 1609 2253 1289 
C 2253 944 2253 690 2118 434 
C 1978 171 1773 25 1478 25 
z
" transform="scale(0.015625)"/>
     </defs>
     <use xlink:href="#CMMI12-79" transform="scale(0.996264)"/>
     <use xlink:href="#CMSY10-19" transform="translate(78.812789 0) scale(0.996264)"/>
     <use xlink:href="#CMR17-30" transform="translate(183.974266 0) scale(0.996264)"/>
     <use xlink:href="#CMMI12-3a" transform="translate(229.664743 0) scale(0.996264)"/>
     <use xlink:href="#CMR17-34" transform="translate(256.76192 0) scale(0.996264)"/>
     <use xlink:href="#CMR17-34" transform="translate(302.452397 0) scale(0.996264)"/>
     <use xlink:href="#CMR17-36" transform="translate(348.142874 0) scale(0.996264)"/>
     <use xlink:href="#CMMI12-78" transform="translate(393.833351 0) scale(0.996264)"/>
     <use xlink:href="#CMR17-30" transform="translate(449.267411 36.153639) scale(0.697382)"/>
     <use xlink:href="#CMMI12-3a" transform="translate(481.250593 36.153639) scale(0.697382)"/>
     <use xlink:href="#CMR17-35" transform="translate(500.218526 36.153639) scale(0.697382)"/>
     <use xlink:href="#CMR17-38" transform="translate(532.201708 36.153639) scale(0.697382)"/>
     <use xlink:href="#CMR17-37" transform="translate(564.18489 36.153639) scale(0.697382)"/>
    </g>
   </g>
  </g>
 </g>
 <defs>
  <clipPath id="pb2f4665c65">
   <rect x="57.6" y="41.472" width="357.12" height="266.112"/>
  </clipPath>
 </defs>
</svg>
